{"glyphs":{"0":{"ha":482,"x_min":0,"x_max":456,"o":"m 139 633 l 117 625 q 137 661 122 643 q 172 692 151 679 q 213 714 192 706 q 254 722 235 722 q 351 696 304 722 q 428 629 399 669 q 449 583 443 607 q 456 532 456 560 q 444 432 456 483 q 417 333 432 381 q 381 247 404 296 q 328 149 357 199 q 266 57 299 100 q 204 -11 233 14 q 165 -33 189 -25 q 119 -42 140 -42 q 72 -31 94 -42 q 31 -3 49 -19 q 4 47 8 17 q 0 106 0 78 q 23 313 0 208 q 85 514 46 418 q 103 555 93 535 q 122 596 114 575 q 130 615 126 606 q 139 633 133 624 m 113 38 l 118 36 q 206 156 164 90 q 279 292 247 221 q 330 436 311 363 q 349 582 349 510 q 347 606 349 592 q 342 631 346 619 q 330 651 338 643 q 308 660 322 660 q 301 658 304 660 q 294 656 299 657 q 262 640 275 650 q 244 610 249 629 l 243 608 q 174 422 203 517 q 128 228 144 328 q 116 153 121 190 q 111 78 111 115 q 112 58 111 67 q 113 38 113 49 m 215 615 q 183 565 200 600 q 151 482 167 529 q 122 381 136 435 q 98 276 108 326 q 81 185 88 226 q 75 121 75 144 q 75 110 75 115 q 76 99 75 104 q 122 363 89 233 q 215 615 156 493 m 417 475 q 407 439 411 460 q 349 267 385 349 q 337 238 343 251 q 324 211 331 225 l 319 200 q 382 333 357 264 q 417 475 407 401 m 353 415 q 338 385 344 403 q 326 349 332 368 q 315 314 321 331 q 304 288 310 297 l 307 286 q 333 350 321 318 q 353 415 344 382 m 374 394 q 359 367 363 383 q 353 335 356 350 l 374 394 m 154 600 q 139 574 143 589 l 154 600 m 303 278 l 300 279 q 299 272 299 276 l 303 278 m 132 558 q 125 546 131 554 q 132 558 132 553 m 63 356 l 61 356 l 61 350 l 63 350 l 63 356 m 375 401 l 372 401 l 374 397 l 375 401 m 97 469 l 93 467 l 94 465 l 97 469 m 376 411 l 378 411 l 378 414 l 376 414 l 376 411 m 354 422 l 351 422 q 352 421 351 421 q 353 419 353 421 q 354 422 353 421 m 393 315 l 393 317 l 392 317 l 392 315 l 393 315 m 161 558 l 160 558 q 160 557 160 557 q 161 556 161 557 l 161 558 m 307 176 q 308 181 307 179 l 306 176 l 307 176 m 86 438 l 86 439 l 85 438 l 86 438 m 401 340 l 401 342 l 400 340 l 401 340 m 140 511 l 140 513 l 139 511 l 140 511 z "},"1":{"ha":371,"x_min":-12,"x_max":364,"o":"m -12 17 q 26 53 -1 40 q 76 76 54 65 q 107 238 83 161 q 153 383 129 311 q 203 528 178 456 q 219 567 210 547 q 232 606 228 586 q 203 599 215 599 q 164 614 179 599 q 138 646 149 629 q 158 659 143 651 q 190 674 172 667 q 225 688 208 681 q 250 699 242 694 q 272 712 258 703 q 296 721 286 721 q 313 712 306 715 q 324 705 319 708 q 334 695 329 701 q 346 679 339 689 q 358 665 351 671 q 364 649 364 660 q 361 635 364 643 q 340 576 356 618 q 303 480 324 535 q 260 364 282 425 q 219 250 238 303 q 188 159 200 197 q 178 111 176 121 q 201 113 189 113 q 225 114 214 114 q 260 111 246 114 q 285 102 274 108 q 306 86 296 96 q 331 63 317 76 q 299 56 315 57 q 268 53 283 56 q 195 37 231 49 q 126 8 160 25 q 110 0 121 6 q 90 -11 100 -6 q 69 -21 79 -17 q 53 -25 58 -25 q 35 -15 42 -25 l 25 -18 l 19 -10 l 21 -10 l 19 -3 q 3 1 13 -3 l 4 11 l -12 17 m 240 404 l 247 421 q 242 418 244 421 q 235 401 240 413 q 240 404 238 401 m 257 453 q 247 433 253 447 q 256 442 254 436 q 257 453 257 447 m 274 490 q 269 492 272 492 l 264 471 q 274 490 269 485 m 207 318 l 211 318 q 210 323 211 321 q 210 328 210 325 q 207 318 207 322 m 232 382 q 236 393 236 386 l 235 396 q 232 382 235 390 m 193 272 l 192 272 l 192 267 q 193 272 193 268 m 296 553 l 294 554 l 294 550 l 296 553 m 200 289 l 199 290 l 199 286 l 200 289 m 201 301 l 203 301 l 203 304 q 201 301 201 303 m 181 235 q 181 236 181 236 q 182 238 182 236 l 181 238 l 181 235 m 289 546 q 290 544 289 544 l 290 546 l 289 546 m 165 188 l 167 188 l 167 189 l 165 188 m 274 500 l 275 499 l 275 500 l 274 500 m 13 18 l 11 18 l 11 17 l 13 18 z "},"2":{"ha":515,"x_min":0,"x_max":488,"o":"m 207 128 q 249 130 228 128 q 292 132 271 132 q 374 124 332 132 q 447 88 415 115 l 468 71 q 444 62 457 64 q 418 60 431 60 q 396 60 407 60 q 374 61 385 61 q 307 58 340 61 q 240 47 274 54 q 171 30 204 40 q 103 8 138 19 q 89 6 94 6 q 77 6 82 6 q 65 8 72 7 l 61 15 l 47 11 l 47 19 l 38 19 l 39 29 l 31 26 l 17 39 l 21 50 l 11 46 q 4 56 8 50 q 0 68 0 63 q 5 78 0 74 q 13 86 10 83 q 67 139 40 113 q 118 193 93 165 q 166 246 138 214 q 226 315 194 278 q 288 394 257 353 q 344 476 319 436 q 385 551 369 515 q 401 615 401 588 q 401 625 401 621 q 399 635 400 629 q 381 638 388 638 q 364 636 372 638 q 347 632 356 635 q 254 597 304 621 q 178 536 204 574 q 169 520 172 529 q 161 503 165 511 q 122 524 142 510 q 103 561 103 538 q 125 615 103 590 q 179 659 147 640 q 246 690 211 678 q 306 706 281 703 q 325 708 315 707 q 344 708 335 708 q 390 699 371 708 q 429 671 410 689 q 468 626 449 651 q 488 571 488 601 q 474 499 488 536 q 442 424 461 461 q 399 355 422 388 q 353 296 375 322 q 281 210 317 253 q 207 128 246 168 m 417 450 q 292 281 363 358 q 156 121 222 203 q 197 160 168 129 q 257 228 225 192 q 317 300 289 265 q 358 351 346 335 q 391 399 376 375 q 417 450 406 422 m 336 417 q 256 315 297 364 q 175 215 215 265 q 209 253 183 224 q 263 317 235 283 q 314 380 292 351 q 336 415 336 408 l 336 417 m 203 597 q 174 576 190 590 q 157 547 157 563 q 179 573 167 561 q 203 597 192 585 m 351 392 q 334 369 342 381 q 317 346 326 357 l 278 297 q 294 316 283 303 q 317 344 306 329 q 339 372 329 358 q 351 392 349 386 m 240 254 l 228 236 q 236 244 232 240 q 240 254 240 247 m 147 182 l 154 196 q 149 190 151 193 q 146 185 146 188 l 147 182 m 164 592 l 158 585 q 164 592 161 586 m 157 615 l 151 610 l 158 615 l 157 615 m 174 601 l 172 601 l 169 599 l 174 601 m 272 225 l 271 224 q 274 225 272 224 l 272 225 m 351 435 l 350 435 q 349 432 350 433 l 351 435 z "},"3":{"ha":418,"x_min":0,"x_max":404,"o":"m 301 467 q 375 397 346 439 q 404 301 404 356 q 381 203 404 257 q 322 101 358 149 q 238 22 285 54 q 144 -11 192 -11 q 92 -1 118 -11 q 46 25 67 8 q 13 65 25 42 q 0 117 0 89 q 9 165 0 142 q 33 208 18 188 q 67 246 47 229 q 106 275 86 263 q 134 286 119 283 q 164 289 149 289 q 188 276 176 289 q 208 256 200 264 l 219 258 l 214 247 q 171 210 193 228 q 131 170 149 192 q 101 124 113 149 q 92 67 90 99 q 96 66 94 67 q 99 65 97 65 q 114 68 107 65 q 128 74 121 71 q 197 119 163 88 q 258 189 231 150 q 301 271 285 228 q 318 351 318 314 q 314 385 318 368 q 307 405 311 400 q 286 410 303 410 q 179 386 226 410 q 164 382 171 382 q 150 388 156 382 l 156 399 l 142 390 q 133 402 138 399 q 123 410 128 406 q 115 419 118 414 q 111 435 111 424 q 116 449 111 443 q 128 461 121 456 q 203 519 167 490 q 276 582 240 549 q 307 617 294 600 q 324 660 319 635 q 324 669 325 665 q 325 679 324 674 q 292 686 307 686 q 225 674 263 686 q 153 639 188 661 q 96 588 119 617 q 72 526 72 560 q 71 518 72 522 q 68 511 69 514 q 25 539 43 524 q 7 586 7 554 q 29 643 7 615 q 83 693 51 671 q 151 730 115 715 q 211 747 186 744 q 225 749 218 749 q 239 749 232 749 q 322 726 286 749 q 378 660 358 704 q 385 626 385 643 q 376 581 385 601 q 355 542 368 560 q 326 507 342 524 q 293 474 310 490 q 301 467 299 468 m 75 661 q 61 652 68 657 q 53 638 54 647 l 75 661 m 68 629 l 69 628 l 69 629 l 68 629 m 67 593 q 73 599 67 593 q 88 614 79 606 q 104 631 96 622 q 117 644 113 640 q 88 623 100 633 q 65 593 75 613 l 67 593 m 342 568 l 347 574 l 347 575 l 342 568 m 224 506 q 231 510 226 506 q 238 517 235 514 l 225 508 l 224 506 m 274 550 q 257 536 269 547 q 242 521 244 525 q 247 525 243 521 q 257 534 251 529 q 267 544 263 539 q 274 550 272 549 q 283 558 278 554 q 292 568 288 563 q 294 571 294 568 l 292 568 q 283 560 288 564 q 274 550 278 556 m 261 482 q 295 509 279 493 q 325 540 311 525 q 333 553 331 547 q 340 565 336 558 q 324 551 336 563 q 298 525 311 539 q 274 499 285 511 q 261 482 263 486 m 88 203 q 90 204 89 204 l 90 206 l 88 203 m 51 193 q 71 221 63 207 l 51 193 m 74 183 q 80 190 76 186 q 85 199 83 193 l 74 183 m 75 139 q 88 151 81 143 q 101 170 94 160 q 115 190 108 181 q 126 206 122 200 q 117 201 122 206 q 105 190 111 196 q 93 177 99 183 q 86 168 88 171 q 80 153 82 161 q 75 139 78 146 m 306 176 q 302 174 303 176 q 301 168 301 171 q 308 176 303 171 l 306 176 m 301 217 q 300 213 300 215 l 301 217 m 294 158 q 282 144 289 154 q 271 126 275 133 q 284 142 276 132 q 294 158 292 151 m 289 196 q 261 156 276 175 q 232 117 246 136 q 263 155 249 136 q 289 196 278 174 m 238 60 l 236 58 l 238 58 l 238 60 m 253 72 q 283 98 268 81 q 313 136 299 115 q 337 178 326 157 q 353 217 347 200 l 351 215 l 286 115 q 269 94 279 104 q 253 72 260 83 m 311 111 l 310 111 l 310 110 l 311 111 m 333 143 l 332 143 l 332 142 l 333 143 m 339 153 l 338 151 l 339 151 l 339 153 z "},"4":{"ha":543,"x_min":0,"x_max":535,"o":"m 515 639 l 521 642 q 535 618 535 632 q 529 596 535 613 q 516 559 524 579 q 501 521 508 539 q 492 494 494 503 l 433 338 q 455 320 444 329 q 476 304 465 311 q 449 282 469 285 q 414 276 429 279 q 386 188 399 232 q 364 100 374 144 q 353 6 354 53 q 353 -89 353 -42 q 339 -78 346 -82 q 322 -74 332 -74 q 296 -58 307 -74 q 278 -19 285 -42 q 267 24 271 3 q 264 58 264 46 q 274 153 264 107 q 296 244 285 199 q 297 252 297 249 q 297 260 296 256 l 279 257 l 210 233 q 158 209 186 225 q 106 193 131 193 q 90 194 97 193 q 76 199 83 194 l 64 196 l 25 224 l 25 225 q 10 240 19 229 q 0 258 0 251 q 1 268 0 264 q 24 345 13 307 q 49 421 35 383 q 70 475 54 436 q 103 556 86 514 q 134 634 121 599 q 147 679 147 669 q 144 690 147 686 q 138 696 142 693 q 131 702 135 699 q 126 713 128 706 l 128 711 l 128 713 l 117 721 q 133 736 115 736 q 169 726 150 736 q 206 699 189 715 q 233 664 222 683 q 243 628 243 644 q 232 566 243 607 q 205 478 221 525 q 174 389 189 432 q 150 324 158 346 q 237 343 193 335 q 325 354 281 351 q 336 385 332 369 q 346 415 340 400 q 376 503 361 460 q 407 590 392 546 q 423 631 415 610 q 440 671 431 651 q 461 686 447 686 l 475 679 l 471 664 l 483 675 l 496 668 l 496 654 l 501 660 l 514 654 q 513 645 513 650 q 513 636 513 640 l 513 635 q 514 632 514 632 l 515 639 m 176 508 l 172 504 q 140 421 154 463 q 111 336 126 379 q 129 372 122 346 q 142 413 136 397 l 176 508 m 178 515 l 176 515 l 176 511 l 178 515 m 375 267 l 375 264 l 376 264 q 375 267 376 265 z "},"5":{"ha":542,"x_min":-8,"x_max":524,"o":"m 169 257 l 199 236 l 196 233 l 218 231 q 191 201 206 214 q 162 176 176 189 q 132 150 147 164 q 103 115 117 136 q 88 88 93 100 q 82 57 82 75 q 84 42 82 50 q 88 28 86 35 l 93 28 q 172 55 129 28 q 255 121 215 82 q 326 202 294 160 q 372 275 358 244 q 388 318 382 296 q 393 364 393 340 q 382 420 393 394 q 335 446 371 446 q 251 435 290 446 q 171 406 211 424 q 151 400 160 400 q 105 420 126 400 q 83 465 83 440 q 88 485 83 469 q 100 518 93 500 q 113 552 107 536 q 121 574 118 568 q 142 617 131 596 q 163 660 153 638 q 167 675 165 667 q 171 690 168 683 l 165 690 q 161 700 164 693 q 158 710 158 707 q 174 724 158 724 q 199 724 189 724 l 279 724 q 360 728 319 724 q 440 733 400 733 q 463 731 451 733 q 485 726 474 729 q 497 708 492 717 q 511 692 503 699 l 488 676 l 489 674 l 514 683 l 524 674 q 485 640 515 647 q 438 631 461 633 q 390 626 414 629 q 322 617 356 621 q 251 613 288 614 q 232 557 242 585 q 211 501 222 529 q 244 506 228 504 q 276 508 260 508 q 347 494 311 508 q 412 455 383 479 q 458 397 440 431 q 476 326 476 364 q 476 317 476 321 q 475 307 475 313 q 444 208 471 263 q 378 104 418 154 q 292 17 339 54 q 203 -32 246 -21 q 151 -39 175 -39 q 100 -30 128 -39 q 48 -4 72 -21 q 8 35 24 13 q -8 85 -8 58 q 9 144 -8 114 q 52 200 26 175 q 109 241 78 225 q 169 257 140 257 m 431 244 q 385 174 407 208 q 336 106 364 139 q 329 96 332 100 q 324 86 326 92 q 385 160 356 122 q 431 244 415 197 m 101 157 l 99 157 q 90 151 93 157 q 83 142 86 144 q 67 119 74 131 q 58 93 61 108 l 101 157 m 388 206 l 388 211 l 386 206 q 369 184 376 196 q 356 161 363 172 q 372 183 363 168 q 388 206 382 197 m 372 228 q 355 203 363 217 q 339 178 347 190 q 372 228 358 197 m 31 136 q 36 145 33 140 q 42 156 39 150 q 35 147 39 153 q 31 136 32 142 m 317 150 q 326 164 322 156 q 322 156 324 160 q 317 150 319 153 m 51 128 l 57 135 l 57 138 q 53 133 56 135 q 51 128 51 131 m 324 86 l 321 86 q 318 83 318 86 l 318 82 l 324 86 m 22 124 q 25 122 24 124 l 25 126 l 22 124 m 101 157 l 103 161 l 101 161 l 101 157 m 506 668 l 506 667 l 507 668 l 506 668 m 393 219 l 393 218 l 394 218 l 393 219 m 418 183 l 418 185 l 417 185 l 418 183 m 401 163 l 403 161 l 403 163 l 401 163 m 411 175 l 413 176 l 411 176 l 411 175 m 397 225 l 396 224 l 397 224 l 397 225 m 397 153 l 397 154 l 396 154 l 397 153 m 88 117 l 88 118 l 86 117 l 88 117 z "},"6":{"ha":449,"x_min":0,"x_max":436,"o":"m 425 626 l 382 653 q 343 640 361 650 q 310 614 325 629 q 281 581 294 599 q 257 547 267 563 q 214 479 235 514 q 178 408 193 444 q 242 418 207 418 q 356 385 306 418 q 410 335 385 365 q 436 267 436 304 q 432 235 436 249 q 397 159 421 196 q 339 93 372 122 q 266 47 306 64 q 185 29 226 29 q 87 58 128 29 q 19 135 46 86 q 3 182 7 158 q 0 232 0 206 q 10 313 0 272 q 35 392 19 353 q 78 486 49 428 q 145 601 107 544 q 227 698 183 657 q 315 739 271 739 q 383 711 356 739 q 429 650 411 683 q 432 644 431 647 q 433 639 433 642 q 431 633 433 636 q 425 626 428 629 m 326 339 q 318 342 322 340 q 310 343 314 343 q 215 322 257 343 q 133 269 174 301 q 124 257 126 264 q 119 239 121 251 q 117 212 118 226 q 116 184 117 197 q 115 164 115 171 q 117 138 115 151 q 128 114 118 124 q 195 138 160 118 q 260 188 231 158 q 308 253 289 218 q 328 321 328 288 q 328 330 328 325 q 326 339 328 335 m 313 657 l 310 660 q 268 629 285 649 q 241 594 260 621 q 203 538 222 568 q 169 482 183 508 q 154 447 154 456 q 183 490 171 467 q 208 536 194 514 q 255 601 229 571 q 313 657 281 632 m 396 236 l 394 238 l 331 139 l 338 142 q 345 151 339 142 q 360 171 351 160 q 375 192 368 182 q 383 204 382 201 q 390 219 388 211 q 396 236 393 228 m 211 639 l 263 689 q 235 669 247 681 q 213 643 224 657 l 211 639 m 347 200 l 360 222 q 347 213 351 222 q 340 196 343 203 l 347 200 m 335 244 l 311 204 q 324 223 318 215 q 335 244 331 231 m 271 661 q 253 647 260 654 q 240 628 247 639 l 271 661 m 142 421 l 149 433 q 142 422 142 429 l 142 421 m 400 199 l 399 200 l 399 199 l 400 199 z "},"7":{"ha":418,"x_min":0,"x_max":410,"o":"m 67 -6 l 54 3 l 56 4 q 47 3 50 4 q 24 27 33 14 q 15 60 15 40 q 16 65 15 63 q 17 69 17 67 q 31 137 22 103 q 50 203 39 171 q 121 407 83 306 q 203 607 158 508 q 219 638 210 622 q 239 668 229 653 q 183 658 211 664 q 126 653 154 653 q 42 674 79 653 q 17 697 24 685 q 0 725 11 710 q 14 739 0 739 q 39 736 26 739 q 64 733 51 733 q 110 738 83 733 q 166 750 138 743 q 222 765 194 757 q 268 781 249 774 q 299 792 283 788 q 331 799 314 796 q 365 778 354 786 q 390 747 375 769 q 402 734 394 740 q 410 718 410 728 q 405 701 410 711 q 392 680 400 690 q 378 660 385 669 q 367 644 371 650 q 272 481 314 565 q 193 308 229 396 q 147 192 169 250 q 104 75 124 135 q 99 57 103 71 q 92 29 96 43 q 83 4 88 15 q 75 -7 78 -7 q 67 -4 72 -7 l 67 -6 m 368 704 l 365 707 q 329 661 344 688 q 299 611 314 635 q 335 656 319 631 q 368 704 351 681 z "},"8":{"ha":503,"x_min":0,"x_max":481,"o":"m 161 413 q 148 438 154 428 q 136 459 142 449 q 128 481 131 469 q 125 511 125 493 q 136 567 125 538 q 210 677 160 632 q 328 742 261 722 q 354 746 340 746 q 415 723 386 746 q 463 676 443 700 q 477 644 474 661 q 481 608 481 626 q 451 492 481 546 q 376 397 422 438 q 343 377 360 382 q 307 365 326 372 l 308 360 q 345 326 325 343 q 383 290 365 310 q 412 249 400 271 q 424 200 424 226 q 410 147 424 175 q 329 56 381 88 q 211 25 278 25 q 134 43 171 25 q 65 85 97 61 q 16 147 32 110 q 0 226 0 185 q 10 286 0 258 q 26 326 15 303 q 53 369 38 349 q 87 405 68 390 q 126 419 106 419 q 156 413 139 419 l 161 413 m 168 90 q 190 96 179 93 q 213 103 201 99 q 244 121 228 108 q 274 149 261 133 q 297 182 288 164 q 306 218 306 200 q 294 263 306 243 q 267 300 283 283 q 233 333 251 317 q 201 365 215 349 q 166 334 181 354 q 142 290 151 314 q 127 241 132 267 q 122 193 122 215 q 126 160 122 174 q 135 137 129 147 q 149 115 140 126 q 168 90 157 104 m 263 421 q 307 472 285 446 q 347 527 329 499 q 375 588 364 556 q 386 654 386 619 l 386 660 l 382 661 q 336 630 361 649 q 290 588 311 611 q 254 538 268 564 q 240 485 240 511 q 247 451 240 467 q 263 421 253 436 m 435 538 q 416 507 424 522 q 397 476 408 492 q 381 455 390 465 q 365 433 371 444 q 364 425 364 431 q 408 476 385 450 q 435 538 431 503 m 213 533 q 242 574 225 549 q 269 618 260 600 q 213 533 225 588 m 94 261 q 115 305 103 285 q 138 347 126 325 q 139 356 139 350 q 107 310 122 335 q 92 258 92 286 l 94 261 m 371 154 q 384 168 381 158 q 388 189 388 178 q 387 195 388 192 q 386 201 386 199 q 377 178 381 190 q 371 154 374 167 m 47 307 q 65 332 57 319 q 79 358 72 344 q 70 351 75 358 q 60 336 65 344 q 52 319 56 328 q 47 307 49 311 m 218 642 l 215 644 q 196 619 204 632 q 179 592 188 606 q 199 617 190 604 q 218 642 208 629 m 201 569 l 224 604 q 209 589 217 597 q 201 569 201 581 m 343 474 q 356 492 350 483 q 365 511 361 500 q 352 492 361 504 q 343 474 343 481 m 76 303 q 88 322 82 313 q 99 342 93 331 q 85 324 90 333 q 76 303 81 314 m 397 508 q 386 499 389 506 q 381 486 383 493 l 397 508 m 325 181 l 328 179 q 329 189 329 182 q 326 184 326 186 q 325 181 326 182 m 353 179 l 357 182 l 354 183 l 353 179 m 89 251 l 92 251 l 92 256 l 89 251 m 233 618 l 232 619 l 231 615 l 233 618 m 285 629 l 282 628 q 286 629 285 628 l 285 629 m 363 463 l 361 463 l 361 461 l 363 463 m 428 482 l 426 482 l 428 481 l 428 482 z "},"9":{"ha":415,"x_min":17,"x_max":393,"o":"m 318 739 q 353 715 338 728 q 383 685 369 703 q 391 669 389 678 q 388 650 393 661 q 356 663 371 656 q 331 682 340 669 q 315 693 324 692 q 294 692 306 694 q 253 673 272 686 q 219 643 235 660 q 163 566 186 607 q 129 478 140 525 q 122 408 122 442 q 131 338 122 374 q 133 329 133 335 q 163 349 151 338 q 185 374 174 360 q 223 442 208 406 q 250 514 238 478 q 258 571 256 540 q 260 583 260 578 q 268 593 261 589 q 331 564 303 586 q 343 542 340 556 q 359 412 354 478 q 353 278 364 346 q 319 155 342 214 q 251 43 297 96 q 212 13 232 22 q 167 0 192 4 q 32 44 83 -11 q 25 64 24 56 q 38 86 26 72 q 42 78 35 79 q 80 69 65 81 q 106 43 94 58 q 145 58 131 44 q 174 86 160 71 q 218 156 201 119 q 246 231 235 192 q 264 335 260 279 q 248 315 257 325 q 232 294 239 304 q 174 264 203 267 q 113 276 144 261 q 48 329 71 294 q 21 413 25 364 q 38 551 17 485 q 111 676 58 617 q 167 728 135 704 q 318 739 242 778 m 186 651 q 184 651 185 651 q 182 650 183 650 q 144 602 158 628 q 118 547 129 576 l 126 557 q 156 602 140 579 q 183 649 171 625 l 186 651 m 224 328 q 253 365 243 344 q 269 407 264 385 l 224 328 m 313 221 q 292 174 301 197 q 272 126 283 150 q 278 134 275 131 q 285 142 282 138 q 298 181 292 161 q 313 221 304 201 m 238 151 q 247 163 244 156 q 250 176 249 169 l 238 151 m 203 368 q 204 371 203 369 q 210 375 207 374 q 218 381 213 376 q 219 385 218 383 q 219 389 219 386 q 218 385 218 386 q 215 381 218 383 q 209 376 213 378 q 203 372 206 374 l 203 368 m 132 622 q 131 619 132 621 q 129 614 129 617 q 132 618 132 617 q 133 622 132 619 q 143 631 139 628 l 143 635 q 142 633 143 633 q 142 631 142 632 q 137 627 139 629 q 132 622 135 625 m 224 397 q 221 393 221 394 q 219 389 221 392 q 225 397 224 393 q 226 401 225 399 q 228 407 228 404 l 224 397 m 251 179 l 253 181 q 258 193 253 186 l 258 194 q 256 193 257 194 q 254 187 256 190 q 251 181 253 183 l 251 179 m 313 225 q 315 230 314 226 q 315 236 315 233 l 314 236 l 313 225 m 96 611 q 101 618 99 614 q 106 625 103 622 q 96 611 100 621 m 119 601 q 117 606 119 606 l 117 600 l 119 601 m 228 408 q 228 410 228 410 q 229 411 229 410 l 229 413 l 228 413 l 228 408 m 238 151 q 233 140 233 146 q 238 150 233 143 l 238 151 m 267 107 l 267 113 l 263 107 l 267 107 m 128 660 q 126 656 126 658 q 125 651 126 654 l 126 651 q 127 656 126 654 q 128 660 128 657 m 117 546 q 115 540 115 544 l 117 540 l 117 546 m 136 665 q 134 665 135 665 q 132 664 133 664 q 135 665 135 664 q 139 665 136 665 l 136 667 l 136 665 m 119 650 l 122 650 q 119 649 119 649 q 115 640 115 644 l 119 650 m 194 660 q 194 658 194 658 q 193 654 193 657 q 197 660 196 658 l 194 660 m 117 606 l 126 611 q 117 607 118 607 l 117 606 m 201 361 l 203 361 l 203 367 q 201 364 203 365 l 201 361 m 154 649 q 149 644 153 649 q 151 646 150 646 q 154 649 153 646 m 224 328 q 221 324 221 325 q 224 326 222 326 l 224 328 m 192 654 q 190 653 190 654 q 188 653 189 653 l 188 651 l 192 654 m 268 117 q 270 119 269 118 q 271 124 271 119 l 268 117 m 258 199 q 260 201 258 200 l 258 201 l 258 199 m 131 664 q 130 663 131 663 q 129 661 129 663 l 132 664 l 131 664 m 271 171 l 272 171 l 272 172 l 271 171 m 156 650 q 154 649 154 650 l 156 650 z "},"\u0000":{"ha":0,"x_min":0,"x_max":0,"o":""},"\r":{"ha":289,"x_min":0,"x_max":0,"o":""}," ":{"ha":289,"x_min":0,"x_max":0,"o":""},"o":{"ha":442,"x_min":0,"x_max":428,"o":"m 125 369 l 150 358 q 178 396 163 375 q 213 436 194 417 q 253 469 232 456 q 297 482 274 482 q 343 469 319 482 q 385 438 367 457 q 416 394 404 418 q 428 349 428 371 q 413 263 428 307 q 374 176 397 218 q 319 97 350 133 q 260 32 289 60 q 224 3 242 15 q 181 -14 206 -10 q 166 -16 174 -15 q 151 -17 158 -17 q 90 -4 118 -17 q 42 30 63 8 q 11 81 22 51 q 0 142 0 110 l 0 158 q 10 215 0 179 q 38 285 21 251 q 77 344 54 319 q 125 369 100 369 m 100 49 q 189 95 147 61 q 263 174 231 129 q 317 269 294 218 q 347 365 339 319 q 350 379 349 372 q 351 393 351 386 q 347 411 351 403 q 306 392 331 411 q 260 348 282 374 q 222 295 238 322 q 206 251 206 268 q 225 218 206 232 q 211 210 219 210 q 165 228 182 210 q 133 267 149 247 q 106 188 118 228 q 93 107 93 149 q 94 78 93 92 q 100 49 96 64 m 364 224 q 320 152 344 186 q 269 85 296 118 q 265 78 267 82 q 261 71 263 75 q 289 102 271 83 q 324 143 307 121 q 352 186 340 165 q 364 224 364 207 m 196 303 q 237 357 217 331 q 281 407 257 383 l 281 408 l 279 408 q 278 408 278 408 q 276 407 278 407 q 252 387 265 399 q 228 360 239 375 q 208 331 217 346 q 196 303 199 317 m 132 317 l 133 319 q 111 289 119 306 q 96 254 103 272 q 104 267 99 258 q 116 285 110 275 q 127 304 122 296 q 132 317 132 313 m 186 368 q 196 382 188 372 q 215 402 204 392 q 235 422 225 413 q 249 436 244 432 l 246 436 q 182 365 210 406 l 186 368 m 264 140 q 281 160 274 149 q 294 183 288 171 q 276 160 289 176 q 264 140 264 144 m 286 132 q 301 154 293 143 q 317 176 310 165 l 285 133 l 285 132 l 286 132 m 78 313 l 100 338 q 87 326 92 333 q 78 313 82 319 m 204 357 q 216 372 210 365 q 228 386 222 379 q 214 372 224 382 q 204 357 204 361 m 101 307 q 114 326 111 314 l 101 307 m 90 235 l 88 235 l 88 232 q 90 235 88 232 m 318 181 q 317 176 317 179 l 318 181 m 339 146 l 340 146 l 340 147 l 339 146 m 271 115 l 269 117 q 271 115 269 115 z "},"f":{"ha":340,"x_min":3,"x_max":392,"o":"m 296 743 q 338 733 319 743 q 367 707 356 724 q 385 670 379 690 q 392 629 392 650 q 388 597 392 611 q 379 567 385 583 q 376 552 376 560 q 374 538 375 544 q 339 446 361 493 q 270 346 311 390 q 186 257 229 301 q 166 231 172 243 q 157 199 160 218 q 154 181 156 190 q 150 164 153 172 q 188 171 168 164 q 225 186 207 178 q 256 201 243 194 q 275 208 269 208 q 281 207 275 208 q 295 203 288 206 q 310 199 303 201 q 319 197 317 197 q 300 173 318 185 q 259 152 282 161 q 213 137 236 143 q 179 128 190 131 q 185 113 181 119 q 215 11 206 68 q 225 -94 225 -46 q 215 -207 225 -147 q 183 -315 206 -267 q 107 -368 160 -368 q 72 -362 88 -368 q 35 -336 47 -356 q 18 -293 24 -317 q 6 -219 10 -257 q 3 -143 3 -181 q 3 -110 3 -126 q 6 -76 4 -93 q 8 -35 8 -56 q 10 7 7 -14 q 33 177 17 88 q 74 356 49 267 q 132 530 99 446 q 210 682 165 614 q 246 724 224 704 q 296 743 268 743 m 336 697 q 310 673 321 688 q 290 643 299 658 q 231 494 254 572 q 186 340 207 417 l 189 340 q 217 367 203 354 q 243 396 231 381 q 280 450 261 418 q 314 517 299 482 q 338 588 329 553 q 347 653 347 624 q 346 677 347 664 q 336 697 344 690 m 124 -237 q 144 -149 138 -200 q 150 -57 150 -97 q 147 -2 150 -29 q 138 51 144 25 q 129 -6 132 26 q 124 -70 126 -37 q 122 -135 122 -103 q 121 -193 121 -167 q 121 -215 121 -204 q 124 -237 121 -226 m 363 532 q 364 531 364 532 l 368 542 l 367 542 l 374 563 l 379 567 q 378 579 378 571 q 383 599 382 589 q 385 619 385 608 q 385 633 385 626 q 383 647 385 640 l 369 647 q 367 628 367 638 q 365 610 368 619 q 310 449 349 521 q 297 427 303 438 q 283 406 290 417 l 275 389 q 294 410 285 399 q 310 433 303 422 l 310 426 l 317 431 l 317 438 l 310 433 l 317 444 l 317 438 l 321 438 l 321 431 l 324 438 l 321 438 l 324 442 l 325 439 l 328 442 l 325 442 l 328 449 l 328 443 l 331 449 l 328 450 l 328 457 l 321 454 l 342 500 l 342 499 l 353 526 q 352 517 353 521 q 350 507 351 513 l 356 510 l 357 508 q 360 519 360 517 l 364 531 l 363 532 m 88 -276 q 90 -174 89 -225 q 93 -71 90 -122 q 101 32 96 -19 q 110 135 106 83 q 97 70 103 114 q 88 -22 92 26 q 83 -116 85 -71 q 81 -185 81 -161 q 81 -231 81 -208 q 88 -276 82 -254 m 140 288 q 190 468 160 378 q 263 642 221 558 q 267 652 265 647 q 271 663 268 657 q 226 577 246 624 q 189 481 206 531 q 159 383 172 432 q 136 289 146 333 l 140 288 m 181 314 q 240 376 208 338 q 297 458 271 414 q 341 548 324 503 q 358 631 358 593 q 357 649 358 643 q 354 642 354 643 q 331 540 347 589 q 288 446 314 492 q 237 378 265 410 q 181 314 208 346 m 190 -218 q 196 -189 193 -203 q 200 -160 199 -175 q 203 -113 203 -136 q 206 -67 204 -90 l 185 -225 l 190 -218 m 200 617 q 174 561 181 594 q 187 589 181 575 q 200 617 193 603 m 167 -53 q 165 -83 165 -68 q 164 -112 164 -97 q 169 -90 169 -103 q 168 -74 169 -82 q 167 -57 167 -65 l 167 -53 m 115 168 q 121 192 118 178 q 117 193 118 192 l 111 169 q 115 168 114 169 m 350 507 q 346 503 347 504 q 343 500 344 503 l 343 488 q 349 496 349 490 q 350 507 350 501 m 164 -117 q 162 -132 163 -124 q 161 -147 161 -140 q 165 -135 165 -142 q 165 -125 165 -129 q 164 -117 164 -121 m 156 -174 q 161 -164 161 -169 q 160 -158 161 -161 q 160 -151 160 -154 l 156 -174 m 58 -175 q 60 -161 60 -168 q 60 -147 60 -154 l 57 -147 q 58 -161 57 -154 q 58 -175 58 -168 m 156 -174 q 156 -183 156 -178 q 154 -192 156 -187 l 158 -187 l 156 -174 m 265 364 q 278 376 275 369 q 272 371 275 374 q 265 364 268 368 m 328 457 l 332 457 l 332 450 l 335 457 l 332 457 l 332 464 l 328 457 m 113 394 q 115 400 115 397 q 108 399 111 400 l 113 394 m 140 476 l 149 494 l 139 478 l 139 475 l 140 476 m 63 -60 l 61 -60 l 61 -72 l 63 -72 l 63 -60 m 149 500 q 149 504 149 503 q 150 508 150 506 l 154 515 l 154 517 l 149 508 l 149 500 m 38 -10 l 36 -10 l 36 -21 l 38 -21 l 38 -10 m 282 379 q 283 386 283 382 l 279 376 l 282 378 l 285 378 q 283 378 283 378 q 282 379 283 379 m 168 550 q 167 546 168 547 l 174 557 l 174 560 l 168 550 m 210 639 l 213 642 l 215 651 l 217 653 l 214 653 q 213 648 214 650 q 213 643 213 646 l 210 639 m 67 -17 l 67 -8 l 65 -8 l 65 -17 l 67 -17 m 78 254 l 76 256 q 74 247 74 250 l 78 254 m 346 482 q 349 488 349 485 l 346 488 l 346 482 m 49 94 l 47 94 l 47 88 l 49 88 l 49 94 m 185 -233 l 186 -233 q 185 -225 186 -228 l 185 -233 m 288 392 q 293 394 290 392 l 292 396 l 288 392 m 261 374 q 267 381 264 375 q 263 378 265 379 q 261 374 261 376 m 267 381 q 275 388 269 382 l 274 388 l 267 381 m 343 481 q 344 475 343 476 q 346 481 344 479 l 343 481 m 342 486 l 339 481 l 342 481 l 342 486 m 83 283 l 85 283 l 85 289 l 83 289 l 83 283 m 119 415 l 121 415 l 121 421 l 119 421 l 119 415 m 126 433 q 128 439 128 435 l 125 435 l 125 433 l 126 433 m 354 507 l 354 501 l 357 507 l 354 507 m 74 239 l 74 246 q 72 239 72 243 l 74 239 m 154 517 l 158 519 q 156 521 157 521 l 154 517 m 44 60 l 43 61 l 43 56 l 44 56 l 44 60 m 308 418 q 309 422 308 421 q 310 425 310 422 q 307 418 307 419 l 308 418 m 100 343 l 99 344 l 94 340 l 100 343 m 293 394 q 294 401 294 397 q 293 394 293 399 m 107 371 l 106 372 l 103 367 l 107 371 m 58 164 l 60 164 l 60 168 l 58 168 l 58 164 m 56 138 l 56 142 l 54 142 l 54 138 l 56 138 m 151 -208 l 153 -208 l 153 -204 l 151 -204 l 151 -208 m 288 392 l 283 388 l 283 386 l 288 392 m 221 657 q 217 653 218 653 l 221 653 l 221 657 m 301 414 q 303 416 301 415 q 307 418 306 417 l 306 418 l 301 415 l 301 414 m 301 406 l 301 411 q 300 407 300 410 l 301 406 m 272 664 l 278 668 l 274 667 l 272 664 m 294 404 q 300 407 297 404 l 299 407 l 294 404 m 33 -97 l 32 -97 q 33 -101 32 -100 l 33 -97 m 167 474 l 164 474 l 167 471 l 167 474 m 233 683 l 238 685 l 239 686 l 238 686 l 233 683 m 103 358 l 103 363 q 101 360 101 361 l 103 358 m 231 674 q 228 672 229 672 l 231 672 q 231 674 231 674 q 232 676 232 675 q 231 675 232 675 q 231 674 231 675 m 279 672 q 281 678 279 676 l 282 679 l 279 678 l 279 672 m 138 472 l 139 471 l 139 475 l 138 472 m 115 401 l 117 406 l 115 406 l 115 401 m 204 626 l 208 635 l 204 628 l 204 626 m 257 369 l 256 369 l 253 365 l 257 369 m 133 456 l 135 460 l 133 460 l 133 456 m 279 672 q 278 670 279 671 q 278 668 278 669 l 279 668 l 279 672 m 119 321 l 119 319 l 121 319 l 121 321 l 119 321 m 289 378 l 290 378 l 290 379 l 289 379 l 289 378 m 90 315 l 90 314 l 92 314 l 92 315 l 90 315 m 199 558 l 197 557 l 197 556 l 199 557 l 199 558 m 79 272 q 81 271 79 271 l 81 272 l 79 272 m 110 275 l 108 275 l 108 274 l 110 274 l 110 275 m 225 671 q 228 672 225 671 l 225 672 l 225 671 m 175 497 q 174 499 175 499 l 174 497 l 175 497 m 375 569 q 374 567 375 569 l 374 569 l 375 569 m 297 394 q 301 393 299 393 l 297 394 m 336 457 l 335 457 l 335 456 l 336 457 m 89 299 l 88 299 l 88 300 q 89 299 88 299 m 161 -149 l 161 -147 l 160 -149 l 161 -149 m 185 528 l 185 526 l 186 528 l 185 528 m 167 471 l 164 468 q 167 471 164 468 m 81 121 l 79 121 l 81 119 l 81 121 m 181 -247 l 182 -247 l 182 -246 l 181 -247 m 238 643 l 238 644 l 236 643 l 238 643 m 142 401 l 142 400 l 143 401 l 142 401 m 224 663 q 222 661 222 661 q 224 664 224 663 l 224 663 m 224 667 q 225 669 225 669 q 224 668 225 668 q 224 667 224 668 z "},"g":{"ha":422,"x_min":-135,"x_max":403,"o":"m 283 118 q 251 88 267 104 q 218 56 235 71 q 182 30 201 40 q 139 19 163 19 q 91 30 114 19 q 51 58 68 40 q 23 98 33 75 q 13 146 13 121 q 31 242 13 192 q 81 336 49 293 q 157 407 114 379 q 250 435 200 435 q 333 413 294 435 q 397 354 372 390 q 403 342 403 346 q 401 333 403 338 q 399 325 400 329 q 382 335 392 329 q 362 348 372 342 q 341 359 351 354 q 324 364 331 364 q 238 336 278 364 q 168 267 197 308 q 122 176 139 225 q 106 86 106 128 q 106 81 106 83 q 107 75 107 78 l 114 75 q 129 78 122 75 q 143 86 136 82 q 240 185 201 122 q 265 226 253 204 q 296 264 278 249 l 350 232 q 369 199 369 221 q 360 34 369 115 q 328 -126 351 -47 q 251 -323 296 -229 q 132 -496 207 -417 q 99 -526 117 -511 q 60 -554 81 -542 q 17 -575 39 -567 q -28 -583 -6 -583 q -64 -577 -44 -583 q -99 -560 -83 -571 q -124 -533 -114 -549 q -135 -499 -135 -518 q -112 -399 -135 -456 q -57 -285 -90 -343 q 14 -178 -24 -228 q 81 -97 51 -128 q 143 -40 111 -65 q 215 6 175 -14 l 221 -6 q 239 -14 231 -8 q 250 -29 247 -19 q 274 42 267 -3 q 283 118 281 86 m 250 -61 q 195 -110 226 -78 q 131 -182 164 -142 q 65 -268 97 -222 q 8 -358 33 -314 q -33 -443 -17 -403 q -49 -512 -49 -483 l -44 -512 l -35 -508 q 64 -426 19 -478 q 144 -312 108 -374 q 206 -184 179 -250 q 250 -61 232 -118 m 297 -128 q 292 -139 294 -131 q 183 -375 250 -264 q 163 -406 174 -390 q 146 -439 153 -422 q 222 -326 189 -390 q 276 -199 256 -261 q 287 -163 283 -181 q 297 -128 290 -146 m 40 -247 q -2 -322 19 -285 q -43 -399 -24 -360 q -58 -438 -53 -418 q -71 -478 -64 -458 q -53 -444 -58 -462 q -40 -407 -47 -425 q -10 -344 -26 -375 q 25 -283 7 -314 q 38 -262 32 -272 q 49 -240 43 -251 l 40 -247 m 99 208 q 110 228 106 219 q 121 249 115 238 q 148 291 132 271 q 181 328 164 311 q 171 324 175 328 q 125 272 144 301 q 99 208 106 242 m 199 -256 q 172 -304 185 -279 q 146 -354 158 -329 q 175 -306 163 -333 q 199 -256 188 -279 m -90 -404 q -82 -386 -82 -393 l -35 -292 q -46 -310 -37 -294 q -64 -344 -54 -325 q -81 -381 -74 -364 q -90 -404 -89 -399 m 76 286 q 84 293 79 288 q 94 306 89 299 q 103 319 99 313 q 108 329 107 326 q 92 308 100 319 q 76 286 83 297 m 228 85 l 244 108 q 233 99 239 104 q 228 88 228 94 l 228 85 m 290 226 l 288 228 l 271 199 q 282 214 275 206 q 290 226 289 222 m 264 188 l 221 132 q 242 159 232 146 q 264 188 253 172 m 260 126 q 275 146 269 132 q 260 126 265 136 m 306 -106 l 301 -106 l 299 -124 q 306 -106 304 -112 m 306 -94 l 310 -94 l 310 -87 l 306 -94 m 203 -249 q 204 -243 203 -244 q 199 -254 201 -246 l 203 -249 m 310 -86 q 311 -83 311 -85 q 313 -79 311 -81 l 310 -78 l 310 -86 m -74 -487 l -71 -487 l -71 -481 l -74 -487 m 92 192 l 94 190 q 96 196 94 194 l 92 192 m 222 85 l 222 83 q 228 85 226 83 l 222 85 m 242 -158 l 244 -150 q 242 -158 242 -156 m 139 357 l 138 357 l 135 353 l 139 357 m 138 321 l 136 322 l 136 318 l 138 321 m 151 -389 l 153 -389 l 153 -386 q 151 -389 151 -386 m 168 -364 q 174 -361 171 -364 l 168 -364 m 269 150 l 268 150 q 267 149 268 149 q 267 147 267 149 l 269 150 m 264 117 l 267 119 l 263 117 l 264 117 m 283 169 l 282 168 q 285 169 283 168 l 283 169 m -42 -354 l -39 -351 q -42 -354 -42 -351 m 60 -151 l 58 -153 q 60 -151 60 -153 m 104 -164 q 106 -162 106 -164 l 104 -164 m 250 -131 l 251 -129 l 250 -129 l 250 -131 m 263 -94 l 261 -94 l 261 -96 l 263 -94 m 253 -285 l 254 -285 l 254 -283 l 253 -285 z "},"h":{"ha":428,"x_min":-11,"x_max":424,"o":"m 424 396 q 415 322 424 360 q 399 249 406 285 q 365 76 383 163 q 347 -99 347 -11 q 349 -126 347 -112 q 354 -153 350 -139 q 355 -155 354 -154 q 356 -157 356 -156 q 355 -161 356 -160 q 354 -165 354 -162 q 338 -167 349 -167 q 283 -146 308 -167 q 256 -96 258 -125 q 254 -70 254 -83 q 254 -44 254 -57 q 255 3 254 -21 q 258 51 256 28 q 283 232 269 146 q 324 410 296 318 l 321 413 l 278 376 q 239 333 258 360 q 207 283 219 306 q 141 147 168 217 q 99 3 114 78 q 93 -21 96 -11 q 36 -4 57 -17 q 5 29 15 8 q -8 76 -6 50 q -11 133 -11 103 q 10 351 -11 243 q 54 565 31 458 q 74 651 64 608 q 97 736 83 694 q 126 815 110 776 q 157 893 142 854 q 165 913 161 903 q 176 932 169 924 q 188 926 183 928 q 199 924 192 924 q 221 915 208 924 q 240 899 233 906 q 249 888 247 892 q 253 874 251 883 l 253 863 q 247 815 253 843 q 233 758 242 788 q 216 699 225 728 q 201 650 207 671 q 172 538 186 593 q 144 426 158 483 q 137 397 142 415 q 126 358 132 378 q 117 319 121 338 q 114 292 114 301 q 115 289 114 290 q 115 286 115 288 q 154 342 136 317 q 193 388 172 367 q 238 429 214 410 q 293 469 261 449 q 308 478 301 475 q 325 481 315 481 q 363 470 344 481 q 397 449 382 460 q 418 426 413 438 q 424 396 424 415 m 147 261 q 149 264 147 263 l 147 264 l 147 261 m 101 218 l 104 218 l 117 244 l 101 218 m 150 526 l 149 525 l 150 525 l 150 526 m 164 581 q 165 583 164 582 l 164 583 l 164 581 m 181 638 l 179 638 l 179 636 l 181 638 m 186 660 l 185 660 l 185 658 l 186 660 m 189 669 q 188 668 188 669 l 189 668 l 189 669 m 218 843 l 219 843 q 218 849 219 847 l 222 854 l 221 856 q 218 849 221 854 l 218 843 m 214 833 q 208 806 211 822 q 214 819 211 813 q 217 832 217 825 l 214 833 m 154 729 l 156 729 l 156 731 l 154 729 m 151 717 l 153 717 l 153 719 l 151 719 l 151 717 m 149 704 l 150 708 l 149 708 l 149 704 m 133 757 l 135 757 l 135 758 l 133 757 m 126 736 q 129 738 128 736 l 129 739 l 126 736 m 142 682 q 124 617 132 650 q 108 553 115 585 q 116 574 111 556 q 126 614 121 592 q 136 656 132 636 q 142 682 140 675 l 144 690 l 146 696 q 144 690 144 694 q 142 682 142 685 m 99 517 q 97 510 97 514 l 100 508 q 99 517 99 511 m 76 543 l 79 542 q 80 553 79 547 q 81 564 81 558 l 83 565 q 91 594 88 581 q 97 622 94 607 q 87 594 90 608 q 81 564 83 579 l 76 543 m 94 499 q 96 496 94 497 l 96 499 l 94 499 m 92 488 q 91 483 92 485 q 90 479 90 482 l 88 469 l 90 469 l 94 486 l 92 488 m 82 449 l 82 443 l 83 443 l 83 449 l 82 449 m 72 524 q 75 529 75 526 l 72 531 l 72 524 m 72 522 q 71 517 71 521 l 72 517 l 72 522 m 63 483 q 61 476 61 481 l 64 476 q 63 483 63 478 m 54 436 l 53 436 l 53 433 l 54 433 l 54 436 m 57 447 q 58 451 57 450 q 58 456 58 453 l 54 449 l 57 447 m 58 457 q 60 464 60 460 l 58 464 l 58 457 m 64 174 q 63 177 64 176 q 63 181 63 178 q 61 174 61 178 l 64 174 m 67 211 q 64 194 64 200 l 67 194 l 67 211 m 97 396 q 79 304 88 350 q 67 213 71 258 q 76 249 72 229 q 84 292 81 269 q 91 335 88 314 q 99 374 94 356 q 151 589 122 482 q 208 804 181 696 l 206 803 q 176 710 190 756 q 149 617 161 664 q 121 506 133 561 q 97 396 108 451 m 94 149 l 96 149 l 96 150 l 94 149 m 126 140 l 125 142 l 125 140 l 126 140 m 138 174 l 136 174 l 138 172 l 138 174 m 182 288 q 156 249 169 275 q 128 192 142 222 q 106 133 115 163 q 92 88 96 104 q 91 81 90 85 q 90 74 92 76 q 97 86 94 78 q 120 153 108 119 q 147 218 132 186 l 182 285 l 182 288 m 185 290 q 188 294 186 293 q 189 299 189 296 q 186 294 188 296 q 185 290 185 293 m 333 71 l 332 71 l 332 65 l 333 67 l 333 71 m 339 113 l 338 113 q 338 111 338 111 q 339 110 339 111 l 339 113 m 346 157 l 343 147 l 346 147 l 346 157 m 367 250 q 379 308 374 279 q 389 365 385 336 q 366 272 375 318 q 349 176 357 225 q 359 213 356 193 q 367 250 363 233 m 392 376 l 389 376 l 389 369 l 392 376 z "},"i":{"ha":253,"x_min":-7,"x_max":361,"o":"m 335 288 l 346 299 l 344 290 l 349 299 l 346 299 l 349 303 l 349 299 l 351 304 l 353 304 l 358 314 l 361 313 q 313 219 342 264 q 257 131 285 175 q 226 80 242 106 q 194 31 211 54 q 144 -40 174 0 q 90 -106 114 -79 q 77 -114 83 -112 q 63 -115 71 -115 q 13 -99 32 -115 q -7 -51 -7 -83 q 4 63 -7 6 q 31 174 15 121 q 51 257 42 215 q 64 342 61 299 l 64 347 q 62 358 64 353 q 60 368 60 363 q 65 374 60 372 q 72 378 69 376 q 151 346 118 371 q 183 271 183 321 q 172 194 183 231 q 150 121 161 158 l 119 18 q 119 17 119 17 q 118 15 118 17 l 118 14 q 119 11 119 11 q 174 87 149 47 q 226 165 200 126 q 260 210 242 189 q 294 253 278 231 q 312 278 304 264 q 331 303 319 292 l 324 290 l 333 301 q 298 247 317 274 q 265 189 279 219 q 279 206 272 197 q 292 224 286 214 q 312 261 303 242 q 336 296 321 281 l 335 288 m 156 585 l 163 583 l 163 574 q 172 581 167 575 l 186 574 l 183 564 l 200 561 l 200 547 l 207 549 q 221 525 221 539 q 213 477 221 500 q 206 429 206 454 q 208 401 206 415 q 211 374 211 388 q 199 369 204 369 q 185 374 192 369 q 172 376 179 378 q 149 398 160 383 q 128 430 138 413 q 115 465 119 447 q 110 497 110 482 q 113 521 110 506 q 121 551 115 536 q 134 578 126 567 q 151 590 142 590 l 156 585 m 113 -15 q 119 -9 115 -12 q 126 -3 124 -6 q 210 120 168 60 q 294 243 251 181 q 261 207 278 225 q 233 169 244 189 q 197 112 215 140 q 160 54 178 83 q 135 20 149 36 q 113 -15 122 4 m 60 -57 l 63 -57 q 95 64 78 4 q 129 185 113 124 q 111 138 117 163 q 99 90 106 114 q 76 17 88 54 q 60 -57 65 -19 m 271 165 l 275 169 q 271 171 272 169 q 276 181 274 176 q 281 192 278 186 l 264 168 l 271 171 l 271 165 m 300 214 l 297 214 l 301 221 l 301 226 q 289 206 293 215 l 294 208 l 297 214 q 299 208 299 213 q 300 214 300 210 m 313 238 q 314 245 313 242 q 315 253 315 249 l 303 229 l 308 232 l 308 228 l 311 232 l 308 232 l 313 238 m 194 67 q 182 54 182 64 l 182 51 l 194 67 m 235 121 l 240 125 q 246 135 243 131 q 251 147 249 140 q 244 134 249 140 q 235 121 239 128 m 336 296 q 340 306 339 301 q 343 315 342 310 l 346 314 q 336 296 344 307 m 178 43 q 170 38 172 42 q 165 29 168 33 l 178 43 m 335 288 q 329 276 335 282 l 335 278 l 336 283 l 335 288 m 133 200 l 131 200 l 131 192 q 132 195 132 193 q 133 200 132 197 m 313 238 l 313 233 l 315 238 q 317 243 315 242 l 315 243 q 315 238 315 238 l 313 238 m 294 204 l 299 208 l 296 208 q 294 204 294 207 m 339 279 l 336 278 l 335 274 l 339 279 m 351 310 l 351 306 l 350 306 l 351 310 m 350 304 l 350 306 l 349 306 l 349 303 l 350 304 m 303 219 l 301 219 l 301 217 q 303 219 303 218 m 353 306 l 351 306 l 351 304 l 353 306 z "},"j":{"ha":214,"x_min":-187,"x_max":250,"o":"m 81 118 q 99 223 92 171 q 118 328 107 275 q 125 349 121 339 q 140 363 129 358 l 156 350 l 165 354 q 196 324 178 339 q 214 288 214 310 q 210 253 214 269 q 204 219 207 236 l 189 96 q 165 -39 182 36 q 126 -190 149 -114 q 74 -337 103 -267 q 14 -458 46 -408 q -13 -497 3 -475 q -47 -531 -29 -519 q -93 -542 -65 -542 q -140 -527 -118 -542 q -175 -492 -161 -512 q -186 -461 -185 -478 q -187 -429 -187 -444 q -143 -169 -187 -296 q -14 60 -99 -42 q 24 99 6 83 q 74 124 43 115 l 68 113 l 81 118 m -115 -449 l -108 -450 q -40 -328 -67 -390 q 8 -196 -12 -267 q 29 -125 19 -160 q 49 -54 39 -90 q 54 -33 51 -43 q 60 -11 57 -22 q 63 16 63 3 q 68 43 64 29 l 64 43 q -67 -187 -25 -64 q -115 -449 -110 -310 m 185 597 l 239 567 q 250 549 250 561 q 241 504 250 533 q 232 447 232 475 q 233 436 232 442 q 233 425 233 431 q 231 411 233 418 q 226 397 229 404 q 184 412 203 403 q 154 444 165 421 q 147 461 150 453 q 143 479 143 469 q 147 500 143 486 q 154 529 150 514 q 163 558 158 544 q 169 579 167 572 q 176 589 172 585 q 185 597 181 593 m 22 -374 l 18 -376 q -5 -421 7 -399 q -32 -462 -17 -443 q -44 -477 -37 -469 q -56 -492 -50 -485 l -56 -499 q -9 -441 -26 -474 q 22 -374 8 -408 m -74 -444 q -78 -452 -76 -447 q -83 -460 -81 -457 q -68 -441 -75 -450 q -54 -422 -61 -432 q -67 -431 -62 -425 q -74 -444 -71 -437 m 14 18 q -6 -14 3 3 q -25 -46 -15 -31 q 0 -3 -10 -24 q 7 7 3 3 q 14 18 11 11 m 36 -344 q 26 -358 28 -350 q 22 -374 24 -365 q 28 -359 25 -367 q 36 -344 32 -351 m -42 -440 l -43 -444 q -51 -453 -47 -449 q -57 -464 -54 -458 q -47 -453 -53 -460 q -42 -440 -42 -446 m -31 -432 l -32 -429 q -37 -433 -35 -431 q -42 -437 -39 -435 l -31 -432 m -24 -414 l -25 -415 l -25 -417 q -24 -415 -24 -417 l -24 -414 m -57 -107 l -58 -107 q -58 -110 -58 -107 q -57 -107 -57 -108 m 38 -337 l 36 -337 l 38 -339 l 38 -337 m 75 125 l 75 126 l 74 124 l 75 125 m 44 -325 l 43 -325 l 43 -326 l 44 -325 m -47 -401 l -46 -403 l -46 -401 l -47 -401 z "},"k":{"ha":424,"x_min":0,"x_max":604,"o":"m 221 90 q 262 21 235 60 q 324 -53 289 -18 q 397 -112 358 -87 q 471 -136 435 -136 q 506 -133 489 -136 q 542 -129 524 -129 q 573 -132 557 -129 q 604 -137 589 -135 q 578 -163 594 -153 q 541 -181 561 -174 q 501 -190 521 -187 q 464 -193 481 -193 q 364 -177 414 -193 q 269 -134 314 -161 q 187 -71 225 -107 q 122 7 149 -35 q 117 13 119 11 q 110 17 115 15 l 110 -10 q 113 -55 110 -33 q 115 -100 115 -76 q 115 -115 115 -107 q 114 -129 114 -122 q 95 -128 104 -128 q 76 -126 86 -129 q 56 -118 65 -125 q 10 -60 19 -94 q 0 14 0 -26 q 17 179 0 97 q 54 342 35 261 q 138 671 93 506 q 152 722 143 692 q 170 785 161 753 q 185 849 179 818 q 192 899 192 879 q 190 927 192 914 q 188 956 188 940 q 195 956 192 956 q 203 957 199 957 q 211 954 206 957 q 218 950 217 951 q 260 901 246 935 q 274 836 274 868 q 258 714 274 774 q 228 593 243 654 q 185 418 207 506 q 147 242 163 331 q 238 355 190 308 q 357 440 286 401 q 378 447 368 447 q 398 442 388 447 q 418 428 408 436 q 434 409 428 419 q 440 389 440 399 q 418 329 440 360 q 378 278 396 299 q 299 184 338 231 q 221 90 260 138 m 154 124 l 163 132 l 274 263 q 332 333 303 297 q 388 406 361 368 l 383 408 q 242 290 299 361 q 147 132 186 219 l 154 124 m 207 108 q 239 140 224 124 l 397 332 q 405 346 401 338 q 411 361 408 354 q 399 342 406 351 q 386 325 393 333 l 213 117 l 207 108 m 139 204 l 142 206 q 164 244 153 225 q 189 281 175 263 q 200 294 194 288 q 210 308 206 301 q 219 318 215 313 q 272 368 243 346 q 328 414 300 390 q 244 349 279 390 q 176 267 208 308 q 156 237 165 251 q 139 204 146 222 m 129 135 q 156 173 146 151 q 176 215 165 194 q 200 253 188 236 q 226 290 213 271 l 228 293 q 199 260 213 281 q 172 217 185 239 q 149 172 160 194 q 129 135 138 150 m 354 332 q 363 344 357 339 q 372 357 369 350 q 329 303 349 333 q 342 317 336 310 q 354 332 347 325 m 192 267 l 189 261 q 188 257 189 258 l 188 251 q 190 258 190 254 q 194 261 193 260 q 197 265 194 263 l 196 267 l 192 267 m 286 251 q 272 235 276 243 q 280 242 276 238 q 286 251 283 247 m 203 275 l 199 275 l 199 267 q 201 272 201 269 q 207 274 203 274 q 203 275 206 275 m 224 303 l 221 303 l 221 292 l 224 300 q 228 301 226 300 q 224 303 225 301 m 217 293 l 215 294 l 214 293 l 214 283 l 217 290 q 221 292 218 292 q 217 293 219 293 m 210 285 l 207 285 l 207 275 q 208 282 208 278 q 214 283 213 282 q 210 285 211 283 m 165 215 q 160 211 160 215 l 160 210 q 161 207 161 207 l 165 215 m 235 314 q 231 315 233 315 l 231 308 l 233 313 q 239 314 238 313 l 235 314 m 174 233 l 174 226 q 176 232 176 229 l 174 233 m 167 222 q 165 215 165 219 q 168 221 168 218 l 167 222 m 169 228 l 169 222 l 174 226 q 169 228 171 226 m 294 260 l 294 261 l 293 261 l 289 254 l 294 260 m 181 239 q 183 244 183 242 l 182 244 q 181 239 181 243 m 301 367 l 300 368 l 294 364 l 301 367 m 185 251 l 185 247 l 188 251 l 185 251 m 158 206 l 158 201 l 161 206 l 158 206 m 308 279 l 301 269 q 308 279 307 275 m 157 200 l 154 200 l 154 196 l 157 200 m 146 185 l 147 182 l 150 185 l 146 185 m 178 239 l 178 235 l 181 239 l 178 239 m 382 369 q 375 360 376 364 l 382 369 m 319 290 l 318 290 l 313 283 l 319 290 m 421 376 l 419 376 l 419 372 q 421 376 421 374 m 128 128 l 129 128 l 129 129 l 128 128 m 140 138 l 142 136 l 142 138 l 140 138 m 158 171 l 157 171 l 158 169 l 158 171 m 261 221 q 260 219 260 221 l 261 221 m 203 125 l 201 126 l 201 125 l 203 125 z "},"l":{"ha":204,"x_min":0,"x_max":343,"o":"m 249 978 q 258 986 251 986 q 289 976 274 986 q 316 949 304 965 q 335 915 328 933 q 343 883 343 897 q 333 819 343 863 q 308 728 322 776 q 281 637 294 681 q 260 568 267 593 q 242 512 251 540 q 224 456 232 483 l 149 188 q 117 51 129 121 q 104 -87 104 -18 q 108 -126 104 -107 q 117 -165 111 -146 q 124 -191 119 -178 q 129 -217 128 -204 q 123 -217 126 -217 q 117 -218 119 -218 q 66 -201 89 -218 q 28 -162 43 -185 q 4 -104 8 -136 q 0 -40 0 -72 q 15 113 0 24 q 53 295 31 201 q 100 477 75 389 q 146 629 125 565 q 170 697 151 649 q 208 799 189 746 q 243 895 228 851 q 258 950 258 939 q 249 978 258 963 m 76 -1 q 81 13 79 6 q 83 28 82 21 q 94 92 89 60 q 108 156 100 124 q 133 256 121 206 q 158 356 144 306 q 201 495 178 426 q 240 635 224 564 q 228 603 236 628 q 209 546 219 579 q 188 474 199 513 q 166 399 176 435 q 148 335 156 364 q 136 293 140 306 q 99 147 115 221 q 76 -1 83 74 m 251 665 q 244 650 244 660 l 251 665 m 256 678 l 253 679 q 251 665 251 675 l 256 678 m 263 701 l 261 703 l 261 701 l 263 701 z "},"m":{"ha":821,"x_min":0,"x_max":850,"o":"m 76 18 q 24 36 49 18 q 0 85 0 54 q 4 130 0 108 q 13 174 8 151 q 38 294 24 233 q 51 415 51 354 q 51 428 51 422 q 44 440 50 435 q 40 447 42 443 q 33 451 38 450 l 35 456 q 24 463 31 458 q 17 472 17 467 q 30 485 17 481 q 50 489 43 489 q 76 485 61 489 q 100 474 90 481 q 150 424 136 450 q 164 356 164 399 q 158 309 164 342 q 144 243 151 276 q 131 184 138 210 q 125 158 125 158 l 126 153 q 247 323 185 239 q 392 474 310 407 q 412 488 401 482 q 436 493 422 493 q 467 485 447 493 q 493 468 486 478 q 500 452 499 461 q 501 435 501 443 q 499 410 501 422 q 493 386 496 397 q 484 352 489 371 q 474 314 479 333 q 463 276 468 294 q 453 244 458 257 l 454 239 q 465 251 460 246 q 478 263 471 256 q 567 352 522 307 q 664 436 613 397 l 746 497 q 771 506 756 506 q 810 493 785 506 q 843 469 835 481 q 850 449 850 461 q 835 391 850 436 q 800 293 819 346 q 763 191 781 240 q 738 119 744 142 q 719 56 728 88 q 701 -8 711 24 q 700 -18 700 -12 q 707 -31 700 -29 q 714 -43 714 -33 q 700 -59 714 -57 q 676 -61 686 -61 q 652 -56 665 -61 q 627 -44 639 -51 q 607 -25 615 -36 q 597 -1 599 -14 q 596 19 596 6 q 601 82 596 49 q 614 150 606 115 q 632 217 622 185 q 651 278 642 250 q 676 339 663 310 q 703 399 689 368 q 626 336 663 374 q 554 257 589 299 q 487 173 519 215 q 422 96 454 131 q 406 83 413 85 q 392 81 399 81 q 380 81 386 81 q 364 79 374 82 l 324 104 q 312 120 314 111 q 310 140 310 129 q 314 186 310 161 q 324 237 318 211 q 338 287 331 263 q 353 331 346 311 q 363 353 357 342 q 371 376 368 365 q 372 383 372 379 q 375 390 372 388 l 374 390 q 349 363 363 375 q 324 338 335 351 q 269 263 294 301 q 218 187 243 225 q 167 110 193 149 q 111 36 140 71 q 76 18 96 18 m 668 4 l 671 3 q 684 51 679 26 q 696 99 689 75 q 724 192 708 146 q 758 285 740 239 l 814 431 q 817 441 817 436 q 818 451 817 446 l 815 451 q 760 320 788 385 q 713 186 733 256 q 685 96 699 142 q 668 4 672 50 m 388 172 l 393 171 q 403 190 397 176 q 434 294 418 243 q 465 397 450 344 q 470 418 468 408 q 475 438 472 428 l 471 439 l 388 172 m 790 446 l 788 447 q 734 324 763 385 q 689 199 706 264 q 681 165 685 183 q 671 132 678 147 q 681 157 678 143 q 689 182 685 171 q 716 259 703 221 q 744 336 729 297 q 768 391 756 364 q 790 446 781 418 m 753 428 l 750 429 q 696 312 721 371 q 656 190 671 253 q 667 214 663 201 q 675 239 671 226 q 696 295 686 267 q 718 351 706 324 q 736 390 726 371 q 753 428 746 408 m 65 90 l 71 90 q 125 336 100 213 l 121 338 q 94 214 107 275 q 65 90 81 153 m 386 331 q 406 377 394 353 q 419 425 417 401 q 399 377 408 401 q 382 326 389 353 l 386 331 m 408 322 q 424 357 419 339 q 435 393 428 375 q 419 358 426 378 q 408 322 413 339 m 644 146 q 656 189 656 163 l 644 146 m 644 146 l 640 128 l 643 128 q 644 137 643 132 q 644 146 644 142 m 379 213 l 376 214 l 372 201 l 379 213 m 393 274 l 396 274 l 396 288 l 393 274 m 403 297 l 401 299 q 399 294 400 296 q 396 289 397 292 q 403 297 401 294 m 371 192 l 372 192 l 372 199 q 371 192 371 196 m 349 214 l 346 208 l 347 208 l 350 214 l 349 214 m 658 83 l 663 89 l 660 89 l 658 83 m 775 274 l 772 276 q 771 274 771 275 l 775 274 m 763 246 l 760 247 l 760 243 l 763 246 m 443 414 l 440 414 l 442 410 l 443 414 m 383 238 l 382 238 l 382 233 l 383 233 l 383 238 m 639 118 l 638 118 l 638 114 l 639 114 l 639 118 m 713 101 l 711 101 q 713 97 711 99 l 714 97 q 713 101 713 99 m 740 185 l 739 185 l 739 182 l 740 182 l 740 185 m 768 265 q 767 261 767 264 l 768 261 l 768 265 m 385 247 l 386 247 l 386 251 q 385 247 385 250 m 358 254 q 357 253 357 254 q 358 251 357 251 l 358 254 m 663 99 l 664 97 l 664 101 q 663 99 663 100 m 253 311 q 250 306 250 308 l 253 311 m 239 246 l 242 251 q 239 246 239 249 m 732 160 l 731 161 q 729 157 731 158 l 732 160 m 360 263 l 361 263 l 363 267 l 360 263 m 390 263 l 389 263 q 390 260 389 261 l 390 263 m 735 174 q 736 174 736 174 q 738 175 736 175 l 738 176 q 735 174 735 174 m 786 307 l 785 307 q 783 303 785 304 l 786 307 m 810 374 q 811 372 810 372 l 811 374 l 810 374 m 742 190 l 743 190 l 743 192 q 742 190 742 192 m 740 292 q 739 290 739 292 q 740 292 740 290 m 735 278 l 733 278 l 733 276 q 735 278 735 276 m 364 278 q 365 278 365 278 q 367 279 365 279 l 367 281 q 364 278 364 278 m 819 394 l 818 394 l 818 392 q 819 394 818 393 m 790 326 l 792 325 l 792 326 l 790 326 m 367 175 l 365 174 l 367 174 l 367 175 m 718 118 l 717 118 l 718 117 l 718 118 m 636 97 l 635 99 q 636 97 635 97 m 353 229 l 353 231 l 351 231 l 353 229 m 794 333 l 793 332 l 794 332 l 794 333 m 796 339 l 797 339 l 797 340 l 796 339 m 717 232 l 718 231 l 718 232 l 717 232 m 789 319 l 788 318 l 789 318 l 789 319 m 379 226 l 379 225 l 381 226 l 379 226 m 731 271 l 731 269 l 732 271 l 731 271 m 801 349 l 800 347 l 801 347 l 801 349 m 453 307 l 454 308 l 453 308 l 453 307 m 657 79 l 658 79 l 658 81 l 657 79 m 714 225 l 715 224 l 715 225 l 714 225 m 729 150 q 728 149 729 149 q 728 147 728 149 q 729 150 729 149 z "},"n":{"ha":529,"x_min":0,"x_max":554,"o":"m 82 -39 q 26 -15 51 -39 q 0 40 0 8 q 8 110 0 68 q 27 198 15 153 q 51 285 39 243 q 71 357 63 328 q 87 413 79 383 q 94 471 94 443 q 93 481 94 476 q 90 492 92 486 q 104 499 93 499 q 114 495 107 499 q 124 490 121 492 q 165 453 149 478 q 181 399 181 428 q 172 324 181 368 q 150 233 163 279 q 123 142 138 186 q 99 67 108 97 l 101 65 q 217 226 160 146 q 339 381 274 306 q 389 439 364 410 q 440 496 414 468 q 457 512 449 504 q 476 522 465 519 q 499 515 486 521 q 525 501 513 510 q 546 481 538 492 q 554 458 554 471 q 551 439 554 451 q 542 412 547 426 q 533 384 538 397 q 525 364 528 371 q 488 263 511 328 q 442 126 464 197 q 403 -9 419 56 q 388 -108 388 -74 q 404 -142 388 -132 q 390 -156 404 -156 q 342 -144 361 -156 q 313 -115 324 -133 q 299 -72 303 -96 q 296 -24 296 -49 q 303 47 296 10 q 320 123 310 85 q 343 199 331 161 q 365 268 356 236 q 388 329 375 300 q 411 389 400 358 q 405 385 408 386 q 399 381 401 383 q 314 278 353 333 q 240 168 275 224 q 212 122 229 150 q 175 63 194 93 q 137 8 156 33 q 104 -31 118 -18 q 82 -39 94 -39 m 528 456 l 524 457 q 481 359 501 413 q 441 249 460 306 q 406 137 422 193 q 378 33 390 81 q 383 42 381 36 q 414 138 401 89 q 443 233 426 186 q 485 344 463 290 q 528 456 508 399 m 300 274 l 306 282 l 308 282 l 315 289 q 324 301 317 292 q 333 313 331 310 q 340 324 335 315 q 353 340 346 332 q 368 356 361 349 q 378 365 375 364 l 375 367 l 375 372 q 353 347 364 360 q 329 325 343 335 q 344 346 332 331 q 372 378 357 361 q 400 412 386 396 q 419 435 414 428 q 321 326 367 382 q 233 208 275 269 l 233 204 l 235 199 q 253 224 244 214 q 272 249 261 235 q 267 235 269 240 l 276 240 l 279 240 q 287 251 283 246 q 293 263 290 256 l 297 265 q 303 272 300 271 l 300 274 m 183 156 q 190 165 186 163 q 197 174 193 168 q 212 194 206 183 q 225 215 218 204 q 329 347 272 286 q 439 475 386 408 l 443 481 l 440 483 q 337 368 388 426 q 242 246 286 310 q 208 199 225 222 q 178 149 190 175 l 183 156 m 428 363 l 432 365 q 452 407 442 386 q 474 449 463 428 l 474 456 q 449 410 460 433 q 428 363 439 386 m 390 382 q 397 390 394 386 q 406 397 400 394 q 413 406 408 403 q 417 415 417 408 l 432 436 l 378 376 q 383 381 381 379 q 390 382 386 382 m 378 31 l 368 -4 l 372 -6 q 376 13 375 4 q 378 31 376 21 m 490 431 q 478 408 483 419 q 469 385 474 397 q 481 408 475 396 q 490 431 486 419 m 183 110 q 196 126 190 118 q 207 144 201 135 q 183 110 190 125 m 225 175 q 215 161 221 168 q 207 146 210 154 q 225 175 219 161 m 171 139 q 159 124 164 132 q 150 110 154 117 q 161 124 157 117 q 171 139 165 132 m 257 221 l 246 204 q 254 210 249 207 l 254 211 q 257 221 257 214 m 204 160 l 200 160 q 197 154 200 157 l 204 154 l 206 158 l 204 160 m 160 74 l 165 81 q 168 85 167 83 q 171 90 169 88 q 165 83 168 88 q 160 74 161 78 m 225 189 l 222 190 l 222 186 q 224 181 222 182 q 229 188 224 188 q 225 189 228 189 m 428 363 l 424 353 l 428 351 l 428 363 m 213 171 l 210 172 l 210 168 q 211 164 210 165 q 213 169 213 165 l 218 169 q 213 171 217 171 m 218 181 l 215 181 l 215 178 q 217 174 215 175 l 217 171 q 218 169 217 169 l 218 178 q 222 179 221 178 l 219 179 q 218 181 218 179 m 229 199 l 228 199 l 228 196 q 229 188 229 193 q 231 196 231 190 l 233 197 l 231 197 q 229 199 229 197 m 235 186 l 236 192 l 232 183 l 235 186 m 367 -18 l 368 -18 l 368 -14 l 367 -14 l 367 -18 m 500 453 l 499 454 l 499 449 l 500 453 m 125 25 l 128 31 q 125 25 125 28 m 257 211 l 256 210 l 256 207 q 257 211 257 208 m 210 136 l 210 133 l 211 135 l 210 136 m 422 344 q 422 343 422 343 q 421 342 421 343 l 422 342 l 422 344 m 413 318 l 414 319 l 413 319 l 413 318 m 181 117 l 181 118 l 179 117 l 181 117 m 168 100 l 167 99 q 168 100 168 99 z "},"p":{"ha":451,"x_min":-19,"x_max":493,"o":"m 144 71 q 137 65 138 71 q 135 54 136 60 l 126 6 q 100 -156 113 -74 q 88 -318 88 -237 q 90 -335 88 -328 q 93 -353 93 -343 q 77 -364 93 -360 q 56 -368 61 -368 q 36 -363 50 -368 q 15 -356 22 -358 q -15 -325 -10 -344 q -19 -282 -19 -306 q -10 -156 -19 -219 q 8 -31 0 -93 l 49 263 q 61 340 54 301 q 68 417 68 378 q 59 445 68 438 q 50 464 50 453 q 56 474 50 472 q 69 476 63 476 q 96 469 82 476 q 122 452 110 463 q 145 430 135 442 q 160 407 156 418 q 167 373 167 390 q 174 339 167 356 q 179 347 176 342 q 209 394 193 371 q 243 438 225 417 q 273 465 254 450 q 313 494 292 481 q 356 518 335 508 q 394 528 378 528 q 429 520 411 528 q 461 500 447 513 q 484 471 475 488 q 493 436 493 454 q 490 413 493 426 q 451 316 479 367 q 383 219 422 265 q 299 135 344 172 q 210 82 253 99 q 183 74 201 79 q 156 68 164 68 q 150 69 153 68 q 144 71 147 71 m 157 122 l 158 121 q 235 170 197 140 q 307 236 274 200 q 368 312 340 272 q 414 392 396 351 q 428 430 421 408 q 436 471 436 451 q 426 493 436 485 q 365 467 393 486 q 313 425 336 449 q 231 308 260 374 q 176 176 203 243 q 166 149 171 163 q 157 122 161 136 m 110 119 l 107 119 q 101 94 104 114 q 95 52 99 75 q 89 8 92 29 q 85 -24 86 -14 q 76 -81 81 -47 q 65 -149 71 -114 q 56 -219 60 -185 q 53 -279 53 -254 q 53 -294 53 -286 q 54 -310 54 -303 l 57 -310 q 59 -271 57 -290 q 64 -232 61 -251 q 73 -156 69 -194 q 82 -81 76 -118 l 100 47 q 106 77 103 63 q 110 107 108 92 l 110 119 m 154 172 q 167 200 161 186 q 178 229 172 214 q 211 304 193 269 q 250 376 229 339 q 246 373 247 374 q 243 369 244 372 q 190 275 214 325 q 154 172 167 225 m 467 399 l 463 393 q 449 365 456 379 q 436 338 443 351 q 408 290 422 313 q 378 243 393 267 q 422 302 401 271 q 456 367 443 333 l 467 399 m 175 307 q 185 323 178 310 q 193 340 192 336 l 175 307 m 392 317 q 384 307 389 315 q 378 296 379 299 q 385 306 382 301 q 392 317 389 310 m 125 238 q 129 236 128 238 l 129 247 l 125 238 m 133 261 q 129 256 129 258 l 129 249 l 133 261 m 392 318 q 403 336 399 325 l 392 318 m 29 -76 l 25 -83 l 28 -85 q 28 -81 28 -82 q 29 -76 29 -79 m 25 -104 l 24 -104 l 24 -112 l 25 -112 l 25 -104 m 422 372 q 414 358 418 365 q 407 343 410 350 l 422 372 m 39 0 l 40 0 l 40 6 l 39 6 l 39 0 m 47 -126 l 49 -126 l 49 -121 l 47 -121 l 47 -126 m 36 -206 l 38 -206 l 38 -200 l 36 -200 l 36 -206 m 407 343 q 404 338 404 340 q 407 343 407 340 m 67 4 l 65 4 l 65 0 l 67 0 l 67 4 m 133 261 l 132 267 l 131 267 l 133 261 m 54 -81 l 51 -81 q 53 -83 51 -82 q 54 -81 53 -82 m 114 146 l 115 146 l 115 149 l 114 149 l 114 146 m 367 229 l 368 232 l 364 228 l 367 229 m 19 -137 l 18 -137 q 19 -140 18 -139 l 19 -137 m 438 406 q 437 407 438 407 q 436 408 436 407 l 436 406 l 438 406 m 471 413 l 469 413 l 469 410 q 470 411 469 411 q 471 413 471 411 m 49 60 l 47 60 l 47 57 q 49 60 47 58 m 222 358 l 221 358 l 221 356 q 222 358 221 357 m 113 140 l 111 139 l 113 139 l 113 140 m 22 -121 l 21 -122 l 22 -122 l 22 -121 m 63 -15 l 63 -17 l 64 -17 l 63 -15 m 44 40 l 46 42 l 44 42 l 44 40 z "},"q":{"ha":361,"x_min":0,"x_max":390,"o":"m 319 325 l 322 321 l 326 326 l 331 325 l 324 306 l 339 317 l 353 308 q 345 267 353 294 q 327 207 338 239 q 306 144 317 175 q 292 97 296 114 l 247 -61 q 247 -68 246 -64 q 246 -75 247 -72 q 258 -80 253 -79 q 269 -81 263 -81 q 321 -99 299 -81 q 359 -142 343 -117 q 383 -198 375 -168 q 390 -253 390 -228 q 380 -304 390 -279 q 351 -349 369 -329 q 309 -380 333 -368 q 257 -392 285 -392 q 191 -372 215 -392 q 153 -324 167 -353 q 136 -259 140 -294 q 132 -192 132 -224 q 144 -65 132 -126 q 171 60 156 -3 q 175 76 174 68 q 179 93 176 85 q 140 63 160 78 q 92 47 119 47 q 55 57 72 47 q 24 78 38 67 q 3 116 6 93 q 0 161 0 139 q 7 229 0 190 q 27 310 14 268 q 60 394 40 353 q 105 467 79 435 q 161 519 131 499 q 228 539 192 539 q 305 518 265 539 q 368 468 344 497 q 376 456 372 463 q 379 443 379 450 q 369 419 379 432 l 358 431 l 353 424 l 353 425 q 340 435 349 431 q 325 442 332 439 q 317 468 324 457 q 293 479 310 479 q 271 472 282 479 q 207 415 235 453 q 158 333 179 378 q 123 241 138 288 q 99 157 108 194 q 96 143 96 150 q 94 129 96 136 q 174 205 136 165 q 243 289 211 244 q 251 301 246 293 q 260 319 256 310 q 272 335 265 328 q 282 342 278 342 q 289 336 286 342 q 293 328 292 331 l 299 336 l 313 332 l 310 318 l 319 325 m 254 -353 q 292 -305 276 -331 q 308 -247 308 -279 q 291 -161 308 -201 q 242 -87 274 -121 q 226 -160 233 -124 q 219 -235 219 -197 q 226 -297 219 -265 q 254 -353 232 -329 m 196 -228 q 208 -124 196 -186 q 237 6 219 -61 q 274 137 254 74 q 307 242 293 200 l 306 243 q 287 207 297 235 q 265 142 276 179 q 243 62 254 104 q 222 -20 232 19 q 206 -92 213 -60 q 197 -139 200 -124 q 192 -178 194 -158 q 190 -218 190 -199 q 191 -251 190 -235 q 199 -283 192 -268 q 197 -256 199 -269 q 196 -228 196 -242 m 67 163 q 74 182 71 172 q 79 203 76 192 q 121 321 97 265 q 181 431 144 376 q 183 438 183 433 q 142 385 163 419 q 106 310 122 350 q 80 230 90 269 q 67 163 69 190 m 217 129 q 202 92 210 117 q 187 35 194 67 q 173 -33 179 3 q 162 -101 167 -68 q 154 -162 157 -135 q 151 -204 151 -189 q 163 -121 158 -162 q 176 -39 168 -79 q 195 46 185 4 q 217 129 206 88 m 196 -49 l 199 -46 q 215 21 207 -12 q 233 86 224 54 q 242 121 238 104 q 250 156 247 138 q 236 117 244 146 q 219 57 228 89 q 205 -5 211 25 q 196 -49 199 -35 m 124 447 q 110 428 118 440 q 93 401 101 415 q 79 374 85 388 q 74 353 74 361 q 101 400 88 376 q 126 449 115 424 l 124 447 m 196 -50 q 188 -77 192 -56 q 180 -125 183 -99 q 174 -177 176 -151 q 171 -217 172 -203 l 196 -50 m 94 335 l 136 417 q 125 401 132 413 q 111 378 118 390 q 99 354 104 365 q 94 338 94 343 l 94 335 m 361 -279 q 368 -254 368 -265 q 361 -224 368 -240 l 361 -279 m 325 -268 l 328 -268 l 328 -237 l 325 -237 l 325 -268 m 154 -251 l 156 -251 l 156 -229 l 154 -229 l 154 -251 m 61 318 l 58 319 l 56 313 l 57 311 l 61 318 m 210 -186 l 208 -185 l 208 -192 l 210 -192 l 210 -186 m 349 -256 l 347 -256 l 347 -262 q 349 -256 349 -260 m 188 -157 l 189 -157 l 189 -154 l 188 -154 l 188 -157 m 214 -164 l 211 -164 q 213 -167 211 -165 q 214 -164 213 -165 m 258 35 q 257 33 257 35 q 258 32 257 32 l 258 35 m 278 107 q 279 108 279 107 l 278 108 l 278 107 m 201 -290 q 200 -287 200 -289 l 200 -290 l 201 -290 m 272 86 l 274 88 l 272 88 l 272 86 m 240 -36 l 240 -35 l 239 -35 l 240 -36 m 286 136 l 288 135 l 288 136 l 286 136 m 260 44 l 261 44 l 261 46 l 260 44 m 38 253 l 39 254 l 38 254 l 38 253 m 161 372 l 163 372 l 161 374 l 161 372 m 231 -72 l 231 -71 l 229 -72 l 231 -72 m 224 -99 l 225 -99 l 225 -97 l 224 -99 m 186 -181 l 185 -182 l 186 -182 l 186 -181 z "},"s":{"ha":313,"x_min":-21,"x_max":314,"o":"m 269 465 l 261 457 q 243 461 251 458 q 225 464 235 464 q 204 455 214 464 q 186 433 194 446 q 172 406 178 419 q 161 385 165 393 q 152 351 154 367 q 150 315 150 335 q 198 358 174 335 q 257 381 222 381 q 286 373 271 381 q 314 358 301 365 q 270 325 293 340 q 229 288 247 310 q 182 224 206 258 q 235 110 213 164 q 257 -12 257 56 q 243 -72 257 -44 q 206 -119 229 -99 q 154 -151 183 -139 q 94 -162 125 -162 q 55 -157 75 -162 q 18 -140 35 -151 q -10 -111 1 -128 q -21 -72 -21 -94 q -9 1 -21 -39 q 19 81 3 40 q 55 160 36 122 q 89 228 74 199 q 60 294 75 260 q 46 365 46 329 q 54 415 46 386 q 78 469 63 443 q 115 512 94 494 q 161 529 136 529 q 191 524 175 529 q 222 510 207 518 q 250 490 238 501 q 269 465 263 478 m 135 125 l 131 124 q 111 79 122 107 q 90 22 100 51 q 72 -35 79 -7 q 64 -81 64 -62 q 71 -107 64 -93 q 78 -104 74 -104 q 85 -101 82 -104 q 135 -49 118 -83 q 151 22 151 -14 q 146 74 151 49 q 135 125 140 100 m 36 -75 l 39 -76 q 73 44 50 -14 q 121 161 96 103 q 102 135 114 160 q 78 77 90 110 q 56 15 67 44 q 44 -24 46 -14 q 40 -49 42 -36 q 36 -75 39 -62 m 124 385 q 144 417 135 396 q 164 454 154 439 q 137 424 146 447 q 124 385 128 401 m 204 -79 q 219 -53 213 -67 q 225 -25 225 -40 q 224 -19 225 -22 q 224 -14 224 -17 q 211 -45 219 -26 q 204 -78 203 -64 l 203 -78 l 204 -79 m 17 13 l 19 21 q 38 64 31 42 q 53 108 46 86 q 63 127 60 117 q 71 147 65 138 q 58 124 67 143 q 41 81 50 104 q 24 38 32 58 q 17 13 17 18 m 108 467 q 97 449 101 460 q 89 432 92 439 q 100 449 94 439 q 108 467 106 458 m 113 422 q 124 437 119 429 q 129 456 129 444 l 113 422 m 186 -51 q 194 -37 194 -49 l 194 -29 l 186 -51 m 169 -31 q 165 -42 167 -36 q 160 -53 163 -47 q 169 -31 169 -46 m 71 147 q 76 160 74 156 q 71 147 71 154 m 26 -28 l 28 -28 l 28 -18 q 26 -28 26 -21 m 172 -24 l 169 -22 l 169 -29 l 172 -24 m 7 -29 l 7 -24 l 4 -29 l 7 -29 m 3 -43 l 4 -43 l 4 -37 l 3 -37 l 3 -43 m 235 -49 l 233 -49 q 235 -50 233 -50 l 235 -49 m 25 -43 l 25 -42 l 24 -42 l 24 -43 l 25 -43 m 103 90 l 101 89 l 103 89 l 103 90 m 160 419 l 158 421 l 158 419 l 160 419 m 231 -58 l 232 -57 l 231 -57 l 231 -58 m 163 426 l 161 425 l 163 425 l 163 426 m 104 167 l 104 165 l 106 167 l 104 167 z "},"t":{"ha":239,"x_min":-35,"x_max":460,"o":"m 440 636 q 447 625 440 628 q 460 621 453 622 q 421 596 447 606 q 364 580 394 586 q 303 569 333 574 q 254 563 272 565 q 192 315 217 440 q 147 64 168 190 q 129 -71 136 -3 q 122 -207 122 -139 q 126 -262 122 -235 q 136 -315 129 -289 q 138 -326 138 -319 q 127 -340 138 -336 q 110 -343 117 -343 q 103 -336 106 -343 l 94 -349 q 69 -338 82 -342 q 43 -328 56 -335 q 13 -297 24 -318 q -2 -251 3 -276 q -8 -201 -7 -226 q -8 -158 -8 -176 q 4 62 -8 -49 q 33 281 17 172 q 40 331 38 306 q 49 382 43 357 q 60 440 54 411 q 71 499 67 469 q 74 513 72 506 q 76 526 76 519 q 69 533 76 532 q 60 533 63 533 q 38 533 49 533 q 17 532 28 532 l 18 533 q -5 545 7 536 q -24 564 -17 554 l -22 572 l -35 579 q -29 594 -32 590 q -15 601 -26 599 q 31 611 8 608 q 78 619 54 614 q 121 681 101 650 q 156 749 140 713 q 182 802 167 776 q 213 853 197 828 q 222 865 217 860 q 236 871 226 871 l 253 863 l 243 840 q 254 853 250 847 q 264 865 258 858 l 269 857 l 281 858 l 274 839 l 285 849 l 300 843 l 300 829 l 311 832 q 326 821 318 826 q 333 806 333 815 q 326 780 333 803 q 308 729 318 757 l 283 657 q 299 658 290 658 q 314 660 307 657 q 349 665 332 664 q 386 665 367 665 q 417 660 408 665 q 440 636 426 654 m 83 -224 q 124 169 92 -25 q 206 554 156 363 l 193 553 q 150 378 167 467 q 118 203 133 290 q 92 22 104 113 q 81 -160 81 -68 q 81 -192 81 -175 q 83 -224 81 -208 m 161 549 q 147 506 156 540 q 127 424 138 472 q 107 321 117 376 q 90 216 97 265 q 77 128 82 167 q 72 75 72 89 l 72 68 q 91 189 82 129 q 111 308 100 249 q 135 428 122 369 q 161 549 149 488 m 57 194 q 86 368 72 282 q 122 540 100 454 q 111 508 118 532 q 97 449 104 483 q 82 376 89 415 q 69 302 75 338 q 60 240 64 267 q 57 201 57 213 l 57 194 m 239 657 q 258 712 250 685 q 278 767 267 739 q 271 757 275 761 q 264 749 267 753 q 255 729 261 744 q 242 697 249 714 q 230 665 235 679 q 225 646 225 650 l 228 646 q 239 657 236 646 m 40 68 q 47 125 43 96 q 56 182 51 154 l 51 183 l 38 68 l 40 68 m 204 681 q 194 662 196 672 q 189 640 192 651 q 199 659 197 649 q 204 681 201 669 m 203 464 q 210 486 208 476 q 203 476 204 482 q 203 464 203 471 m 211 488 q 217 511 214 501 q 210 496 210 504 q 211 488 210 490 m 69 51 l 68 51 q 67 42 68 46 q 67 32 67 38 l 69 32 l 69 51 m 65 18 l 64 18 l 63 -8 l 64 -8 l 65 18 m 190 400 q 185 393 185 397 q 185 390 185 390 q 186 386 186 389 l 190 400 m 186 385 q 181 379 181 385 q 181 376 181 376 q 182 372 182 375 l 186 385 m 222 542 q 228 551 228 543 l 228 557 l 222 542 m 31 -14 l 29 -14 l 29 -32 l 31 -32 l 31 -14 m 36 44 l 35 44 l 35 28 l 36 28 l 36 44 m 147 185 l 147 193 l 144 193 l 144 185 l 147 185 m 189 414 q 190 401 189 406 q 191 408 190 404 q 192 414 192 411 l 189 414 m 163 268 q 161 276 163 274 l 160 276 l 160 268 l 163 268 m 158 247 l 158 257 l 157 257 l 156 247 l 158 247 m 167 307 q 169 306 168 306 l 169 315 l 168 315 l 167 307 m 60 -72 l 60 -58 l 58 -58 l 58 -72 l 60 -72 m 221 532 q 218 524 218 528 q 217 517 218 521 l 221 526 l 221 532 m 151 207 q 150 214 151 211 l 149 214 l 149 207 l 151 207 m 107 632 q 101 626 101 632 l 101 624 l 107 632 m 143 161 l 143 172 l 142 172 l 142 161 l 143 161 m 165 297 l 164 297 l 164 286 l 165 286 l 165 297 m 240 836 q 236 828 238 832 q 233 821 235 825 l 240 833 l 240 836 m 172 333 l 171 333 l 171 324 l 172 324 l 172 333 m 135 121 l 133 121 l 133 111 l 135 111 l 135 121 m 168 504 l 171 511 l 168 513 l 168 504 m 176 343 l 176 351 l 175 351 l 175 343 l 176 343 m 194 422 l 194 429 q 192 422 192 424 l 194 422 m 181 368 l 178 361 l 181 360 l 181 368 m 203 464 l 201 463 q 201 457 201 460 q 200 451 200 454 l 203 463 l 203 464 m 114 -46 l 114 -39 q 113 -46 113 -40 l 114 -46 m 154 231 l 154 236 l 153 236 l 153 231 l 154 231 m 132 88 q 131 93 131 89 l 129 93 q 131 88 129 89 l 132 88 m 139 144 l 138 144 l 138 139 l 139 139 l 139 144 m 124 38 l 122 38 l 122 32 l 124 32 l 124 38 m 144 408 q 143 401 144 404 l 144 401 l 146 408 l 144 408 m 140 390 l 140 386 l 142 386 l 142 390 l 140 390 m 160 471 l 157 467 l 160 467 l 160 471 m 232 754 l 236 757 l 232 757 l 232 754 m 110 -83 l 108 -83 l 108 -87 l 110 -87 l 110 -83 m 119 0 l 119 4 l 118 4 l 118 0 l 119 0 m 161 483 l 163 482 l 165 488 l 161 483 m 151 440 l 151 436 l 153 436 l 153 440 l 151 440 m 231 815 q 233 821 233 818 q 231 815 231 818 m 128 67 l 126 67 l 126 61 l 128 67 m 60 -37 l 61 -37 l 61 -35 l 60 -35 l 60 -37 m 214 789 q 217 796 217 792 l 214 789 m 196 438 q 194 433 194 436 l 196 435 l 196 438 m 172 525 l 172 522 q 174 525 174 524 l 172 525 m 217 796 l 219 801 q 217 796 219 799 m 147 419 l 149 419 l 149 422 l 147 419 m 160 656 q 158 654 158 656 l 160 656 m 200 451 q 199 447 199 450 l 200 451 m 210 486 l 211 486 l 211 488 l 210 486 m 204 681 q 205 682 204 682 q 206 683 206 682 q 204 681 204 682 m 214 786 q 213 785 214 785 q 213 783 213 785 q 214 786 214 785 z "},"u":{"ha":458,"x_min":0,"x_max":493,"o":"m 472 175 l 476 172 q 469 165 474 168 q 461 160 465 163 l 461 157 l 463 157 l 463 158 q 473 160 467 161 q 482 163 479 160 q 469 142 476 151 q 454 121 461 132 q 475 142 467 129 l 476 140 l 476 142 l 475 142 l 481 151 q 488 168 481 161 l 493 164 q 478 135 486 149 q 461 108 469 122 q 435 65 450 89 q 401 19 419 40 q 362 -18 383 -3 q 315 -33 340 -33 q 258 -12 279 -33 q 238 46 238 10 q 239 90 238 68 q 240 135 240 113 q 191 67 217 100 q 135 6 165 33 q 96 -10 119 -10 q 35 10 63 -10 q 6 49 11 26 q 0 100 0 72 q 8 184 0 135 q 30 283 15 233 q 65 378 44 333 q 110 450 85 424 q 124 458 118 458 q 135 455 126 458 q 151 450 143 451 l 151 438 q 160 442 154 442 q 168 443 165 442 l 164 428 l 176 433 l 188 428 q 190 418 190 422 q 184 396 190 414 q 170 356 178 378 q 156 313 163 333 q 146 286 149 293 q 120 181 129 235 q 104 75 111 128 q 188 168 150 119 q 264 267 226 217 q 286 303 276 283 q 305 344 296 324 q 324 384 314 364 q 347 421 333 404 q 361 433 351 426 q 378 439 371 439 q 396 433 386 439 q 415 425 406 428 l 411 410 l 421 419 l 424 419 q 431 415 425 415 l 435 421 l 435 418 q 436 417 435 417 q 426 378 436 400 q 410 339 417 356 q 372 207 386 274 q 339 74 357 140 q 337 66 339 72 q 335 58 335 60 q 335 49 335 54 q 343 44 336 44 q 369 58 353 44 q 403 91 386 72 q 435 128 421 110 q 457 156 450 147 l 457 154 l 461 160 l 460 158 l 472 175 m 382 343 q 358 290 371 328 q 333 206 344 251 q 313 119 321 161 q 303 57 304 78 q 314 99 310 78 q 325 140 318 119 q 355 242 340 192 q 382 343 369 292 m 81 165 q 83 171 83 168 q 117 293 96 235 q 163 411 138 351 q 165 419 165 415 q 164 428 164 424 q 136 369 150 401 q 110 301 122 336 q 91 230 99 265 q 81 165 83 194 m 83 361 l 111 415 q 83 361 92 392 m 272 254 q 261 247 264 253 q 256 235 258 242 l 272 254 m 392 381 q 403 388 401 388 q 408 400 404 389 l 392 381 m 132 406 q 139 414 138 411 l 138 414 q 132 406 132 414 m 111 415 q 115 419 114 418 q 118 422 115 421 l 115 424 q 113 421 113 424 q 111 415 113 418 m 78 149 l 81 147 q 79 163 81 157 q 78 149 79 153 m 328 254 q 325 256 326 256 l 325 250 l 328 254 m 282 190 q 279 189 281 190 l 281 186 l 282 190 m 103 342 l 104 342 l 104 346 q 103 342 103 344 m 306 181 l 304 181 l 304 178 l 306 178 l 306 181 m 321 235 l 319 235 l 319 231 l 321 235 m 65 307 l 65 308 l 64 308 l 64 307 l 65 307 m 390 374 l 390 376 q 390 375 390 375 q 389 374 389 375 l 390 374 m 383 346 l 382 346 l 382 343 q 383 346 382 344 m 204 163 l 206 161 l 206 163 l 204 163 m 415 389 l 417 390 l 415 390 l 415 389 m 157 368 l 158 368 l 158 369 l 157 368 m 442 100 l 442 101 l 440 100 l 442 100 m 172 406 l 172 404 l 174 404 l 172 406 z "},"v":{"ha":429,"x_min":39,"x_max":454,"o":"m 361 715 l 374 704 q 411 681 396 700 q 436 636 426 661 q 450 584 446 611 q 454 539 454 557 q 432 406 454 479 q 374 262 410 333 q 297 126 339 190 q 213 21 254 63 q 181 1 197 6 q 144 -4 164 -4 q 93 11 118 -4 q 53 47 68 26 q 41 74 43 61 q 39 103 39 88 q 47 244 39 174 q 54 386 54 315 q 44 453 54 422 q 57 457 50 457 q 97 440 75 457 q 128 407 119 422 q 139 360 138 388 q 140 311 140 332 q 137 223 140 267 q 133 135 133 179 q 136 115 133 122 q 217 221 178 163 q 289 343 257 279 q 340 474 321 407 q 360 606 360 542 q 359 660 360 633 q 358 714 358 686 l 361 715 m 401 422 q 342 285 375 351 q 269 157 310 219 q 244 121 258 139 q 222 82 229 103 q 318 224 275 151 q 392 379 361 297 q 399 400 397 393 q 401 422 401 407 m 328 367 q 307 325 319 350 q 281 274 294 300 q 252 224 267 247 q 228 186 238 200 q 285 272 261 226 q 328 367 310 318 m 342 332 q 308 266 324 300 q 268 201 292 232 q 278 210 276 204 q 285 224 281 217 q 294 236 289 231 q 301 249 299 242 q 322 290 313 269 q 342 332 332 311 m 408 436 l 406 436 q 404 429 406 432 l 408 436 m 213 74 l 217 76 l 217 78 l 213 74 m 338 388 l 338 389 l 336 389 l 336 388 l 338 388 m 358 265 l 357 265 q 358 264 357 264 l 358 265 m 338 226 q 336 225 336 226 l 338 225 l 338 226 m 339 232 l 340 231 l 340 232 l 339 232 m 335 381 l 333 379 l 335 379 l 335 381 m 317 189 l 315 190 l 315 189 l 317 189 z "},"w":{"ha":557,"x_min":0,"x_max":574,"o":"m 471 619 q 523 592 503 613 q 554 545 543 572 q 569 488 565 518 q 574 431 574 458 q 568 357 574 403 q 551 258 563 311 q 522 153 539 206 q 481 57 504 100 q 426 -13 457 14 q 360 -40 396 -40 q 346 -39 350 -40 q 285 1 297 -28 q 274 74 274 29 q 276 146 274 110 q 279 218 279 182 q 222 137 251 178 q 160 58 192 96 q 94 25 133 25 q 61 31 78 25 q 31 49 44 38 q 9 74 18 60 q 0 107 0 89 q 10 164 0 129 q 33 238 19 199 q 60 313 46 276 q 81 372 74 349 q 86 398 85 385 q 88 424 88 411 q 85 436 88 429 q 82 449 83 443 q 89 449 85 449 q 96 450 93 450 q 124 438 108 450 q 150 418 140 426 q 172 388 165 403 q 179 350 179 372 q 160 254 179 300 q 126 161 140 208 q 121 144 124 150 l 121 142 q 152 175 136 157 q 182 210 168 193 q 202 237 186 215 q 236 283 218 258 q 269 328 254 308 q 285 351 283 349 l 269 371 q 274 379 269 378 q 285 381 279 381 q 342 356 317 381 q 372 300 368 331 q 376 260 375 281 q 376 221 376 240 q 368 111 376 165 q 362 68 365 89 q 358 25 358 47 l 358 17 q 419 101 392 42 q 467 228 447 160 q 499 364 488 297 q 510 472 510 431 q 481 594 510 538 q 476 605 478 600 q 471 615 474 610 l 471 619 m 75 124 q 88 146 81 129 q 101 181 94 163 q 113 218 107 200 q 122 246 118 236 l 118 247 q 97 185 107 215 q 75 124 86 154 m 239 226 l 240 226 l 240 228 l 239 226 m 235 251 q 231 246 231 247 l 235 251 m 225 213 q 224 207 224 211 q 225 213 225 208 m 207 182 q 206 183 207 183 l 207 182 m 271 222 l 269 221 l 271 221 l 271 222 m 182 122 q 205 151 189 131 q 238 194 221 171 q 267 236 254 217 q 283 263 281 256 l 282 263 q 231 192 256 228 q 182 122 207 157 m 276 308 q 280 313 278 311 q 285 318 282 315 l 282 319 q 278 314 281 317 q 276 308 276 311 m 344 142 l 342 142 l 333 79 q 332 58 333 65 l 336 58 l 333 79 l 338 82 l 344 142 m 436 93 l 435 94 l 435 90 l 436 93 m 513 361 q 514 357 514 360 l 515 357 l 514 361 l 513 361 m 510 342 q 511 333 510 336 l 511 342 l 510 342 m 508 315 q 501 305 501 311 q 500 292 501 299 l 508 315 l 511 331 q 507 325 507 328 q 508 320 507 322 q 508 315 508 318 m 504 239 l 504 238 q 506 239 506 238 l 504 239 m 499 218 l 500 218 l 500 224 l 503 225 l 503 226 l 499 224 l 499 218 m 496 272 q 493 261 493 264 l 496 272 m 486 176 l 488 176 q 486 178 488 178 l 486 176 m 456 140 q 450 128 453 136 l 456 140 m 485 232 q 474 201 481 217 q 465 169 468 185 q 474 195 471 182 q 483 221 478 208 l 485 232 m 518 176 l 517 178 l 517 176 l 518 176 m 524 199 l 522 197 l 524 197 l 524 199 m 514 201 q 534 274 525 238 q 546 347 543 310 l 543 344 q 512 210 531 276 q 467 79 493 144 q 479 101 472 85 q 493 137 486 118 q 506 174 500 156 q 514 201 511 192 m 546 351 q 548 359 547 356 q 549 367 549 363 l 546 367 l 546 351 m 551 381 l 551 388 l 549 388 q 550 381 550 386 l 551 381 z "},"x":{"ha":385,"x_min":-37,"x_max":422,"o":"m 188 307 q 253 390 219 349 q 324 467 288 431 q 341 481 332 475 q 363 488 350 488 q 367 487 365 488 q 371 486 368 486 q 388 472 379 479 q 406 456 397 464 l 401 446 l 411 447 q 422 433 414 442 q 308 317 360 381 q 210 186 257 253 q 227 133 218 164 q 248 70 236 101 q 274 12 260 39 q 307 -31 289 -15 q 318 -41 314 -37 q 324 -56 322 -44 q 313 -56 318 -56 q 303 -57 308 -57 q 247 -43 271 -57 q 203 -8 222 -29 q 170 38 185 13 q 144 89 156 64 q 101 18 121 54 q 65 -57 81 -18 q 39 -135 50 -96 q 14 -214 28 -175 q 4 -200 11 -201 q -12 -196 -3 -199 q -35 -171 -32 -189 q -37 -137 -37 -153 q -22 -52 -37 -97 q 16 38 -7 -7 q 65 124 39 82 q 111 199 90 165 q 80 331 94 265 q 60 464 65 396 q 47 477 53 471 q 33 490 40 483 q 50 507 33 507 q 90 497 71 507 q 139 460 122 481 q 165 417 156 440 q 178 365 174 393 q 188 307 182 338 m 379 431 l 378 433 q 333 393 353 417 q 309 363 329 388 q 267 311 289 339 q 226 260 244 283 q 207 235 208 238 l 203 224 l 206 222 q 289 330 247 276 q 379 431 331 383 m 132 122 q 115 101 125 115 q 97 69 106 86 q 79 34 88 51 q 65 4 71 17 q 80 28 69 11 q 102 65 90 46 q 123 100 114 83 q 132 122 132 117 m 342 454 q 310 428 324 444 q 286 396 297 411 q 313 425 300 411 q 342 454 326 439 m 354 436 q 330 417 339 431 q 311 393 321 404 q 333 415 322 404 q 354 436 343 425 m 197 285 q 208 297 203 289 q 218 313 214 306 q 206 299 211 306 q 197 285 200 292 m 36 -60 l 38 -60 q 36 -57 38 -57 l 36 -60 m 251 356 q 254 358 251 356 q 251 356 251 356 z "},"y":{"ha":450,"x_min":-43,"x_max":444,"o":"m 410 468 q 427 447 418 457 q 444 426 436 438 l 433 368 q 428 341 431 354 q 422 314 425 328 q 411 238 415 276 q 404 163 407 200 q 397 72 400 117 q 388 -19 393 26 q 378 -108 383 -64 q 364 -194 372 -151 q 339 -297 354 -243 q 301 -402 324 -350 q 247 -501 278 -454 q 179 -581 217 -547 q 136 -611 160 -599 q 85 -624 113 -624 q 41 -615 63 -624 q 1 -596 19 -607 q -35 -551 -26 -578 q -43 -493 -43 -524 q -41 -445 -43 -469 q -32 -399 -39 -421 q -19 -361 -29 -386 q 3 -305 -10 -336 q 31 -242 15 -274 q 63 -183 47 -210 q 96 -139 79 -156 q 126 -122 113 -122 q 153 -131 136 -122 q 178 -146 171 -139 q 131 -193 147 -165 q 101 -253 115 -221 q 65 -342 81 -300 q 38 -433 49 -383 q 37 -435 38 -435 q 36 -437 36 -436 q 31 -464 33 -451 q 29 -490 29 -476 q 36 -531 29 -514 q 49 -569 43 -549 l 79 -544 q 107 -514 93 -532 q 133 -475 121 -496 q 155 -433 144 -454 q 172 -396 165 -412 q 240 -166 219 -283 q 282 71 261 -49 q 290 158 290 114 q 260 112 281 142 q 216 53 240 82 q 167 2 192 24 q 122 -19 142 -19 q 112 -17 115 -19 q 101 -12 108 -15 l 88 -6 q 33 30 54 11 q 11 94 11 49 q 26 187 11 138 q 54 278 42 236 q 77 350 65 313 q 89 424 89 388 q 87 449 89 436 q 85 475 85 463 q 126 456 108 471 q 154 420 143 440 q 170 377 165 400 q 175 332 175 354 q 160 214 175 271 q 131 99 144 157 l 131 83 q 244 231 197 154 q 332 394 292 308 q 352 433 340 414 q 378 468 364 453 l 394 483 l 397 461 q 393 456 393 460 q 395 459 394 458 q 397 461 396 460 q 410 468 407 464 m 178 104 q 175 100 175 101 l 178 104 m 128 -168 q 124 -171 125 -168 q 126 -174 126 -171 l 126 -169 q 128 -168 126 -168 m 106 -206 q 103 -207 104 -207 q 100 -210 101 -207 q 103 -208 103 -210 q 107 -207 104 -207 q 108 -201 107 -204 q 110 -196 110 -199 l 106 -206 m -19 -426 q -18 -422 -18 -425 q -19 -417 -18 -418 l -19 -426 m -17 -406 q -16 -403 -17 -404 q -15 -401 -15 -403 q -16 -400 -15 -400 q -17 -397 -17 -400 l -17 -406 m 40 -344 q 42 -339 42 -343 q 40 -344 40 -340 m 51 -308 l 49 -315 q 43 -333 49 -322 l 47 -329 l 51 -308 m 58 -299 q 56 -300 58 -299 l 58 -299 m 69 -278 q 69 -276 69 -276 q 68 -274 68 -275 l 68 -279 l 69 -278 m 85 -172 q 88 -171 85 -172 q 90 -168 88 -168 q 85 -171 88 -168 l 85 -172 m 85 -176 q 83 -181 83 -178 l 85 -176 m 76 -194 q 72 -200 74 -197 q 67 -206 71 -203 q 70 -205 69 -206 q 74 -204 71 -204 l 76 -194 m 60 -225 q 50 -235 50 -225 q 51 -240 50 -239 l 60 -225 m 51 -242 q 46 -243 47 -242 q 51 -242 50 -243 m 42 -254 q 40 -261 40 -256 q 41 -257 40 -258 q 42 -254 42 -256 q 44 -244 44 -249 q 42 -254 42 -250 m 40 -269 q 26 -277 29 -272 q 24 -293 24 -282 q 31 -281 26 -286 q 40 -269 36 -276 m -3 -369 q 0 -361 0 -364 q -1 -365 0 -362 q -4 -369 -3 -367 q -7 -375 -7 -369 q -4 -369 -4 -374 l -3 -369 m 0 -347 q 1 -356 0 -353 q 0 -347 1 -349 m 7 -340 q 8 -333 8 -339 l 7 -340 m 10 -332 q 11 -321 11 -328 l 10 -332 m 19 -411 q 19 -409 19 -410 q 18 -407 18 -408 l 18 -412 l 19 -411 m 22 -303 q 24 -296 24 -300 q 21 -302 22 -299 q 17 -308 19 -306 l 22 -303 m 24 -383 q 28 -379 28 -383 q 27 -376 28 -378 q 26 -372 26 -375 q 24 -383 24 -378 m 322 335 q 317 322 322 328 q 313 307 313 315 q 321 322 315 318 q 322 328 321 325 q 322 335 322 332 m 313 306 q 304 300 308 304 l 313 306 m 296 286 q 295 281 296 283 q 294 275 294 278 q 296 281 296 278 q 299 286 296 283 l 299 292 l 296 286 m 215 160 q 214 154 214 158 l 215 160 m 189 60 q 196 63 193 60 q 193 61 194 61 q 189 60 192 61 m 218 90 q 221 101 221 96 q 217 95 219 99 q 207 85 215 92 l 206 83 q 203 79 203 81 q 205 82 203 81 q 208 85 207 83 q 214 86 213 85 l 218 90 m 232 113 q 233 115 232 114 q 233 119 233 117 q 232 113 232 117 m 236 179 q 237 184 236 182 q 238 189 238 186 l 243 192 q 238 190 239 192 l 235 181 l 229 178 q 222 163 225 174 q 228 173 224 167 q 236 179 232 179 m 239 122 q 244 126 243 125 q 239 122 243 126 m 247 136 q 251 138 249 138 q 254 140 253 138 l 247 138 q 244 128 244 132 q 246 131 244 129 q 247 136 247 133 m 253 206 q 254 210 254 208 q 257 215 254 213 l 261 218 q 258 217 260 217 q 254 215 257 217 q 253 210 254 213 q 253 206 253 208 q 249 205 250 206 q 244 204 247 204 q 243 196 243 201 q 244 199 243 197 q 244 203 244 200 q 249 204 247 204 q 253 206 251 204 m 267 163 q 266 160 267 161 q 265 157 265 160 q 260 154 260 157 l 260 153 q 263 156 261 156 q 265 157 264 156 l 267 163 m 274 172 q 279 181 279 175 q 276 176 276 178 q 274 172 275 175 m 272 240 q 277 242 275 242 q 281 244 279 242 q 275 243 276 244 q 272 240 274 242 q 270 236 271 238 q 267 232 269 235 l 271 232 q 272 236 271 235 q 272 240 272 238 m 286 263 q 288 267 288 265 q 292 271 289 268 l 283 264 q 283 259 283 261 q 282 254 282 257 l 286 263 m 289 200 q 294 204 292 203 l 296 206 l 299 215 q 296 206 296 210 l 289 204 l 289 200 m 271 -289 q 267 -301 271 -289 l 271 -296 l 271 -289 m 256 -242 q 255 -243 256 -243 q 254 -244 254 -243 l 254 -246 q 256 -247 254 -247 l 256 -242 m 251 -257 q 249 -261 249 -260 q 250 -265 249 -264 q 251 -257 251 -262 m 194 -417 q 196 -412 194 -414 q 193 -418 193 -415 l 194 -417 m 214 -368 q 219 -358 217 -362 q 224 -347 221 -353 q 218 -356 221 -350 q 214 -368 215 -361 m 229 -461 q 231 -453 231 -458 q 229 -461 229 -456 m 231 -331 q 235 -308 233 -319 q 240 -285 238 -296 l 226 -331 q 224 -337 224 -333 q 226 -332 224 -335 l 231 -331 m 242 -435 q 267 -397 254 -428 q 292 -328 281 -365 q 310 -258 303 -292 q 321 -212 318 -224 q 309 -242 318 -217 q 290 -298 300 -268 q 272 -356 281 -328 q 258 -396 263 -385 q 251 -415 254 -406 q 242 -435 247 -425 m 321 -210 q 326 -196 324 -201 q 319 -201 319 -196 q 320 -206 319 -204 q 321 -210 321 -207 m 324 -181 q 326 -194 324 -190 l 324 -181 z "},"z":{"ha":514,"x_min":0,"x_max":501,"o":"m 497 82 q 501 47 501 65 q 483 -35 501 11 q 436 -131 465 -82 q 368 -226 407 -179 q 288 -309 329 -272 q 206 -368 247 -346 q 131 -390 165 -390 q 83 -381 107 -390 q 41 -357 60 -372 q 11 -319 22 -342 q 0 -272 0 -297 q 15 -214 0 -243 q 53 -158 31 -185 q 104 -111 76 -132 q 156 -79 132 -90 q 173 -72 164 -75 q 192 -64 182 -68 l 196 -71 l 219 -86 l 219 -96 l 228 -92 l 231 -97 l 240 -92 l 243 -94 q 233 -109 238 -101 q 222 -124 229 -117 q 178 -166 201 -146 q 137 -208 156 -186 q 106 -256 118 -229 q 94 -317 94 -282 q 159 -284 124 -308 q 230 -225 194 -260 q 298 -149 265 -190 q 356 -65 331 -107 q 397 17 382 -22 q 413 89 413 57 q 412 106 413 97 q 410 124 411 115 q 393 126 399 126 q 323 113 361 126 q 246 78 285 99 q 171 37 207 58 q 107 -1 135 15 l 96 8 l 89 7 l 89 10 q 82 17 89 17 q 71 19 75 18 l 75 31 l 78 33 l 76 35 l 75 32 l 61 25 q 60 33 60 28 q 74 74 60 44 q 109 141 88 103 q 156 223 131 179 q 206 306 182 267 q 250 377 231 346 q 278 422 269 408 q 202 397 244 410 q 125 383 160 383 q 89 388 104 383 q 62 400 74 392 q 40 420 50 408 q 17 447 29 432 q 29 463 17 463 q 58 460 44 463 q 86 457 71 457 q 228 483 156 457 q 363 538 300 510 q 396 550 379 546 q 432 525 418 542 q 461 490 446 508 q 439 453 453 474 q 409 413 425 433 q 377 373 393 393 q 349 336 361 353 l 233 165 l 231 160 q 285 178 261 167 q 343 189 308 189 q 404 176 378 189 q 456 140 431 163 q 482 115 471 128 q 497 82 493 101 m 236 196 l 235 196 l 235 194 l 236 196 m 328 440 q 316 428 324 438 q 300 408 308 419 q 285 385 292 396 q 274 369 278 375 q 301 403 289 382 q 328 440 314 425 m 372 454 q 344 425 363 449 q 306 374 325 401 q 269 319 286 346 q 246 281 251 292 q 271 320 254 294 q 306 373 288 346 q 343 423 325 400 q 374 454 361 446 l 372 454 m 206 261 q 203 256 203 258 l 206 261 m 194 243 l 196 244 l 196 247 l 194 244 l 194 243 m 186 229 q 183 224 183 226 l 186 229 m 181 175 q 176 172 176 174 q 174 167 175 169 q 181 175 179 172 m 175 133 q 189 144 181 136 q 217 188 204 165 q 246 233 231 211 q 308 324 276 279 q 371 414 339 369 q 419 471 393 443 q 400 461 407 468 q 346 396 378 439 q 282 304 314 353 q 221 209 250 256 q 175 133 192 163 m 215 163 l 214 163 l 214 161 l 215 163 m 104 -232 l 103 -231 l 103 -232 l 104 -232 m 57 -194 q 36 -229 40 -206 l 57 -194 m 58 -232 q 67 -224 65 -229 q 71 -212 69 -219 q 64 -222 67 -217 q 58 -232 61 -226 l 58 -236 l 60 -236 l 58 -232 m 110 -197 q 83 -228 93 -207 q 71 -267 74 -249 q 89 -231 79 -250 q 110 -197 99 -212 m 311 -244 l 310 -246 l 311 -246 l 311 -244 m 418 -57 l 419 -53 l 418 -51 l 418 -57 m 414 -61 q 398 -92 407 -76 q 378 -121 389 -108 l 382 -119 q 388 -108 383 -117 q 399 -90 393 -100 q 409 -72 404 -81 q 414 -61 414 -64 m 394 -46 q 372 -85 383 -65 q 349 -125 360 -106 q 375 -87 363 -106 q 394 -46 388 -68 m 360 -147 q 358 -149 358 -147 l 360 -149 l 360 -147 m 342 -133 q 339 -136 339 -136 q 342 -133 342 -136 m 426 -121 l 425 -122 l 426 -122 l 426 -121 m 450 -81 l 449 -81 l 449 -82 l 450 -81 m 461 -10 q 460 -14 460 -11 q 435 -57 444 -33 q 413 -103 425 -81 q 387 -148 400 -125 q 357 -190 374 -171 q 344 -205 350 -197 q 333 -221 339 -212 q 390 -153 364 -189 q 436 -76 417 -117 q 448 -45 443 -61 q 460 -14 453 -29 l 461 -10 z "},"b":{"ha":433,"x_min":0,"x_max":431,"o":"m 121 229 q 145 256 136 240 q 165 285 154 271 q 199 322 179 301 q 243 360 219 342 q 292 390 267 378 q 339 401 317 401 q 378 389 361 401 q 406 358 394 376 q 424 318 418 340 q 431 278 431 296 q 430 269 431 274 q 429 261 429 265 q 410 165 425 213 q 372 76 396 118 q 314 -2 349 33 q 236 -61 279 -37 q 196 -72 217 -72 q 167 -65 182 -72 q 140 -47 153 -58 q 120 -22 128 -36 q 113 6 113 -8 q 119 34 113 19 q 135 62 125 49 q 159 85 146 75 q 185 100 172 96 l 178 89 l 178 86 l 169 71 q 189 86 179 76 q 194 78 194 83 q 192 72 194 75 q 189 65 190 68 l 207 72 l 197 50 q 264 104 232 71 q 320 178 296 138 q 360 262 344 218 q 381 346 376 306 q 369 349 375 349 q 357 350 364 350 q 331 345 344 350 q 306 335 317 340 q 227 276 264 315 q 161 188 190 236 q 111 89 132 140 q 82 -6 90 38 l 74 -6 l 67 -17 q 17 17 35 -6 q 0 72 0 39 q 9 151 0 113 q 29 228 18 190 q 51 303 35 250 q 88 424 67 357 q 134 565 110 492 q 183 698 158 638 q 229 797 207 758 q 267 836 251 836 q 276 833 271 836 q 281 822 279 825 q 289 813 283 819 q 303 781 300 800 q 307 746 307 761 q 297 709 307 736 q 275 651 288 682 q 251 592 263 619 q 235 551 239 564 q 175 392 203 472 q 119 229 147 311 l 121 228 l 121 229 m 229 -28 l 232 -28 q 294 20 268 -7 q 340 85 321 47 q 288 25 317 53 q 229 -28 260 -3 m 293 376 l 289 375 q 258 356 275 368 q 225 331 242 344 q 194 302 208 317 q 172 275 181 288 l 233 335 q 247 345 238 339 q 265 358 256 351 q 283 369 275 364 q 293 376 290 374 m 285 93 q 253 56 275 78 q 217 24 232 35 q 246 47 235 35 q 272 74 257 58 q 281 81 276 78 q 285 90 285 83 l 285 93 m 286 342 q 240 308 258 324 q 200 267 221 292 q 222 289 211 278 q 244 311 233 300 q 265 327 254 319 q 286 342 275 335 m 250 326 q 255 330 253 329 q 260 332 257 331 l 263 336 q 269 338 267 336 l 263 338 l 261 340 l 260 338 q 251 332 253 338 l 247 329 l 247 326 q 249 322 249 325 q 250 326 250 324 m 249 322 q 242 324 244 322 l 239 324 l 229 314 l 229 308 q 238 316 233 313 q 249 322 243 319 m 224 301 q 207 283 210 300 l 224 301 m 313 382 q 311 386 311 383 l 296 378 l 313 382 m 288 53 l 288 54 l 263 29 l 288 53 m 251 19 l 263 29 q 251 19 254 26 m 311 354 l 286 342 q 311 354 299 346 m 278 343 l 271 343 l 272 342 q 278 343 276 342 m 157 257 q 154 251 154 254 l 157 257 m 288 350 q 293 353 290 350 l 288 350 m 224 -31 l 225 -32 l 226 -29 q 224 -31 226 -31 m 319 26 l 318 26 l 318 25 l 319 26 m 278 26 l 276 26 l 276 25 l 278 26 z "},"C":{"ha":622,"x_min":-3,"x_max":660,"o":"m 619 464 q 613 468 617 467 q 606 472 610 469 q 570 494 581 483 q 547 529 560 506 q 528 595 532 561 q 525 664 525 629 q 525 708 525 685 q 527 754 525 731 q 534 800 529 778 q 550 840 539 822 q 511 851 532 851 q 434 828 471 851 q 369 779 397 806 q 277 669 318 729 q 208 542 236 608 q 164 403 179 475 q 149 261 149 332 q 151 194 149 235 q 166 117 154 154 q 199 52 178 79 q 258 25 221 25 q 322 44 285 25 q 392 91 358 63 q 450 152 426 119 q 474 213 474 185 q 465 250 474 232 q 447 285 456 268 l 450 289 q 467 286 456 289 q 506 268 486 279 q 541 241 525 257 q 567 206 557 225 q 576 164 576 186 q 568 120 576 142 q 547 78 560 99 q 517 41 533 58 q 486 10 501 24 q 394 -49 446 -26 q 288 -71 343 -71 q 178 -47 226 -71 q 95 17 131 -22 q 38 108 60 57 q 6 214 15 160 q -3 319 -3 265 q 18 484 -3 400 q 78 645 39 568 q 172 788 117 722 q 297 897 228 853 q 351 924 322 913 q 410 936 379 936 q 504 923 460 936 q 589 878 549 910 q 619 854 604 867 q 644 826 633 842 q 654 809 649 819 q 660 792 660 799 q 658 785 660 788 q 634 683 642 735 q 626 579 626 632 q 628 540 626 560 q 631 501 631 521 q 619 464 631 479 m 122 438 q 127 450 125 444 q 132 463 129 456 q 160 539 146 504 q 192 605 175 574 q 228 667 208 636 q 272 735 247 699 q 276 742 275 738 q 278 749 276 746 q 176 605 214 683 q 122 438 139 526 m 179 742 q 131 673 151 710 q 96 596 110 636 q 113 622 100 600 q 141 667 126 643 q 167 714 156 692 q 182 743 179 736 l 179 742 m 132 578 l 199 701 q 183 684 193 699 q 162 651 172 669 q 143 617 151 633 q 133 593 135 600 q 133 585 132 589 q 132 578 133 582 m 496 76 q 512 85 504 76 q 525 106 519 94 q 534 128 531 117 q 538 147 538 140 l 500 79 l 496 76 m 486 157 q 478 146 482 151 q 472 135 475 140 l 472 132 q 481 142 475 138 q 486 157 486 146 m 88 571 q 94 580 93 575 q 94 592 94 585 q 90 581 92 586 q 88 571 89 576 m 497 121 l 508 136 q 500 131 501 135 q 497 121 499 126 m 117 551 l 121 550 l 125 564 l 117 551 m 111 531 l 113 531 l 115 535 q 113 536 114 536 q 111 531 111 535 m 511 143 l 508 143 q 510 138 508 139 q 511 143 510 142 m 194 565 q 193 567 194 567 l 192 567 q 193 565 192 565 l 194 565 m 489 164 l 488 164 l 488 161 q 489 164 489 163 m 160 599 q 163 601 163 601 q 160 599 163 601 m 196 574 l 197 572 l 197 574 l 196 574 m 189 558 l 189 557 l 190 558 l 189 558 z "},"D":{"ha":869,"x_min":0,"x_max":900,"o":"m 343 386 q 389 394 367 390 q 435 397 411 397 q 523 388 483 397 q 596 339 563 379 q 607 326 600 335 q 621 307 614 317 q 633 288 628 297 q 638 274 638 278 q 632 257 638 268 q 616 260 624 256 q 601 269 608 264 q 587 282 593 275 q 575 293 581 289 q 548 306 563 304 q 518 308 533 308 q 469 305 497 308 q 413 294 442 301 q 359 278 385 288 q 317 257 333 268 q 310 253 314 257 l 310 235 q 312 195 310 217 q 324 158 314 174 q 339 138 328 151 q 350 117 350 124 q 346 109 350 113 q 338 106 342 106 l 336 106 q 333 107 333 107 q 299 119 313 113 q 277 133 286 125 q 260 153 268 142 q 239 182 251 164 q 224 147 228 167 q 219 108 219 128 q 220 94 219 101 q 224 82 221 88 q 242 64 228 71 q 274 53 257 57 q 308 47 292 49 q 335 46 325 46 q 410 56 372 46 q 482 82 449 67 q 670 220 592 135 q 785 422 749 306 q 800 485 794 453 q 806 549 806 517 q 794 651 806 601 q 754 746 782 701 q 706 803 735 776 q 644 849 678 829 q 573 883 610 869 q 501 900 536 896 q 467 905 485 903 q 432 907 450 907 q 363 902 397 907 q 294 890 328 897 q 217 862 257 882 q 143 812 176 842 q 89 744 110 782 q 68 664 68 706 q 84 615 68 632 q 117 574 100 597 q 110 568 114 568 q 103 569 106 568 q 62 593 81 578 q 29 628 43 608 q 8 672 15 649 q 0 719 0 696 q 7 761 0 738 q 43 833 18 799 q 97 894 68 868 q 165 940 128 921 q 244 971 203 960 q 326 988 285 982 q 408 993 368 993 q 526 976 467 993 q 638 927 585 958 q 736 853 692 896 q 811 761 781 811 q 874 633 847 701 q 900 493 900 564 q 897 428 900 457 q 888 374 894 400 q 874 322 882 349 q 853 261 865 294 q 825 208 842 233 q 792 160 808 183 q 730 92 767 126 q 650 28 693 57 q 561 -22 607 -1 q 475 -50 515 -43 q 436 -55 456 -53 q 397 -57 417 -57 q 340 -50 368 -57 q 283 -33 311 -43 q 213 8 243 -18 q 158 71 182 35 q 132 123 143 96 q 121 179 121 150 q 134 237 121 211 q 163 283 147 263 q 191 315 178 303 q 204 333 204 328 l 204 349 q 211 403 204 374 q 228 462 218 432 q 249 520 238 492 q 268 572 260 549 q 278 605 272 586 q 290 644 285 624 q 300 683 296 664 q 304 715 304 703 q 299 746 304 733 q 285 768 293 758 q 272 787 278 778 q 267 808 267 796 q 276 818 267 818 q 288 817 283 818 q 299 813 292 817 q 337 776 319 800 q 366 724 354 751 q 385 667 378 696 q 392 614 392 638 q 375 499 392 553 q 343 386 358 444 m 776 207 q 756 188 769 204 q 738 165 743 172 q 669 99 706 129 q 593 42 632 69 q 588 35 590 40 q 695 106 646 63 q 776 207 744 150 m 569 92 q 637 139 604 113 q 692 199 669 165 q 666 173 679 185 q 639 150 653 161 q 603 122 621 135 q 569 92 585 110 m 615 89 l 618 89 q 669 129 647 110 q 713 178 690 149 q 663 136 689 164 q 615 89 638 108 m 88 789 q 119 824 103 807 q 154 854 136 840 q 171 865 160 858 q 185 878 182 871 q 154 859 168 867 q 128 842 140 851 q 106 819 117 832 q 85 788 94 807 l 88 789 m 144 903 q 112 882 131 896 q 86 856 93 868 q 85 853 85 854 q 85 851 86 853 l 144 903 m 97 838 l 99 838 q 106 842 106 840 q 126 858 117 850 q 146 876 136 867 q 136 872 143 876 q 122 860 129 867 q 107 847 114 854 q 97 838 100 840 m 706 96 q 725 110 714 99 q 740 129 736 121 l 706 96 m 207 289 q 204 290 206 290 l 186 269 l 188 268 l 207 289 m 221 222 l 219 222 q 215 215 217 218 q 213 207 214 211 q 221 222 221 211 m 689 82 q 681 75 685 78 q 672 68 676 72 q 689 81 679 71 l 689 82 m 207 247 l 208 246 l 213 253 l 208 254 l 208 247 l 207 247 m 608 85 l 601 82 l 604 81 q 608 85 608 81 m 703 94 l 696 88 l 701 90 l 704 94 l 703 94 m 724 189 l 722 190 q 721 185 721 189 l 724 189 m 565 25 q 569 24 567 24 l 574 26 q 565 25 571 25 m 210 203 l 211 203 l 211 204 q 210 203 210 204 m 72 836 l 71 835 q 72 835 72 835 q 74 836 72 836 l 72 836 m 82 849 q 79 846 82 849 q 82 849 82 849 z "},"E":{"ha":557,"x_min":-21,"x_max":644,"o":"m 457 413 l 465 411 l 458 403 q 422 385 446 390 q 382 378 399 381 q 290 367 336 372 q 197 357 243 361 q 176 272 186 314 q 160 186 167 229 q 135 58 149 122 q 122 -72 122 -7 q 123 -100 122 -86 q 131 -126 124 -114 q 214 -119 176 -126 q 286 -99 251 -111 q 354 -69 321 -86 q 428 -31 388 -51 q 466 -11 447 -21 q 507 1 485 -1 l 531 -10 l 536 -21 l 550 -21 l 539 -43 l 560 -28 l 560 -43 l 571 -28 l 574 -31 q 528 -109 564 -78 q 451 -160 492 -140 q 415 -178 433 -168 q 378 -194 397 -187 q 302 -214 343 -207 q 225 -221 261 -221 q 113 -210 164 -221 q 18 -151 61 -200 q -12 -110 1 -132 q -18 -90 -17 -103 q -20 -63 -19 -78 q -21 -35 -21 -49 q -21 -12 -21 -21 q -17 46 -21 17 q 40 328 4 189 q 124 606 76 468 q 151 678 136 643 q 183 750 167 714 q 199 780 190 765 q 214 810 207 794 q 220 833 219 821 q 221 858 221 846 q 241 864 232 861 q 260 874 250 867 q 276 882 269 881 l 286 869 l 357 872 q 438 877 397 874 q 519 881 479 881 q 547 881 532 881 q 579 878 563 881 q 610 872 596 876 q 635 861 625 868 l 628 854 l 638 844 l 631 831 l 642 828 l 642 825 l 582 817 l 640 817 l 638 813 l 644 810 l 643 806 q 619 794 632 797 q 593 792 607 792 q 458 787 525 790 q 322 776 390 783 q 271 620 297 697 q 224 464 244 543 q 298 472 261 467 q 372 476 335 476 q 451 468 411 476 l 451 464 l 439 457 l 457 446 l 444 438 l 451 435 l 450 429 l 458 431 l 460 426 l 371 407 q 415 410 393 407 q 458 419 436 414 l 457 413 m 486 815 l 463 815 q 397 813 431 815 q 332 807 364 810 l 332 804 l 486 815 m 206 389 l 207 385 q 252 392 231 389 q 297 399 274 396 l 296 401 q 250 397 272 399 q 206 389 228 394 m 307 403 l 307 400 l 326 400 l 325 403 l 307 403 m 338 404 l 338 403 l 357 403 l 357 404 l 338 404 m 551 817 l 551 818 l 532 818 l 532 817 l 551 817 m 256 440 l 256 443 l 249 443 l 250 440 l 256 440 m 499 818 l 499 817 l 506 817 l 506 818 l 499 818 m 126 243 l 125 244 l 125 238 l 126 238 l 126 243 m 229 439 l 229 438 l 233 438 l 233 439 l 229 439 m 568 817 l 568 818 l 564 818 l 564 817 l 568 817 m 117 199 l 118 199 q 117 204 118 203 l 117 199 m 131 265 l 132 265 l 132 268 l 131 268 l 131 265 m 146 331 l 144 329 q 146 326 144 328 l 146 331 m 135 279 l 133 279 l 133 276 l 135 279 m 281 446 l 279 446 l 279 444 l 281 444 l 281 446 m 518 818 l 517 818 q 518 817 517 817 l 518 818 m 418 856 q 417 855 417 856 q 415 854 417 854 l 418 854 l 418 856 m 432 401 l 431 401 l 431 400 q 432 401 432 400 m 121 217 l 119 214 l 119 213 q 121 217 121 214 m 113 160 l 111 160 l 111 157 q 113 160 111 158 m 147 339 l 149 339 l 149 340 l 147 339 m 136 289 l 138 290 l 136 290 l 136 289 z "},"F":{"ha":625,"x_min":6,"x_max":1015,"o":"m 969 733 q 960 751 965 742 q 954 771 954 760 q 959 789 954 779 q 969 804 964 799 q 938 811 954 810 q 906 813 921 813 q 742 796 822 813 q 582 764 663 779 l 533 754 q 528 751 531 753 q 524 750 526 750 q 531 707 531 726 q 519 663 531 700 q 492 581 507 625 q 463 496 478 536 q 444 442 449 456 q 541 455 493 447 q 638 463 589 463 q 660 462 649 463 q 683 460 672 461 l 683 454 q 672 451 676 453 q 661 447 668 449 q 616 442 639 442 q 571 439 593 442 q 529 433 550 436 q 488 425 508 431 q 576 435 532 429 q 665 442 621 442 l 682 442 q 677 431 682 435 q 665 428 672 428 l 675 422 l 685 422 q 641 409 678 415 q 561 397 604 403 q 480 388 518 392 q 432 379 442 383 l 432 376 q 552 392 493 383 q 672 407 611 400 l 672 410 l 685 403 q 671 390 681 394 q 650 381 661 385 q 627 376 639 378 q 608 374 615 375 l 419 351 q 377 168 400 260 q 354 -17 354 76 q 355 -42 354 -29 q 357 -68 356 -56 q 366 -106 360 -87 q 372 -143 372 -124 q 369 -154 372 -146 q 353 -144 360 -151 q 339 -131 346 -137 q 288 -39 303 -93 q 274 67 274 15 q 289 199 274 135 q 317 331 304 264 q 269 325 293 331 q 222 319 246 319 l 214 338 q 268 348 242 343 q 322 357 294 353 l 322 364 l 211 343 l 210 346 l 215 353 l 204 372 l 213 378 l 207 393 q 233 403 217 399 q 269 412 250 408 q 307 418 289 415 q 336 424 325 421 q 385 576 360 500 q 435 729 410 653 q 200 679 317 700 q 172 675 186 676 q 144 674 158 674 q 96 678 121 674 q 51 695 71 683 q 18 726 31 707 q 6 774 6 746 q 8 799 6 788 q 24 818 10 810 q 33 799 26 813 q 42 782 39 785 q 79 767 53 771 q 121 764 106 764 q 173 767 147 764 q 224 776 199 771 q 385 813 306 793 q 547 850 465 832 q 728 883 639 869 q 911 896 818 896 q 990 874 964 896 q 1015 797 1015 853 q 1003 749 1015 774 q 964 725 992 725 l 969 733 m 910 839 l 875 839 q 833 836 861 839 q 767 828 804 833 q 690 817 731 824 q 615 804 650 811 q 553 791 579 797 q 517 779 526 785 l 518 774 q 713 815 615 796 q 910 839 810 835 m 779 868 q 729 863 754 865 q 679 856 704 861 q 582 837 631 846 q 486 813 533 828 q 553 824 514 814 q 624 842 593 835 q 701 854 663 849 q 779 868 740 860 m 447 761 q 299 729 372 746 q 149 703 225 713 q 299 724 225 706 q 447 761 372 742 m 451 803 l 440 803 q 408 797 435 803 q 349 784 381 792 q 288 769 317 776 q 251 760 260 763 l 371 786 q 411 793 390 790 q 451 803 432 796 m 313 400 q 251 386 279 397 q 283 390 263 388 q 313 400 304 393 m 694 835 q 723 839 708 838 q 750 846 738 840 q 722 842 736 843 q 694 835 708 840 m 658 829 l 694 835 q 685 836 692 836 q 658 829 672 836 m 818 871 l 818 876 l 789 871 l 818 871 m 546 807 l 544 806 l 550 806 q 572 814 564 806 l 546 807 m 506 797 l 514 797 q 528 799 521 797 q 543 806 536 800 q 524 801 533 803 q 506 797 515 800 m 407 771 l 379 768 q 389 767 382 767 q 407 771 399 767 m 835 876 l 835 875 l 869 875 l 869 876 l 835 876 m 458 422 l 476 422 l 476 426 l 458 422 m 249 385 q 244 385 246 385 q 239 386 242 386 q 233 382 235 386 q 241 383 238 382 q 249 385 244 383 m 379 768 l 358 760 q 369 762 364 761 q 379 768 375 763 m 282 742 l 294 744 q 290 745 292 744 q 286 746 289 746 q 282 742 282 746 m 176 746 q 189 749 181 746 l 176 749 l 176 746 m 776 847 q 794 850 783 847 l 793 851 l 776 847 m 593 418 l 593 421 l 578 415 l 593 418 m 549 414 q 565 415 560 414 l 549 415 l 549 414 m 624 421 l 622 422 l 610 422 l 610 421 l 624 421 m 535 410 l 535 411 l 522 411 l 522 410 l 535 410 m 496 408 l 496 407 l 508 407 l 508 408 l 496 408 m 444 419 l 456 422 l 443 422 l 444 419 m 450 403 l 450 401 l 458 401 l 458 403 l 450 403 m 163 744 l 163 746 l 154 746 l 154 744 l 163 744 m 640 425 l 640 424 l 647 424 l 647 425 l 640 425 m 247 365 l 247 367 l 240 367 l 240 365 l 247 365 m 201 728 q 208 729 206 728 l 200 729 l 201 728 m 224 732 l 224 735 l 218 732 l 224 732 m 236 738 l 236 735 q 242 736 240 735 q 236 738 238 736 m 331 401 l 329 404 l 325 401 l 331 401 m 293 376 l 292 375 l 294 374 l 297 375 q 293 376 294 375 m 265 368 l 265 369 l 261 369 l 261 368 l 265 368 m 479 404 l 479 406 l 475 406 l 475 404 l 479 404 m 310 379 q 311 376 310 378 l 314 378 l 310 379 m 561 381 l 561 382 l 557 382 l 558 381 l 561 381 m 624 388 l 624 389 l 621 389 l 621 388 l 624 388 m 178 725 l 178 724 l 182 724 l 178 725 m 628 789 l 625 789 q 628 788 625 788 l 628 789 m 436 367 l 436 365 q 439 367 438 365 l 436 367 m 644 790 l 644 792 l 642 792 q 644 790 643 790 m 279 372 l 278 372 l 278 371 l 279 371 l 279 372 m 526 765 l 524 764 l 526 764 l 526 765 m 374 728 l 374 729 l 371 729 l 374 728 m 610 785 l 611 785 l 611 786 l 610 785 m 254 738 l 250 736 q 254 738 253 736 m 735 808 l 733 808 l 735 807 l 735 808 m 431 742 l 429 743 l 429 742 l 431 742 m 286 708 l 286 710 l 285 710 l 286 708 m 389 733 l 388 733 l 389 732 l 389 733 m 529 792 l 528 792 l 529 790 l 529 792 m 757 811 l 756 811 l 757 810 l 757 811 m 254 704 l 254 703 l 256 703 l 254 704 m 614 411 l 615 410 l 615 411 l 614 411 z "},"G":{"ha":631,"x_min":-12,"x_max":676,"o":"m 513 431 q 465 431 490 431 q 415 438 439 432 q 371 456 392 443 q 338 489 350 468 q 335 499 335 494 q 340 507 335 506 q 350 508 344 508 q 370 506 361 508 q 390 501 379 503 q 405 500 397 500 q 419 500 413 500 q 488 506 454 500 q 556 513 521 513 q 574 509 563 513 q 599 500 586 506 q 620 488 611 494 q 632 474 629 481 q 649 459 639 467 q 660 439 660 451 q 656 420 660 432 q 646 395 651 408 q 635 370 640 382 q 626 351 629 358 l 558 197 q 534 142 546 169 q 513 88 522 115 l 463 -58 q 444 -147 447 -103 q 439 -237 440 -190 q 424 -236 432 -236 q 408 -233 415 -236 q 358 -190 372 -222 q 343 -125 343 -158 q 359 -11 343 -65 q 389 101 375 43 q 328 86 358 93 q 267 79 299 79 q 129 115 192 79 q 22 210 67 151 q -7 278 -1 240 q -12 353 -12 315 q -10 390 -12 372 q -4 426 -7 408 q 50 588 11 507 q 148 732 89 668 q 283 836 207 796 q 450 876 360 876 q 578 849 525 876 q 672 757 632 821 q 676 746 676 750 q 674 738 676 743 l 661 733 q 650 682 654 714 q 646 629 646 650 q 647 607 646 618 q 649 585 649 596 q 643 564 649 574 q 588 610 603 578 q 574 681 574 642 q 580 726 574 704 q 586 772 586 749 l 586 776 q 560 781 574 779 q 535 782 547 782 q 407 758 467 782 q 297 692 347 733 q 208 598 247 651 q 144 485 169 544 q 115 397 126 443 q 103 304 103 350 q 108 249 103 278 q 128 197 114 221 q 163 158 142 174 q 215 143 183 143 q 277 153 247 143 q 335 178 307 163 q 359 192 342 182 q 394 213 376 201 q 426 235 411 224 q 443 253 440 246 l 511 422 q 512 426 511 424 q 513 431 513 429 m 78 415 q 85 423 83 418 q 86 433 86 428 l 88 436 q 127 528 108 489 q 168 600 146 567 q 219 665 190 633 q 290 735 249 696 q 229 690 260 719 q 172 624 199 660 q 124 549 144 588 q 96 478 104 510 q 88 447 92 463 q 78 415 85 431 m 415 -112 l 418 -108 q 456 26 433 -39 q 504 157 479 92 q 514 180 508 168 q 522 204 519 192 l 521 204 l 503 175 q 477 116 492 156 q 449 33 463 76 q 425 -51 435 -11 q 415 -112 415 -92 m 543 253 l 622 433 l 615 433 l 536 258 l 543 253 m 78 575 q 93 597 83 579 q 107 622 103 615 q 158 690 129 658 q 214 751 186 721 q 175 720 194 742 q 137 672 156 699 q 103 619 118 646 q 78 575 88 593 m 100 557 l 103 556 q 110 569 106 563 q 119 583 115 576 q 164 648 140 618 q 213 710 188 678 q 181 682 197 701 q 150 640 165 663 q 122 594 135 617 q 100 557 108 572 m 514 272 q 528 295 524 283 q 535 319 532 307 l 514 272 m 492 294 q 508 336 506 313 l 492 294 m 443 90 l 447 89 q 449 100 449 94 q 451 113 449 106 l 443 90 m 521 361 l 518 364 l 514 353 l 521 361 m 461 135 q 467 143 464 140 l 463 144 q 462 140 463 142 q 461 135 461 138 m 424 108 l 418 103 l 419 101 l 424 108 m 407 64 l 411 64 l 407 67 l 407 64 m 567 393 l 565 393 q 564 388 564 392 l 567 393 m 582 293 l 582 296 l 581 296 l 581 292 l 582 293 m 424 32 l 425 31 l 428 33 l 424 32 m 419 8 l 419 13 l 418 13 l 419 8 m 229 726 l 231 726 l 229 728 l 226 725 l 229 726 m 557 244 l 556 240 l 557 240 l 557 244 m 504 117 l 504 114 l 506 114 q 504 117 506 115 m 508 122 l 508 124 q 507 122 507 124 l 508 122 m 499 101 l 499 100 l 500 100 q 499 101 500 101 m 404 58 l 406 58 l 406 60 q 404 58 404 60 m 186 654 q 185 656 186 656 l 186 654 m 263 686 q 261 688 263 688 l 263 686 m 496 94 l 496 93 l 497 93 l 496 94 m 190 603 l 192 603 l 192 604 l 190 603 m 567 268 l 567 267 l 568 267 l 567 268 m 569 272 l 571 274 l 569 274 l 569 272 m 251 675 l 250 675 l 250 674 l 251 675 m 603 347 l 604 349 l 603 349 l 603 347 z "},"H":{"ha":550,"x_min":0,"x_max":656,"o":"m 92 19 q 63 53 75 32 q 42 101 50 75 q 31 152 35 126 q 28 197 28 178 q 34 263 28 229 q 47 329 40 297 q 63 401 56 365 q 81 474 71 438 q 131 629 101 553 q 186 785 161 706 q 160 770 179 781 q 119 749 140 760 q 78 729 97 738 q 54 721 60 721 q 30 735 42 721 q 11 758 18 749 l 14 764 l 0 774 q 8 782 4 778 q 17 789 11 786 q 48 804 32 797 q 79 821 64 811 q 163 872 122 844 q 243 931 203 900 q 254 938 249 935 q 267 942 260 942 q 305 903 286 926 q 324 853 324 879 q 320 837 324 847 q 312 815 317 826 q 302 792 307 803 q 296 775 297 781 l 253 653 q 224 572 238 613 q 199 489 211 531 q 219 488 203 488 q 256 488 236 488 q 294 488 276 488 q 321 489 313 489 q 375 488 349 489 q 429 482 401 486 q 435 499 432 488 q 463 598 446 538 q 500 722 479 658 q 544 840 521 785 q 589 925 567 896 q 604 935 596 935 q 611 933 608 935 l 619 918 l 626 919 q 636 904 631 915 l 633 903 l 643 897 q 651 881 646 890 q 656 864 656 871 q 651 832 656 851 q 639 792 646 813 q 624 753 632 772 q 613 719 617 733 q 576 601 593 661 q 543 481 558 542 q 490 272 514 374 q 447 69 465 171 q 419 -135 429 -32 q 408 -349 408 -237 q 408 -366 408 -357 q 403 -382 407 -375 q 374 -369 388 -375 q 351 -349 361 -362 q 319 -270 328 -314 q 311 -186 311 -226 q 319 -50 311 -118 q 339 85 326 18 q 367 219 351 153 q 396 353 382 286 q 403 385 399 369 q 413 417 408 401 q 294 411 353 415 q 176 406 236 407 q 167 372 172 389 q 158 339 161 356 q 136 197 143 264 q 129 56 129 131 q 128 28 129 43 q 125 1 128 14 l 96 19 l 96 18 l 92 18 l 92 19 m 204 826 q 174 813 192 822 q 136 791 156 803 q 98 767 117 779 q 67 749 79 756 q 94 761 72 750 q 140 785 115 772 q 183 811 164 799 q 204 826 203 824 m 235 894 l 233 896 q 217 885 229 893 q 193 868 206 876 q 169 852 181 860 q 154 843 158 844 l 149 838 q 193 865 171 851 q 235 894 215 878 m 132 826 l 140 833 q 121 822 131 829 q 126 825 124 824 q 132 826 129 826 m 181 838 l 172 831 l 175 831 q 181 836 181 831 l 181 838 m 104 813 q 99 810 101 811 q 96 806 96 808 l 96 804 l 104 813 m 217 856 l 215 858 l 213 854 l 217 856 z "},"I":{"ha":274,"x_min":-18,"x_max":399,"o":"m 150 856 l 150 857 q 143 858 147 857 q 139 863 139 860 q 142 869 139 867 l 135 872 q 144 891 138 883 q 163 900 150 899 l 231 908 q 265 911 249 911 q 300 911 282 911 q 358 905 342 911 q 378 889 374 899 q 385 869 383 879 q 399 851 386 860 q 363 845 381 844 q 328 846 346 846 q 306 843 319 846 q 307 830 307 836 q 307 817 307 824 q 302 767 307 792 q 290 719 297 743 q 236 513 260 619 q 225 456 229 485 q 214 400 221 428 l 189 282 q 181 234 183 258 q 175 186 178 210 q 165 115 169 150 q 161 44 161 81 l 161 -4 l 200 -4 q 217 -24 211 -11 q 238 -39 222 -37 q 214 -58 229 -56 q 170 -69 190 -65 q 131 -73 150 -72 q 93 -74 113 -74 q 49 -74 74 -74 q 16 -65 32 -74 q -10 -42 0 -56 q -14 -31 -12 -36 q -18 -19 -15 -25 q -12 -13 -17 -14 q -3 -12 -7 -12 l 82 -12 q 61 51 68 21 q 54 117 54 81 q 55 130 54 124 q 56 143 56 136 q 77 324 63 235 q 115 503 92 414 q 158 669 138 586 q 204 835 179 751 l 153 835 l 154 846 l 147 847 l 151 854 l 150 856 m 156 878 l 153 881 q 149 878 150 879 q 146 874 149 876 l 156 878 z "},"J":{"ha":581,"x_min":-133,"x_max":578,"o":"m 335 753 q 458 719 410 753 q 532 632 506 685 q 568 515 558 579 q 578 390 578 451 q 534 124 578 254 q 429 -126 490 -6 q 389 -201 414 -157 q 332 -292 364 -244 q 263 -387 300 -340 q 187 -473 226 -435 q 108 -535 147 -511 q 31 -558 68 -558 q 17 -558 24 -558 q 4 -557 11 -557 q -44 -547 -19 -557 q -89 -519 -69 -536 q -121 -478 -108 -501 q -133 -431 -133 -456 q -113 -347 -133 -396 q -60 -242 -93 -297 q 13 -128 -28 -186 q 94 -17 53 -71 q 171 80 135 36 q 232 151 207 124 q 308 232 268 193 q 393 303 347 271 q 433 326 413 317 q 476 342 454 335 q 488 414 485 378 q 492 486 492 450 q 488 549 492 517 q 473 607 485 581 q 438 650 461 633 q 376 667 415 667 q 279 638 329 667 q 185 567 229 610 q 108 476 142 525 q 61 385 75 426 q 53 358 58 375 q 49 332 49 342 q 49 320 49 325 q 51 308 50 315 l 42 308 q -11 397 -11 338 q 1 467 -11 436 q 32 531 13 499 q 128 648 75 600 q 253 732 181 696 q 292 748 274 743 q 335 753 311 753 m 178 631 q 168 619 174 628 q 178 631 175 619 m 135 625 q 128 617 132 621 q 122 610 125 613 l 126 611 l 136 624 q 155 638 146 631 q 171 654 164 646 q 153 640 161 647 q 135 625 144 632 m 65 461 q 63 453 63 456 q 64 456 64 454 q 65 460 64 458 l 65 461 m 232 639 q 245 647 239 643 q 254 658 251 650 l 229 640 q 222 637 226 638 q 214 633 217 636 q 147 576 178 611 q 93 506 117 540 q 85 494 90 503 q 78 482 81 486 q 85 490 82 485 q 90 500 88 496 q 97 506 93 503 q 103 513 100 510 q 164 580 135 544 q 232 639 193 615 m 267 663 l 265 661 l 267 661 l 267 663 m 343 164 q 331 158 336 163 q 324 147 326 153 l 343 164 m 290 178 l 292 178 l 292 181 l 290 178 m 228 104 q 238 117 233 113 q 228 107 228 114 l 228 104 m 225 101 q 204 76 206 94 l 225 101 m 193 64 l 200 72 l 197 72 q 193 67 193 72 l 193 64 m 136 -6 q 116 -28 125 -15 q 99 -54 107 -40 q 118 -27 107 -42 q 136 -8 129 -12 l 136 -6 m 82 -79 q 65 -99 75 -83 q 47 -131 56 -115 q 54 -120 49 -128 q 66 -104 60 -112 q 77 -89 72 -96 q 82 -79 82 -82 m -67 -308 q -74 -324 -71 -315 q -81 -340 -76 -332 q -46 -282 -61 -312 q -12 -222 -31 -251 q 11 -186 -1 -203 q 35 -151 24 -169 l 39 -142 l 33 -150 q -19 -226 8 -181 q -67 -308 -47 -272 m 39 -185 q 33 -195 36 -190 q 28 -206 31 -200 q 35 -196 35 -199 q 39 -185 36 -193 m -61 -371 q -24 -292 -46 -331 q 21 -218 -3 -254 q 0 -246 13 -225 q -26 -291 -12 -267 q -51 -338 -39 -315 q -67 -372 -62 -361 l -61 -371 m -54 -436 l -57 -442 l -54 -442 l -54 -436 m 203 4 q 162 -49 188 -15 q 108 -123 136 -82 q 51 -208 79 -164 q -1 -295 22 -253 q -38 -374 -24 -337 q -53 -432 -53 -410 q 78 -183 0 -300 q 243 46 157 -67 q 281 94 263 69 q 321 140 299 119 l 321 143 q 260 76 292 115 q 203 4 229 36 m 183 -58 q 182 -60 183 -60 l 183 -58 m 129 -133 l 131 -133 l 131 -132 l 129 -133 m 122 -139 l 122 -140 l 124 -139 l 122 -139 m 19 -304 q 18 -306 19 -306 l 19 -304 m 101 -390 q 207 -258 156 -332 q 303 -105 258 -185 q 383 58 347 -25 q 443 217 419 140 q 438 214 440 214 q 433 211 436 214 q 369 150 406 190 q 291 59 332 110 q 208 -49 250 8 q 130 -160 167 -106 q 64 -263 93 -215 q 19 -343 35 -311 q -7 -408 4 -375 q -25 -478 -18 -442 q 44 -442 13 -467 q 101 -390 75 -418 m 353 -76 q 368 -49 358 -68 q 388 -8 378 -29 q 405 32 397 13 q 414 60 413 51 q 383 -8 397 26 q 351 -75 368 -42 q 345 -85 349 -81 q 339 -94 342 -89 l 315 -144 q 326 -126 322 -136 q 335 -107 331 -117 q 344 -91 339 -99 q 353 -76 349 -83 m 383 -72 q 381 -76 382 -75 q 378 -81 379 -78 l 379 -81 q 383 -75 383 -81 l 383 -72 m 367 -110 q 364 -111 365 -110 q 365 -110 365 -111 q 367 -110 365 -110 m 443 56 q 417 1 429 28 q 392 -53 404 -25 l 396 -51 q 422 1 408 -25 q 443 56 435 28 m 282 -301 q 289 -296 285 -299 q 293 -289 293 -293 q 292 -287 292 -289 l 292 -285 l 282 -301 m 328 -236 q 424 -60 381 -151 q 499 126 468 31 l 496 128 q 469 67 481 99 q 446 6 458 36 q 398 -97 424 -47 q 344 -196 372 -146 q 331 -225 338 -210 q 314 -251 325 -240 q 322 -244 319 -249 q 328 -236 325 -240 m 438 -72 l 436 -72 q 438 -74 436 -74 l 438 -72 m 453 -37 q 454 -36 454 -37 l 453 -35 l 453 -37 m 457 -31 l 456 -29 l 456 -31 l 457 -31 m 467 -6 l 465 -7 l 467 -7 l 467 -6 z "},"K":{"ha":782,"x_min":-8,"x_max":1142,"o":"m 1142 -321 q 1090 -347 1113 -340 q 1032 -353 1068 -353 q 906 -326 974 -353 q 769 -256 839 -300 q 630 -158 699 -212 q 499 -45 561 -103 q 386 67 438 13 q 300 164 335 122 q 296 168 297 165 q 292 174 294 171 l 254 154 q 246 96 247 125 q 243 38 244 67 q 240 -21 242 8 q 231 -78 238 -50 q 207 -72 218 -74 q 186 -69 196 -71 q 168 -60 176 -67 q 151 -40 160 -54 q 130 19 136 -12 q 124 82 124 51 q 134 197 124 138 q 160 315 144 256 q 197 431 176 374 q 236 540 217 488 q 296 684 264 614 q 356 828 328 754 l 326 821 q 231 781 276 803 q 183 753 207 769 q 139 715 158 736 q 106 670 119 694 q 93 617 93 646 q 108 569 93 592 q 97 558 108 558 q 94 559 94 558 q 90 560 93 560 q 64 566 75 563 q 40 581 53 569 q 5 622 18 599 q -8 675 -8 646 q 6 733 -8 706 q 41 785 19 761 q 89 826 63 808 q 142 856 115 844 q 274 906 211 885 q 411 944 338 926 q 441 956 426 949 q 471 967 456 963 q 504 951 489 960 q 533 929 519 943 l 528 917 l 539 918 q 556 897 549 907 q 560 900 558 899 q 564 901 561 901 q 538 867 553 883 q 513 833 524 851 q 497 803 504 818 q 482 772 489 788 q 447 705 464 739 q 415 636 431 671 q 352 488 381 563 q 300 335 324 413 q 294 316 297 325 q 288 299 292 307 l 293 296 q 431 397 363 347 q 565 501 499 447 q 671 592 619 546 q 774 688 722 639 q 828 746 806 717 q 868 815 850 775 q 890 874 881 844 q 899 936 899 904 q 898 957 899 947 q 910 974 897 967 q 939 915 931 942 q 947 847 947 888 q 935 756 947 801 q 885 647 919 696 q 806 556 850 597 q 676 442 746 500 q 540 338 607 383 l 385 232 q 415 194 400 213 q 449 157 431 175 q 669 -53 557 49 q 915 -232 782 -156 q 989 -270 951 -253 q 1067 -296 1026 -287 q 1103 -306 1086 -300 q 1140 -317 1121 -311 l 1142 -321 m 33 725 q 35 733 35 726 q 33 725 33 731 m 39 735 q 46 742 46 735 q 36 735 42 740 l 39 735 m 76 685 q 98 715 85 699 q 122 746 111 731 q 105 732 114 739 q 89 715 96 725 q 81 701 83 708 q 76 685 79 693 m 214 131 l 213 132 l 210 124 l 214 131 m 239 260 q 252 301 246 281 q 265 342 258 322 q 315 478 292 413 q 363 608 338 544 q 419 736 389 672 q 489 865 449 800 q 474 860 478 865 q 467 847 471 854 q 397 709 429 779 q 336 567 365 639 q 244 300 283 435 l 239 278 l 239 260 m 264 194 q 274 196 271 194 l 272 200 q 264 194 267 197 m 651 501 l 653 501 l 656 506 l 651 501 m 633 488 q 629 482 632 486 l 631 482 q 638 492 631 485 l 636 492 l 633 488 m 615 506 q 617 508 617 507 q 619 510 617 508 l 621 514 l 626 517 q 621 514 624 517 l 617 510 l 615 506 m 615 475 q 613 471 613 472 q 615 475 615 474 m 594 489 l 596 492 q 601 497 601 492 l 601 500 q 596 492 599 494 l 594 492 l 594 489 m 589 482 q 583 479 586 479 q 592 485 589 479 l 589 482 m 575 442 l 589 447 l 592 453 l 592 454 q 588 449 590 453 l 575 442 m 571 433 q 567 433 568 433 q 564 432 565 432 q 571 433 568 432 m 560 465 q 556 458 560 463 l 558 460 l 561 465 l 560 465 m 556 426 q 549 419 553 421 q 542 414 546 418 l 554 421 q 558 426 557 425 q 561 432 558 429 l 560 432 l 556 426 m 528 438 q 533 439 531 439 q 536 442 535 439 l 535 442 l 528 438 m 539 411 q 531 405 535 407 q 524 400 528 403 l 522 397 q 515 393 518 394 q 507 390 513 392 l 506 385 q 500 381 503 383 q 494 378 497 379 q 506 385 496 378 q 516 392 511 388 q 522 397 521 396 q 528 403 526 401 q 538 406 531 404 l 539 411 m 519 428 q 524 435 524 432 q 521 433 521 433 q 519 431 521 432 l 519 428 m 474 396 q 482 401 476 399 q 490 407 488 403 q 503 414 494 411 l 503 417 q 504 417 504 417 q 506 418 504 418 l 511 422 q 503 417 507 421 q 497 412 500 414 q 490 407 493 410 l 486 404 q 474 397 483 400 l 474 396 m 471 392 q 460 385 464 389 q 465 388 463 386 q 471 392 468 390 m 456 379 l 457 381 l 457 383 l 456 381 l 456 379 m 493 378 q 472 363 486 374 q 453 346 457 351 q 474 361 461 354 q 493 378 486 368 m 440 368 q 429 363 432 365 l 440 368 m 450 343 q 438 336 446 342 q 450 343 446 339 m 418 353 q 414 350 415 351 q 410 347 413 349 q 418 353 417 351 m 424 324 q 414 322 417 324 l 424 322 l 424 324 m 403 313 q 396 304 396 310 q 399 309 399 308 q 403 313 400 310 m 383 297 q 381 296 382 296 q 385 297 383 296 l 388 303 l 394 304 q 388 303 390 304 q 385 300 385 301 q 383 297 385 299 m 363 257 q 365 256 364 257 q 368 256 367 256 q 395 271 372 256 q 451 310 418 286 q 520 363 483 335 q 591 417 557 392 q 649 463 625 443 q 682 489 674 482 q 730 531 707 508 q 776 575 753 553 q 778 576 778 575 l 781 581 l 781 582 q 778 576 778 579 q 776 575 776 576 q 760 565 771 574 q 738 547 750 557 q 715 528 726 538 q 699 514 704 518 q 619 449 658 482 q 539 385 579 417 q 454 324 497 353 q 369 264 411 296 q 363 257 365 261 z "},"L":{"ha":478,"x_min":-50,"x_max":842,"o":"m 835 -150 q 840 -169 838 -160 q 835 -190 842 -179 q 815 -186 824 -196 q 808 -175 811 -181 q 797 -165 804 -169 q 781 -153 789 -156 q 706 -146 742 -142 q 639 -153 672 -150 q 574 -162 606 -157 q 502 -177 538 -169 q 431 -194 467 -185 q 343 -217 386 -206 q 256 -239 300 -228 q 188 -255 222 -247 q 118 -269 154 -262 q 67 -273 92 -274 q 19 -264 43 -272 q -31 -231 -11 -253 q -50 -171 -50 -208 q -32 -162 -43 -154 q -12 -174 -22 -172 q 10 -179 -1 -176 q 47 -181 29 -182 q 85 -176 65 -181 q 85 -158 85 -167 q 88 -140 85 -149 q 96 -49 88 -104 q 117 71 104 7 q 145 200 131 135 q 174 322 160 265 q 200 420 189 379 q 215 475 211 461 q 217 485 218 481 l 203 476 q 156 437 179 457 q 118 389 133 417 q 99 346 107 368 q 100 297 92 324 q 92 297 94 297 q 86 296 89 296 q 57 307 71 297 q 34 331 43 317 q 22 365 25 346 q 26 404 19 383 q 48 447 35 428 q 76 485 61 467 q 173 567 122 531 q 276 636 224 604 q 303 661 296 647 q 356 749 328 707 q 419 832 385 792 q 471 887 443 861 q 532 932 499 913 q 570 949 550 943 q 611 949 590 956 q 649 926 633 942 q 665 908 657 918 q 678 888 672 899 q 685 847 689 867 q 667 807 681 826 q 622 757 647 779 q 568 715 596 735 q 483 657 526 683 q 397 603 440 631 q 385 588 388 597 q 306 421 339 506 q 267 314 283 368 q 236 204 251 260 q 219 135 229 176 q 199 50 210 94 q 179 -36 189 6 q 163 -104 169 -78 l 151 -161 l 163 -161 l 360 -106 q 459 -80 410 -92 q 560 -61 508 -68 q 628 -51 593 -56 q 694 -49 663 -46 q 740 -57 718 -51 q 782 -74 761 -62 q 835 -150 824 -99 m 513 808 q 517 811 515 811 l 513 808 m 540 731 q 544 731 542 731 q 547 732 546 732 q 540 731 543 732 l 538 728 q 535 722 538 728 q 529 721 531 722 q 525 718 525 718 q 529 721 524 718 q 533 722 532 721 q 536 722 533 722 q 539 726 536 724 q 540 731 539 729 m 538 776 l 538 778 q 536 776 536 778 l 538 776 m 563 742 q 564 746 563 744 q 563 742 561 743 q 551 736 556 740 l 563 742 m 553 790 q 556 793 553 790 l 553 790 m 642 821 l 581 758 l 578 756 q 580 756 579 756 q 582 757 581 757 q 644 819 618 781 q 647 828 644 822 l 642 821 m 588 789 q 589 788 588 789 l 589 789 l 588 789 m 610 815 l 601 801 l 599 799 l 594 794 q 593 793 594 793 l 590 793 q 596 794 593 793 q 599 799 596 796 q 601 801 601 799 q 606 808 604 804 q 611 815 608 813 l 615 818 q 617 819 617 818 q 619 819 618 819 l 618 821 l 617 821 q 614 818 617 821 l 610 815 m 604 840 q 600 834 601 838 q 596 826 599 831 q 592 824 594 826 q 589 821 589 821 q 586 818 589 818 q 585 816 585 817 q 582 814 585 815 q 579 811 579 814 l 575 808 q 574 806 575 807 q 574 804 574 806 q 569 801 572 804 l 574 804 l 576 808 l 579 811 l 582 814 q 583 815 583 814 q 585 815 583 815 l 586 817 q 589 821 589 819 q 592 824 589 821 l 596 826 q 600 833 599 829 q 604 840 601 838 q 608 841 607 840 q 610 842 608 842 l 610 843 l 608 843 l 604 840 m 597 865 q 557 834 574 853 q 524 796 540 815 q 542 809 533 803 q 560 824 551 815 l 599 864 q 599 867 599 867 l 600 867 l 601 868 l 600 868 l 599 867 q 597 865 597 867 m 544 842 q 546 843 544 842 l 544 843 l 544 842 m 550 846 l 553 849 q 550 846 553 849 m 557 851 q 556 853 557 853 l 556 851 l 557 851 m 556 872 q 543 863 549 867 q 531 854 538 860 q 481 802 503 831 q 439 746 460 774 l 429 732 q 432 729 429 732 q 440 739 436 735 q 447 749 444 743 l 482 793 l 557 871 l 567 878 l 556 872 m 461 804 q 464 807 464 807 q 461 804 461 807 m 472 821 q 475 824 475 821 l 472 821 m 529 872 q 532 876 532 875 l 532 878 l 529 872 m 528 872 q 524 871 525 871 q 521 869 522 871 q 499 850 507 860 l 476 825 q 483 830 481 828 q 489 835 486 832 l 528 872 m 497 878 q 494 874 494 875 q 497 876 494 876 l 501 881 q 502 882 501 882 q 503 883 503 882 l 507 886 l 507 888 l 518 892 q 521 896 521 894 q 522 899 525 896 q 525 900 524 900 l 524 900 q 522 898 521 899 q 521 896 522 897 l 518 892 q 507 888 511 893 q 506 886 507 886 l 503 883 q 501 881 501 883 q 499 879 500 879 q 497 878 497 879 m 457 840 q 454 835 456 838 q 450 829 453 832 l 458 839 l 461 843 q 464 846 464 843 l 469 849 q 470 850 469 850 q 471 851 471 850 l 486 867 q 490 871 490 868 q 486 868 489 871 l 469 853 q 468 850 467 850 q 467 848 467 849 q 464 846 467 847 q 461 843 461 843 q 457 840 458 840 m 446 790 q 443 788 446 788 q 440 781 440 782 q 436 778 438 778 q 438 778 438 778 q 440 779 439 779 q 443 788 443 785 q 445 788 444 788 q 447 789 446 789 q 450 792 447 789 q 446 790 449 790 m 432 808 l 439 818 q 441 819 440 818 q 443 819 442 819 q 438 818 440 819 l 432 808 m 431 767 q 429 768 431 768 q 431 767 431 768 m 407 781 q 405 776 406 778 q 401 771 404 774 q 405 776 404 774 q 407 781 406 778 q 410 781 410 781 q 413 782 411 782 q 415 789 415 788 q 418 792 415 792 l 424 794 q 425 803 424 800 q 427 803 426 803 q 429 804 428 804 q 426 803 428 804 q 424 803 425 803 l 424 794 q 417 792 419 794 q 414 790 415 792 q 413 782 414 785 q 409 781 410 782 q 407 781 408 781 m 381 743 l 382 742 l 383 742 l 381 743 m 338 565 q 327 550 333 561 q 314 526 321 539 q 301 499 307 513 q 290 475 294 485 q 300 486 294 478 q 313 513 307 500 q 326 540 319 526 l 338 565 m 290 469 l 292 469 q 291 472 292 471 q 290 474 290 472 l 290 469 m 281 449 q 280 446 281 447 q 279 442 279 444 l 282 442 q 281 446 281 444 q 281 449 282 447 q 287 453 288 450 q 288 461 286 457 q 281 449 283 457 m 268 413 l 269 413 l 269 414 l 268 414 l 268 413 m 68 436 q 69 438 69 436 l 68 438 l 68 436 m 85 381 l 83 382 q 82 381 82 382 l 85 381 m 85 460 q 81 457 83 460 q 79 454 79 457 q 75 449 75 451 q 72 444 72 446 q 76 447 72 444 q 79 454 76 451 q 81 457 79 456 l 85 460 m 104 447 q 99 444 99 444 q 96 442 96 442 q 90 431 90 433 l 92 431 l 96 442 q 99 444 99 442 q 106 447 100 444 l 104 447 m 88 463 q 90 465 90 465 q 96 468 93 468 l 97 469 q 96 468 96 469 q 93 467 94 468 q 90 467 92 467 l 88 463 m 86 388 l 86 389 q 86 388 88 388 m 124 418 l 122 417 l 124 417 l 124 418 m 143 464 l 129 451 q 104 423 115 438 q 86 390 93 408 q 90 393 90 390 q 115 424 103 408 q 139 456 128 439 l 143 464 m 156 468 q 156 470 156 469 q 157 474 157 471 q 156 471 157 472 q 156 468 156 469 m 164 479 q 161 475 161 476 l 164 479 m 167 482 q 169 486 169 485 l 167 482 q 165 481 165 482 q 164 481 165 481 q 167 482 167 481 m 290 -200 l 289 -200 l 289 -201 l 290 -201 l 290 -200 m 322 -190 l 321 -192 l 322 -192 l 322 -190 m 336 -189 q 335 -187 336 -187 l 335 -189 l 336 -189 m 347 -183 q 344 -185 346 -185 l 343 -185 l 343 -186 q 344 -185 344 -186 q 346 -185 344 -185 l 347 -183 m 360 -181 q 358 -182 358 -181 l 360 -182 l 360 -181 m 367 -179 q 374 -178 371 -179 l 367 -178 l 367 -179 m 382 -172 l 375 -178 q 382 -176 378 -176 l 382 -172 m 404 -168 l 399 -171 q 404 -169 401 -169 l 404 -168 m 429 -164 q 428 -162 429 -162 q 428 -164 428 -162 l 429 -164 z "},"M":{"ha":1107,"x_min":14,"x_max":1215,"o":"m 1215 869 q 1209 824 1215 844 q 1196 779 1203 803 l 1161 650 q 1106 444 1133 549 q 1055 234 1078 340 q 1017 21 1032 128 q 1003 -190 1003 -86 q 1004 -272 1003 -231 q 1015 -354 1006 -314 q 1024 -381 1018 -368 q 1032 -407 1029 -393 q 1019 -408 1025 -408 q 1007 -408 1014 -408 q 955 -392 976 -408 q 922 -347 933 -375 q 905 -283 913 -319 q 892 -206 897 -246 q 885 -128 888 -167 q 883 -61 883 -90 q 887 3 883 -29 q 893 68 890 36 q 899 125 896 96 q 906 182 901 154 q 944 365 919 275 q 993 544 969 454 q 1001 574 996 554 q 1013 614 1007 593 q 1024 653 1019 635 q 1029 679 1029 672 l 1014 658 q 908 503 960 582 q 810 343 857 424 q 750 228 778 288 q 699 108 722 169 q 696 96 696 100 q 699 79 696 88 q 703 63 703 71 q 697 52 703 56 q 683 49 690 49 q 669 53 675 49 l 664 46 q 647 51 656 49 q 632 57 639 54 q 597 90 608 67 q 582 142 586 114 q 578 198 578 169 q 579 247 579 226 q 585 465 579 357 q 603 682 592 574 q 488 446 540 565 q 393 201 436 326 q 354 49 369 129 l 351 36 l 336 35 q 335 49 335 39 q 337 72 335 60 q 342 94 339 83 q 393 264 358 182 q 461 428 428 346 q 476 462 468 446 q 492 497 485 478 l 494 507 q 521 564 506 536 q 547 622 536 592 q 519 565 532 594 q 493 508 507 536 q 424 348 456 429 q 361 183 392 267 q 331 49 336 118 q 330 41 331 44 q 328 33 329 38 l 321 39 l 307 24 q 281 36 294 31 q 257 51 268 42 q 231 83 243 64 q 209 123 218 101 q 195 167 200 144 q 190 207 190 189 q 199 326 190 265 q 224 449 208 388 q 258 569 239 510 q 299 682 278 628 q 335 768 315 726 q 372 853 354 810 q 348 845 367 853 q 303 825 329 838 q 247 798 278 813 q 187 771 217 783 q 130 750 157 758 q 83 742 103 742 q 38 763 56 742 q 14 808 19 783 q 24 817 17 817 q 35 813 29 817 q 49 810 40 810 q 120 826 74 810 q 217 865 167 843 q 315 911 268 888 q 388 947 361 935 q 441 976 415 961 q 494 1003 467 990 l 506 985 l 513 985 l 531 954 l 529 949 q 537 939 533 944 q 540 926 540 933 q 528 892 540 921 q 500 830 515 864 q 469 764 485 796 q 450 719 454 732 q 372 499 408 610 q 319 269 336 388 q 315 238 317 254 q 313 206 313 221 q 426 481 367 346 q 560 747 486 617 q 595 808 576 778 q 639 861 614 838 q 665 882 651 872 q 692 903 678 892 l 704 896 l 703 886 l 713 894 l 728 890 l 704 835 l 706 835 l 732 886 l 736 875 l 746 883 l 714 776 l 718 775 q 733 824 726 799 q 753 872 740 849 l 771 860 l 771 842 q 769 828 771 838 q 765 808 767 818 q 760 787 763 797 q 757 771 758 776 q 742 690 749 731 q 731 610 736 650 l 700 347 q 697 319 697 332 q 697 290 697 306 q 707 304 701 294 q 719 325 713 314 q 731 347 725 336 q 740 365 736 358 q 785 437 761 401 q 832 507 808 472 q 923 638 878 574 q 1017 767 968 703 q 1051 810 1033 790 q 1086 854 1069 831 q 1101 878 1094 865 q 1118 903 1108 892 q 1128 913 1124 910 q 1142 917 1133 917 q 1160 913 1151 917 q 1178 907 1168 908 l 1176 904 l 1193 890 l 1194 881 l 1200 885 l 1215 869 m 211 806 q 214 807 213 806 q 213 806 213 807 q 211 806 213 806 m 307 888 l 306 889 l 306 888 l 307 888 m 365 876 q 344 868 354 874 q 324 857 335 863 l 363 874 l 365 876 m 371 878 q 389 885 379 879 q 388 890 388 886 q 379 883 383 886 q 371 878 375 881 m 314 136 q 314 145 314 140 q 315 154 314 150 q 313 146 313 150 q 310 138 313 142 q 314 136 313 138 m 318 75 q 319 79 318 78 q 319 83 319 81 q 317 75 317 78 l 318 75 m 328 81 l 326 79 l 328 79 l 328 81 m 331 133 l 329 135 l 329 129 l 331 133 m 324 182 q 333 200 328 193 l 329 199 l 324 182 m 347 243 q 341 235 342 240 q 339 224 340 229 l 347 243 m 361 228 l 360 229 l 360 228 l 361 228 m 363 282 q 356 272 356 279 l 356 268 l 363 282 m 369 253 l 368 253 l 369 251 l 369 253 m 385 292 l 383 292 l 385 290 l 385 292 m 426 389 l 425 390 l 425 389 l 426 389 m 482 561 q 483 563 482 563 q 483 564 483 563 q 482 561 482 563 m 488 574 q 492 583 490 579 q 497 592 494 588 q 490 584 490 589 q 488 574 489 579 m 514 632 q 525 645 522 638 q 529 661 528 653 q 522 647 526 654 q 514 632 518 639 m 535 671 q 540 674 538 671 l 535 671 m 349 76 l 347 75 l 349 75 l 349 76 m 361 129 l 360 129 l 360 128 l 361 129 m 615 749 l 614 749 q 613 743 613 747 l 615 749 m 615 804 l 614 806 l 614 804 l 615 804 m 711 754 l 714 753 q 715 759 714 756 q 715 765 715 763 l 714 765 l 711 754 m 708 733 l 710 733 l 710 742 l 708 742 l 708 733 m 658 217 l 657 217 l 657 203 l 658 203 l 658 217 m 658 240 l 657 240 l 657 231 l 658 231 l 658 240 m 658 254 l 657 254 l 657 250 l 658 250 l 658 254 m 661 275 l 660 275 l 660 271 l 661 271 l 661 275 m 660 286 q 677 472 668 379 q 696 657 686 564 l 692 651 q 680 560 685 606 q 671 468 675 514 q 664 399 668 436 q 660 329 660 361 l 660 286 m 694 668 q 695 663 694 665 q 696 658 696 661 l 708 722 l 704 724 q 698 696 701 711 q 694 668 694 681 m 771 315 l 769 315 l 768 311 l 771 315 m 942 588 l 940 588 q 942 586 940 586 l 942 588 m 989 106 l 988 106 l 988 100 l 989 100 l 989 106 m 992 121 q 993 126 992 125 l 990 126 l 990 121 l 992 121 m 1001 175 q 999 176 1000 176 l 999 171 l 996 160 l 999 160 l 999 171 l 1001 175 m 1006 192 q 1008 213 1006 199 l 1006 213 l 1001 193 l 1006 192 m 1011 224 q 1012 233 1011 229 q 1014 243 1013 238 l 1007 224 l 1011 224 m 1017 258 q 1018 263 1018 260 l 1017 264 l 1017 258 m 1022 279 l 1019 274 l 1022 272 l 1022 279 m 1026 296 q 1028 299 1026 297 l 1026 299 l 1026 296 m 1036 329 l 1028 315 q 1031 314 1029 314 l 1036 329 m 1051 400 l 1050 399 l 1051 399 l 1051 400 m 1060 428 q 1061 431 1061 429 l 1060 432 l 1060 428 m 1074 474 l 1072 474 l 1069 469 l 1074 474 m 1185 860 q 1190 866 1188 863 q 1192 874 1192 869 q 1190 875 1190 874 l 1190 878 l 1185 860 z "},"N":{"ha":792,"x_min":-8,"x_max":879,"o":"m 638 603 l 639 601 l 638 601 l 638 603 m 571 553 q 572 554 571 554 l 571 553 m 800 772 q 828 760 814 772 q 853 733 842 749 q 872 699 864 717 q 879 669 879 682 q 869 628 879 656 q 844 571 858 601 q 817 513 831 540 q 796 469 803 485 l 750 367 q 688 184 710 278 q 651 -6 667 90 q 643 -60 647 -33 q 639 -114 639 -86 q 656 -199 639 -161 q 728 -244 674 -237 q 708 -262 719 -254 q 682 -271 696 -271 q 626 -257 653 -271 q 579 -222 599 -243 q 530 -128 540 -182 q 519 -22 519 -75 q 534 142 519 60 q 575 303 549 224 q 638 458 601 383 q 719 601 675 533 q 753 649 735 624 q 783 699 772 675 q 745 676 768 685 q 703 657 722 668 q 622 605 661 633 q 547 544 583 576 q 382 353 447 456 q 261 132 317 251 q 225 50 242 92 q 189 -32 208 8 l 183 -42 q 174 -33 181 -39 l 175 -33 q 90 22 118 -12 q 63 118 63 56 q 70 220 63 169 q 92 319 78 271 q 119 417 106 368 q 147 515 132 467 q 188 634 165 576 q 236 750 211 692 q 173 720 204 735 q 106 706 142 706 q 58 717 83 706 q 17 743 32 728 l 18 743 q 3 763 14 749 q -8 783 -8 776 q 3 794 -8 792 q 24 799 14 797 q 44 803 33 800 q 103 814 74 808 q 161 826 132 819 q 226 842 193 833 q 290 863 258 851 q 318 881 306 868 q 334 896 325 886 q 353 915 343 906 q 374 930 364 924 q 394 936 385 936 q 404 932 400 936 q 411 925 408 928 l 433 915 l 432 908 l 443 901 l 451 900 l 438 885 l 456 888 l 472 871 q 469 863 469 867 q 465 856 468 858 q 451 835 458 844 q 436 814 443 825 q 408 773 421 793 q 385 729 396 753 q 288 510 332 621 q 211 285 243 400 q 205 264 208 278 q 198 234 201 250 q 192 205 194 218 q 189 186 189 192 l 189 176 l 188 176 l 189 175 l 189 176 q 377 478 269 346 q 649 707 485 611 q 681 725 660 714 q 724 747 701 736 q 767 765 746 757 q 800 772 788 772 m 425 833 q 426 832 425 832 l 425 833 m 347 813 q 346 810 347 811 l 351 815 l 347 813 m 150 185 q 151 194 151 188 l 150 192 l 150 185 m 161 233 q 154 218 154 226 q 156 210 154 213 q 154 203 154 208 l 153 200 l 154 201 l 156 208 l 156 210 l 161 233 m 164 256 q 163 247 163 254 q 163 249 163 249 q 164 250 164 249 l 164 256 m 181 11 l 178 6 l 181 10 l 181 11 m 169 276 q 185 315 181 294 q 196 356 189 336 q 219 431 207 393 q 244 504 232 468 q 317 689 276 597 q 424 856 358 781 q 421 856 422 856 q 418 857 419 857 q 406 849 411 857 q 397 838 400 842 q 343 752 368 796 q 299 661 318 708 q 224 472 258 567 q 169 276 190 376 l 168 275 q 167 272 168 272 q 167 268 167 271 l 164 260 l 164 258 l 165 260 q 166 264 165 263 q 167 268 167 265 l 169 275 l 169 276 m 208 74 l 207 72 l 203 71 q 207 72 206 71 l 208 72 l 208 74 m 221 111 q 219 104 219 110 l 221 106 l 221 111 m 229 129 q 228 128 228 129 l 229 126 l 229 129 m 258 189 q 257 182 257 186 l 253 181 q 257 182 256 181 l 258 182 l 258 189 m 736 735 l 742 739 l 740 739 l 736 735 m 706 721 q 711 724 708 721 l 722 729 q 717 727 719 729 q 711 724 714 725 l 706 721 m 699 718 q 688 710 693 714 q 675 703 682 707 q 688 710 682 706 q 700 718 693 714 l 699 718 m 663 696 l 664 696 l 668 699 l 664 697 l 663 696 m 650 688 l 644 685 q 650 688 647 688 m 644 663 l 646 664 l 644 664 l 644 663 m 633 660 q 632 657 632 658 l 636 660 l 633 660 m 632 647 q 629 646 631 647 q 632 647 631 646 m 624 653 q 629 654 628 653 q 624 653 625 654 m 621 669 l 628 675 q 625 674 626 674 l 621 669 m 611 643 q 614 644 613 643 l 611 644 l 611 643 m 588 625 q 583 624 585 625 l 588 625 m 576 618 l 579 618 l 579 621 l 576 618 m 571 613 l 575 618 l 572 618 l 571 613 m 575 608 q 574 606 574 607 l 575 607 l 575 608 m 563 608 l 565 611 q 568 613 567 611 l 564 611 l 563 608 m 558 603 l 560 603 l 561 606 l 558 603 m 544 594 q 551 597 547 597 l 554 603 l 551 599 l 546 597 l 544 594 m 536 610 l 540 613 l 536 611 l 536 610 m 538 589 q 532 584 533 586 q 528 579 531 582 l 531 579 l 538 589 m 536 579 q 535 576 536 576 q 536 577 536 576 q 538 578 536 578 l 538 579 l 536 579 m 533 575 l 535 574 l 535 575 l 533 575 m 522 575 l 525 579 l 524 579 l 522 575 m 514 569 q 518 571 517 569 l 514 571 l 511 567 l 514 569 m 513 557 q 511 554 513 556 l 514 557 l 513 557 m 507 588 q 501 581 504 583 q 494 575 497 578 l 499 576 q 507 585 501 579 q 515 593 513 590 l 507 588 m 493 547 l 501 557 l 501 558 l 500 558 l 494 551 l 493 547 m 492 546 q 483 540 486 543 l 492 546 m 472 554 l 482 563 l 478 561 l 472 554 m 481 536 q 478 535 479 536 q 479 535 479 535 q 481 536 479 536 m 463 544 l 465 547 l 465 549 l 463 544 m 447 531 l 454 538 l 449 533 l 447 531 m 396 474 q 401 479 397 478 q 406 486 401 482 l 411 492 l 414 494 q 418 501 414 497 q 419 503 419 501 q 431 509 425 503 q 440 519 438 515 l 444 526 l 444 528 l 440 521 l 440 519 q 428 513 432 518 q 419 503 425 508 l 418 501 l 414 499 q 411 492 411 493 l 407 490 l 406 486 l 401 483 q 397 478 401 482 l 396 474 m 382 460 q 388 465 386 461 l 394 472 l 392 472 l 388 465 l 382 460 m 364 433 l 368 438 l 365 436 l 364 433 m 360 431 q 358 426 358 429 l 360 429 l 363 431 l 360 431 m 344 410 q 339 403 344 406 l 343 404 q 344 407 344 406 q 347 410 344 408 l 344 410 m 268 208 q 269 213 269 210 q 268 208 268 211 m 278 224 l 274 222 l 274 221 l 278 224 m 288 249 q 290 250 289 249 l 288 250 l 288 249 m 301 268 q 297 267 299 268 l 301 268 m 325 313 l 321 304 l 317 299 l 313 296 l 313 289 q 308 283 308 286 l 310 286 l 314 289 l 314 296 l 318 299 q 321 304 318 299 l 325 310 l 325 313 m 332 322 l 328 321 q 326 318 326 319 l 332 322 m 332 385 q 331 386 332 386 q 331 388 331 386 q 329 385 331 386 l 332 385 m 342 336 q 346 344 343 339 q 351 351 349 350 l 347 350 l 342 338 l 338 335 l 333 326 q 336 331 335 329 q 339 335 338 332 l 342 336 m 375 388 l 364 369 l 360 367 l 358 364 l 365 369 l 375 388 m 376 454 q 378 455 378 454 q 379 456 378 456 q 376 454 378 456 m 390 408 l 386 407 l 382 397 l 390 408 m 396 414 q 394 413 394 414 l 396 414 m 492 507 l 490 507 q 490 506 490 506 q 489 504 489 506 l 492 507 m 528 542 l 526 542 l 526 540 l 528 542 m 550 560 q 553 563 550 560 l 551 563 q 551 561 551 561 q 550 560 550 561 m 706 675 q 708 676 707 675 q 707 676 707 676 q 706 675 707 675 l 704 675 l 703 674 q 706 675 704 674 m 750 707 l 749 706 q 713 690 729 699 q 681 671 697 681 q 551 581 614 631 q 438 471 489 531 q 416 446 426 458 q 399 418 406 433 q 396 415 396 415 q 397 416 397 415 q 399 417 397 417 l 399 418 q 433 453 418 433 q 463 492 447 474 q 560 583 503 539 q 669 658 617 626 q 710 680 689 669 q 749 706 732 690 l 750 706 l 750 707 m 561 546 l 561 544 q 558 543 560 544 q 560 546 560 544 l 561 546 m 543 531 l 543 529 l 539 525 l 539 526 l 542 531 l 543 531 z "},"O":{"ha":585,"x_min":0,"x_max":657,"o":"m 218 668 q 235 772 224 721 q 268 871 247 822 q 363 969 299 939 q 421 983 393 983 q 490 969 454 983 q 553 938 525 956 q 608 888 588 915 q 640 831 629 861 q 653 765 650 800 q 657 692 657 731 q 644 548 657 617 q 607 408 631 479 q 558 281 588 351 q 492 142 529 211 q 410 14 454 74 q 317 -82 367 -46 q 229 -110 279 -110 q 192 -106 210 -110 q 92 -63 129 -93 q 34 10 54 -33 q 7 105 14 53 q 0 211 0 157 q 7 324 0 265 q 28 442 14 383 q 64 557 42 501 q 117 657 86 613 q 132 676 124 667 q 154 686 140 686 q 185 677 171 686 q 218 668 200 668 m 488 926 l 469 921 q 398 857 426 906 q 353 747 369 808 q 329 625 336 686 q 322 525 322 564 q 338 415 322 467 q 385 314 354 363 q 394 300 389 307 q 404 286 400 293 q 452 394 429 335 q 494 506 475 454 q 529 631 517 567 q 542 760 542 694 q 533 849 542 806 q 488 926 524 893 m 214 540 l 211 542 q 208 535 211 540 q 194 483 199 510 q 182 431 189 457 q 159 267 163 349 q 156 103 156 186 q 165 35 156 75 q 186 -29 174 -4 q 201 -18 194 -25 q 313 117 269 42 q 396 271 356 192 q 369 278 382 275 q 344 289 357 282 q 285 337 308 310 q 247 397 261 364 q 225 465 232 429 q 214 540 218 501 m 600 536 q 584 484 592 510 q 567 432 576 458 q 517 308 543 368 q 460 188 490 249 q 437 146 449 167 q 415 104 425 125 q 410 93 413 99 q 406 82 408 88 q 421 103 414 89 q 527 302 479 199 q 599 518 575 406 q 600 527 600 522 q 600 536 600 532 m 119 365 q 127 380 124 368 q 134 406 131 392 q 140 433 138 419 q 143 451 142 446 q 169 543 153 497 q 206 632 185 589 q 208 640 208 638 q 199 632 204 636 q 192 622 194 628 q 167 567 178 600 q 147 497 156 533 q 131 426 138 461 q 119 365 124 392 m 494 406 q 470 356 488 392 q 434 283 453 321 q 400 212 415 244 q 385 171 385 179 q 415 222 399 192 q 445 285 431 251 q 473 350 460 318 q 494 406 486 382 m 386 893 q 359 869 371 889 q 338 826 347 850 q 322 779 328 803 q 311 742 315 756 l 317 750 q 332 786 326 768 q 344 822 338 804 q 360 858 350 840 q 386 893 369 875 m 438 200 q 460 240 447 217 q 483 289 472 264 q 504 338 494 314 q 518 382 514 363 q 503 347 515 375 q 476 285 490 318 q 449 226 461 253 q 433 199 436 200 l 438 200 m 147 654 q 126 618 138 639 q 108 582 114 597 q 131 616 124 597 q 147 654 139 635 m 178 639 l 174 640 q 156 612 164 626 q 146 582 149 597 l 178 639 m 314 893 l 318 896 q 310 891 314 896 q 302 879 306 886 q 296 865 299 872 q 292 856 293 858 q 304 874 297 865 q 314 893 311 882 m 114 329 l 121 329 q 121 347 121 339 q 119 365 121 356 q 117 347 118 356 q 114 329 117 339 m 332 867 q 343 885 335 876 l 340 885 l 335 878 q 329 868 332 871 l 325 858 l 325 853 q 332 867 328 863 m 106 229 l 110 228 l 110 244 l 107 244 q 106 237 107 240 q 106 229 106 233 m 608 571 l 600 550 q 604 549 601 549 l 608 571 m 117 304 l 113 304 l 113 297 q 114 300 114 299 q 117 304 114 301 m 108 271 l 111 271 l 110 275 q 108 271 108 274 m 603 540 l 600 542 l 600 538 l 603 540 m 322 904 l 319 904 l 322 900 l 322 904 m 614 608 l 611 607 l 614 604 l 614 608 m 379 160 q 375 154 375 156 l 379 160 m 608 579 l 607 579 l 608 575 l 608 579 m 107 200 l 107 203 l 106 203 q 107 200 106 201 m 550 314 l 549 311 l 550 311 l 550 314 m 560 335 q 561 336 561 335 l 560 336 l 560 335 m 378 854 q 376 856 378 856 l 376 854 l 378 854 m 304 693 l 303 692 l 304 692 l 304 693 m 492 183 l 492 185 l 490 185 l 492 183 m 415 161 l 417 161 l 417 163 l 415 161 m 610 597 l 611 596 l 611 597 l 610 597 m 519 244 l 518 243 l 519 243 l 519 244 m 313 829 l 313 831 l 311 829 l 313 829 m 528 258 l 528 260 l 526 260 l 528 258 m 536 425 l 536 426 l 535 426 l 536 425 m 122 513 l 121 511 l 122 511 l 122 513 m 107 572 q 106 568 106 571 l 107 572 m 368 836 q 367 838 368 838 l 368 836 z "},"P":{"ha":738,"x_min":1,"x_max":868,"o":"m 338 358 q 308 190 319 275 q 297 21 297 106 q 301 -42 297 -11 q 307 -106 304 -74 q 258 -80 278 -97 q 226 -39 238 -62 q 208 12 214 -15 q 203 67 203 39 q 219 308 203 189 q 264 544 236 426 q 297 674 279 608 q 342 797 314 739 q 347 806 344 801 q 349 814 349 810 q 344 824 349 819 l 350 832 q 339 846 342 840 q 353 858 343 857 q 372 858 363 858 q 413 813 396 843 q 431 754 431 783 q 422 699 431 739 q 403 614 414 658 q 381 528 392 569 q 364 469 369 488 l 371 469 q 390 472 382 469 q 408 478 397 474 q 548 540 481 504 q 678 619 615 575 q 710 642 690 628 q 748 674 729 657 q 783 707 767 690 q 804 738 799 724 q 811 772 811 756 q 801 808 811 793 q 775 836 790 824 q 656 890 725 875 q 524 906 586 906 q 333 878 428 906 q 163 794 239 851 q 128 766 146 782 q 96 731 110 750 q 73 691 82 713 q 64 647 64 669 q 65 626 64 633 q 113 601 88 610 q 164 586 138 592 q 174 560 169 572 q 193 539 179 547 q 179 536 186 536 q 165 536 172 536 q 87 553 121 536 q 31 610 53 571 q 10 656 18 632 q 1 707 1 681 q 16 770 1 740 q 54 824 31 800 q 249 949 138 911 q 478 986 360 986 q 606 975 542 986 q 722 937 669 964 q 813 863 775 910 q 865 744 851 817 q 867 731 867 738 q 868 718 868 725 q 839 632 868 674 q 768 553 810 590 q 680 487 726 517 q 599 439 633 457 q 505 395 554 415 q 406 365 456 375 q 372 361 389 363 q 338 358 354 360 m 736 572 q 631 501 686 535 q 518 442 576 467 q 478 425 504 435 q 442 406 451 415 q 471 415 457 411 q 499 425 485 418 q 626 490 569 456 q 742 575 683 525 q 751 582 746 576 q 736 572 740 576 m 299 897 l 293 897 q 234 874 264 886 q 178 844 204 863 q 150 822 163 833 q 122 799 138 810 q 132 804 128 800 q 201 847 165 828 q 274 883 236 865 q 286 890 281 886 q 299 897 292 893 m 476 476 l 471 471 q 491 481 478 475 q 510 488 504 488 q 563 515 536 501 q 613 546 589 528 q 581 530 597 539 q 549 511 564 521 q 476 476 513 489 m 518 465 q 543 476 526 468 q 578 492 560 483 q 610 510 596 501 q 632 526 625 519 q 615 516 622 522 q 597 506 607 510 l 518 465 m 154 878 q 146 872 146 878 l 146 871 q 147 868 147 868 l 154 878 m 332 904 l 332 908 l 326 904 l 332 904 m 228 890 l 232 892 l 228 894 l 228 890 m 421 403 l 421 400 l 426 403 l 421 403 m 444 464 l 447 461 q 444 464 447 464 m 411 397 q 408 399 410 399 l 408 397 l 411 397 m 274 933 l 274 935 q 271 933 272 935 l 274 933 m 285 936 l 285 938 l 283 938 q 285 936 283 936 m 228 850 l 229 850 l 229 853 l 228 850 m 628 475 l 626 472 l 628 472 l 628 475 m 439 460 l 438 460 l 436 458 q 439 460 439 458 m 643 483 l 643 482 l 644 483 l 643 483 m 564 439 l 565 438 l 565 439 l 564 439 m 654 492 l 653 490 l 654 490 l 654 492 m 208 881 q 210 881 210 881 q 211 882 210 882 q 208 881 210 882 z "},"Q":{"ha":692,"x_min":-4,"x_max":767,"o":"m 392 1 q 444 -118 411 -62 q 487 -169 461 -147 q 529 -218 513 -190 q 510 -220 519 -219 q 490 -221 500 -221 q 442 -207 465 -221 q 397 -173 418 -193 q 360 -130 376 -153 q 332 -87 343 -107 q 324 -71 328 -79 q 313 -56 319 -62 q 279 -69 293 -62 q 252 -80 265 -75 q 224 -87 239 -85 q 186 -90 208 -90 q 110 -78 142 -90 q 46 -36 78 -67 q 4 35 13 -4 q -4 118 -4 75 q 0 182 -4 146 q 12 256 4 218 q 30 328 19 293 q 53 388 40 363 l 108 503 q 86 536 93 519 q 79 576 79 553 q 103 672 79 622 q 163 769 126 722 q 241 854 199 815 q 319 917 283 893 q 457 958 383 958 q 575 932 519 958 q 674 862 631 906 q 742 761 717 818 q 767 643 767 704 q 750 536 767 593 q 708 423 733 479 q 651 315 682 367 q 592 222 619 263 q 497 107 549 160 q 392 1 444 54 m 264 664 q 283 654 269 664 q 303 642 297 644 l 299 631 q 307 635 303 635 q 316 632 311 635 q 324 628 321 629 q 319 622 321 625 q 315 617 318 619 q 306 601 311 608 q 294 585 300 593 q 213 440 247 514 q 150 286 178 365 q 114 81 114 186 q 120 28 114 53 q 133 -22 126 4 q 208 4 174 -14 q 274 46 242 22 q 269 64 272 51 q 262 90 265 76 q 256 115 258 103 q 253 131 253 126 q 267 153 253 146 q 276 150 272 150 q 288 151 283 150 q 300 154 293 153 l 304 142 l 308 150 l 314 146 q 319 153 317 147 l 325 133 l 331 146 l 350 142 l 358 119 q 364 125 358 119 q 376 138 369 131 q 388 152 382 146 q 396 160 394 158 q 488 272 439 206 q 578 410 536 338 q 647 558 619 483 q 674 696 674 633 q 665 767 674 732 q 637 828 656 801 q 588 872 618 856 q 518 888 558 888 q 444 869 482 888 q 369 824 406 851 q 303 765 333 797 q 250 707 272 733 q 228 682 239 694 q 211 656 218 669 q 203 640 207 649 q 194 626 200 632 l 196 625 q 208 638 200 631 q 227 650 217 644 q 247 660 238 656 q 264 664 257 664 m 544 215 q 563 233 556 221 q 576 254 569 244 q 650 378 618 318 q 708 511 682 438 q 654 403 679 458 q 596 296 629 347 q 569 256 583 276 q 544 215 556 236 m 111 278 q 145 369 124 326 q 185 458 167 413 l 182 461 l 174 453 q 165 437 168 446 q 160 419 163 428 q 137 365 149 392 q 114 310 125 338 q 108 288 110 299 q 103 267 106 278 l 111 278 m 154 617 q 167 637 161 625 q 179 658 174 649 q 233 731 203 697 q 293 799 263 765 q 268 778 285 794 q 234 742 251 763 q 201 703 217 722 q 181 674 186 683 q 167 645 172 660 q 154 617 161 631 m 190 467 q 235 544 213 506 q 285 617 257 582 q 258 590 274 610 q 226 548 242 571 q 201 502 211 525 q 190 467 190 479 m 622 439 l 622 444 q 564 336 594 390 q 551 319 558 328 q 542 300 544 310 q 560 328 547 307 q 588 372 574 349 q 612 415 601 394 q 622 439 622 435 m 140 690 q 166 730 151 706 q 194 765 181 754 l 193 765 q 163 731 178 749 q 140 690 149 713 m 599 343 q 620 377 610 360 q 638 414 631 394 l 599 343 m 154 464 q 143 449 147 457 q 138 429 139 440 q 147 447 143 438 q 154 464 150 456 m 168 544 l 203 593 l 203 594 l 201 594 q 184 569 193 582 q 168 544 175 557 m 193 533 l 217 568 q 203 551 211 563 q 193 533 196 540 m 132 478 l 129 481 q 121 460 122 469 q 132 478 125 471 m 171 500 l 174 499 q 179 511 176 503 l 171 500 m 190 719 q 197 729 197 726 l 197 732 l 190 719 m 154 617 q 151 612 153 614 q 149 607 150 610 l 151 606 l 154 617 m 103 426 l 97 415 q 103 426 103 417 m 92 404 q 96 403 94 404 l 96 410 l 92 404 m 279 129 l 281 129 l 281 136 l 279 136 l 279 129 m 96 240 q 103 258 103 247 q 96 240 100 246 m 585 321 q 592 333 589 325 l 585 321 m 79 374 l 81 374 q 79 378 81 376 l 79 374 m 661 363 l 660 364 l 660 363 l 658 361 q 661 363 660 361 m 190 528 q 193 533 193 531 l 190 528 m 189 647 l 186 646 l 189 646 l 189 647 m 165 539 l 167 539 q 168 543 167 542 l 165 539 m 68 340 l 67 342 l 67 340 l 68 340 m 635 319 l 636 319 l 636 321 l 635 319 m 204 672 l 203 671 l 204 671 l 204 672 m 108 367 l 108 368 l 107 368 l 108 367 m 647 342 l 649 343 l 647 343 l 647 342 m 644 338 l 644 336 l 646 336 l 644 338 z "},"R":{"ha":738,"x_min":-40,"x_max":1043,"o":"m 308 676 l 322 671 l 315 649 l 317 647 l 326 661 l 339 660 l 333 638 l 347 651 l 361 640 q 362 632 361 636 q 363 624 363 628 q 360 593 363 608 q 354 563 357 578 l 311 375 l 308 354 l 317 354 q 347 363 325 354 q 392 384 368 372 q 439 407 417 396 q 471 424 461 418 q 522 453 489 433 q 593 497 556 472 q 670 551 631 522 q 742 608 710 579 q 794 663 774 636 q 814 713 814 690 q 810 727 814 721 q 800 739 806 733 q 743 776 778 761 q 670 799 708 790 q 593 812 632 808 q 524 815 554 815 q 399 806 463 815 q 276 776 336 797 q 161 723 215 756 q 65 643 107 690 q 38 605 51 628 q 24 561 24 582 q 32 544 24 550 q 49 535 40 539 q 73 521 65 526 q 85 510 81 515 q 93 498 89 504 q 110 483 97 492 q 89 479 99 479 q 41 492 64 479 q 0 524 18 504 q -29 567 -18 543 q -40 615 -40 592 q -26 669 -40 642 q 66 773 4 731 q 201 841 128 815 q 353 878 275 867 q 493 890 431 890 q 588 885 540 890 q 681 866 636 881 q 765 826 725 851 q 835 763 804 801 q 867 705 854 736 q 879 640 879 674 q 869 594 879 614 q 843 554 860 574 q 758 474 813 518 q 640 390 703 431 q 514 315 576 349 q 407 265 451 281 l 444 210 q 486 156 464 182 q 531 106 508 131 q 627 7 574 57 q 738 -75 681 -43 q 787 -100 761 -89 q 838 -122 813 -111 q 851 -128 844 -125 q 865 -133 858 -131 q 944 -149 904 -146 q 1025 -153 985 -153 q 1043 -158 1036 -153 q 969 -194 1006 -185 q 889 -204 933 -204 q 711 -165 799 -204 q 545 -65 624 -126 q 402 72 467 -3 q 294 219 338 147 l 290 214 q 286 131 286 172 q 289 87 286 106 q 297 51 292 68 q 309 16 301 33 q 328 -22 317 -1 q 315 -23 321 -22 q 301 -24 308 -24 q 272 -19 286 -24 q 217 11 238 -10 q 186 59 197 32 q 172 117 175 86 q 168 181 168 149 q 172 245 168 206 q 181 331 175 285 q 194 425 186 376 q 213 517 203 474 q 235 597 224 561 q 260 654 247 633 q 271 672 264 661 q 289 682 278 682 q 301 676 293 682 q 291 659 294 668 q 285 639 288 650 l 308 676 m 757 514 q 789 544 774 529 q 819 575 804 560 l 821 579 q 781 543 801 560 q 739 510 760 526 q 649 442 694 474 q 554 382 603 411 q 524 364 539 372 q 493 346 508 356 q 474 337 485 342 q 456 326 464 332 q 451 322 453 324 q 446 317 449 319 q 608 405 528 357 q 757 514 688 453 m 326 600 l 324 601 q 290 476 304 539 q 269 350 276 414 l 326 600 m 44 663 q 97 704 69 686 q 149 746 124 722 q 146 745 147 746 q 143 744 144 744 q 115 730 131 740 q 83 707 99 719 q 56 681 68 694 q 39 654 43 667 l 44 663 m 706 547 q 687 532 696 539 q 667 518 678 525 q 626 488 646 503 q 585 458 606 472 l 519 417 q 622 478 572 444 q 717 551 672 513 l 706 547 m 608 442 q 634 456 618 446 q 666 478 650 467 q 697 501 682 489 q 719 521 711 513 q 663 483 689 506 q 608 442 636 461 m 89 761 q 71 748 79 754 q 56 735 63 742 q 74 747 63 739 q 89 761 86 754 m 85 728 q 88 731 86 731 q 92 735 89 732 q 72 722 81 729 q 54 706 63 714 q 69 717 63 711 q 85 728 76 722 m 492 401 l 511 413 q 499 410 504 411 q 492 401 494 408 m 268 597 l 265 599 q 260 583 263 594 l 268 597 m 329 618 q 332 617 331 617 l 332 622 l 329 618 m 254 558 l 253 557 l 253 554 l 254 554 l 254 558 m 514 414 l 519 417 q 514 414 517 417 m 736 533 q 744 539 742 536 l 736 533 m 251 543 l 251 546 q 250 543 250 546 l 251 543 m 258 571 l 256 568 l 257 567 q 258 571 257 569 m 157 751 l 156 751 q 153 750 154 750 q 157 751 156 750 m 526 389 l 525 389 q 522 388 524 388 q 526 389 525 388 m 493 371 l 493 372 l 492 372 l 493 371 m 746 486 l 747 488 q 746 486 746 488 m 272 615 l 271 614 l 272 614 l 272 615 m 328 610 l 326 608 l 328 608 l 328 610 m 679 436 q 678 435 678 436 l 679 436 m 719 465 q 721 466 721 465 q 722 467 721 467 q 719 465 721 467 z "},"S":{"ha":542,"x_min":-28,"x_max":586,"o":"m 419 600 l 407 603 q 406 608 406 604 q 409 618 406 615 q 415 624 413 621 q 469 701 450 656 q 488 793 488 746 q 472 849 488 821 q 424 876 457 876 q 410 875 414 876 q 340 849 372 868 q 283 803 307 831 q 244 742 258 776 q 229 671 229 708 q 244 599 229 635 q 280 529 258 563 q 326 465 301 496 q 369 408 350 433 q 381 411 375 411 q 391 408 382 411 q 410 402 400 406 q 428 395 419 399 q 440 390 438 392 q 425 369 433 379 q 408 349 417 360 q 410 346 410 347 q 411 342 410 344 q 444 283 431 308 q 471 219 458 257 q 488 153 482 188 q 494 83 494 118 q 494 70 494 76 q 493 57 494 64 q 463 -67 488 -10 q 399 -169 439 -124 q 306 -245 360 -214 q 189 -290 253 -276 q 154 -294 172 -294 q 38 -260 88 -294 q -26 -160 -12 -226 q -28 -143 -28 -154 q -25 -118 -28 -129 q -18 -94 -22 -107 q 64 93 13 -1 q 182 263 115 188 q 223 306 201 285 q 265 346 244 326 q 276 356 271 351 q 288 364 281 361 q 274 390 281 376 q 258 415 267 403 q 212 481 238 447 q 163 551 186 515 q 125 626 140 588 q 110 706 110 665 q 129 799 110 754 q 182 878 149 844 q 260 933 215 913 q 353 954 304 954 q 428 940 390 954 q 493 901 465 926 q 528 869 511 886 q 560 832 544 851 q 586 758 586 799 q 560 661 586 710 q 494 585 533 613 q 480 575 488 579 q 464 571 472 571 q 441 579 451 571 q 418 590 431 588 l 419 600 m 332 278 l 315 263 q 242 176 279 228 q 179 81 204 124 q 96 -103 129 -7 q 89 -128 92 -115 q 86 -153 86 -140 q 89 -180 86 -168 q 107 -197 92 -192 q 144 -204 128 -204 q 168 -200 154 -204 q 197 -190 182 -196 q 224 -176 211 -183 q 247 -164 238 -169 q 301 -117 278 -147 q 338 -49 324 -86 q 360 26 353 -12 q 367 99 367 65 q 356 190 367 146 q 332 278 344 233 m 438 -24 q 453 26 447 0 q 458 78 458 51 q 457 103 458 90 q 453 126 456 115 q 447 51 450 89 q 438 -24 443 14 m 207 751 q 233 793 219 772 q 261 835 247 814 q 226 799 240 819 q 207 751 211 778 m 538 688 q 516 653 526 671 q 493 619 506 636 l 490 614 q 520 646 506 621 q 538 688 535 671 m 71 -68 q 66 -83 69 -72 q 58 -106 63 -94 q 51 -127 54 -117 q 49 -142 49 -137 q 49 -148 49 -144 q 50 -156 50 -151 q 63 -110 57 -133 q 74 -65 68 -87 l 71 -68 m 383 8 q 394 31 392 14 q 396 57 396 47 q 397 67 396 61 q 394 75 397 72 q 390 42 392 58 q 383 8 388 25 m 419 31 q 426 58 426 40 q 426 71 426 65 q 424 83 425 76 l 419 31 m 200 801 q 217 831 214 811 q 208 816 211 824 q 200 801 204 808 m 8 -111 q 0 -126 0 -115 q 1 -133 0 -129 q 1 -139 1 -136 l 8 -111 m 194 847 l 167 807 l 171 808 q 185 831 178 818 q 199 850 192 843 l 194 847 m 31 -121 q 25 -136 26 -128 q 31 -137 26 -137 l 31 -121 m 494 650 q 488 643 488 647 l 488 639 l 494 650 m 10 -99 l 7 -99 q 8 -107 7 -104 q 10 -99 8 -101 m 472 40 l 469 39 q 471 33 471 38 q 472 39 472 35 l 472 40 m 31 -121 l 33 -115 l 31 -115 l 31 -121 m 383 8 l 383 1 l 385 1 q 383 8 385 6 m 83 -44 q 81 -42 83 -42 l 81 -46 q 83 -44 82 -44 m 475 75 l 474 75 l 474 71 l 475 71 l 475 75 m 19 -65 l 18 -65 l 18 -68 l 19 -68 l 19 -65 m 192 785 l 192 786 q 190 785 190 786 l 192 785 m 36 -101 q 35 -100 36 -100 l 35 -101 l 36 -101 m 196 796 q 194 793 194 794 q 196 796 196 794 m 206 854 q 203 853 204 853 q 207 854 206 853 l 206 854 m 435 -32 l 433 -33 l 435 -33 l 435 -32 m 243 779 l 244 781 l 243 781 l 243 779 z "},"T":{"ha":428,"x_min":-24,"x_max":989,"o":"m 335 821 q 272 806 307 814 q 200 790 236 797 q 129 778 164 783 q 67 772 94 772 q 33 778 43 772 q 4 794 24 785 q -3 806 1 799 q -12 823 -7 814 q -20 840 -17 832 q -24 850 -24 847 q -10 868 -24 868 q 15 868 4 868 q 57 872 36 868 q 99 881 78 876 l 260 915 q 529 973 394 944 q 803 1001 664 1001 q 838 999 815 1001 q 883 994 860 997 q 926 987 906 992 q 957 976 946 982 l 975 932 l 988 928 l 989 925 l 965 919 q 926 915 946 915 q 886 911 906 914 q 790 901 838 906 q 693 890 742 897 q 583 874 638 883 q 474 853 528 864 q 479 835 479 846 q 475 810 479 826 q 465 778 471 794 q 452 745 458 761 q 443 719 446 729 l 375 507 q 356 442 364 475 q 339 376 347 408 q 303 242 321 308 q 275 106 286 175 q 263 19 268 63 q 251 -68 257 -24 q 247 -131 247 -100 q 256 -224 247 -181 q 281 -314 265 -267 l 279 -317 q 258 -310 265 -311 q 230 -299 239 -304 q 208 -278 221 -293 q 158 -176 168 -232 q 147 -62 147 -121 q 160 110 147 18 q 192 297 172 203 q 235 483 211 392 q 282 651 258 574 q 294 690 286 665 q 312 739 303 714 q 328 787 321 764 q 335 821 335 810 z "},"U":{"ha":999,"x_min":7,"x_max":1072,"o":"m 149 644 q 65 665 104 644 q 8 728 26 686 q 7 736 7 731 l 7 749 q 44 737 26 743 q 81 731 61 731 q 145 740 111 731 q 214 765 179 750 q 281 797 249 779 q 338 829 313 814 q 406 874 372 851 q 475 919 440 896 q 508 940 492 931 q 542 961 525 950 q 556 970 549 967 q 572 978 564 974 q 597 956 585 967 q 624 935 610 944 q 639 913 628 922 q 650 889 650 904 q 644 870 650 883 q 629 842 638 857 q 613 814 621 828 q 601 792 606 800 q 535 627 564 711 q 482 457 506 543 q 460 376 471 417 q 443 294 450 335 q 434 231 436 263 q 429 167 432 199 q 428 153 428 160 q 428 139 428 146 q 431 97 428 118 q 442 56 435 75 q 453 47 442 47 q 466 51 460 47 q 479 60 472 56 q 562 135 521 90 q 642 228 603 179 q 715 327 681 276 q 776 421 749 378 q 794 458 788 439 q 807 497 800 478 q 840 605 825 553 q 872 707 854 657 q 911 806 889 757 q 967 904 933 854 q 986 931 978 919 q 1015 944 994 942 q 1024 935 1017 939 l 1011 918 l 1014 917 l 1031 931 l 1040 922 l 1040 911 l 1057 908 l 1057 899 l 1069 886 q 1072 869 1072 875 q 1067 843 1072 856 q 1058 818 1063 831 q 997 643 1026 731 q 939 467 967 556 q 894 309 915 388 q 851 151 872 231 q 830 52 839 101 q 814 -49 821 3 q 807 -102 810 -76 q 804 -156 804 -128 q 812 -240 804 -204 q 832 -319 819 -275 q 838 -335 833 -328 q 780 -317 806 -333 q 735 -276 754 -300 q 701 -189 707 -240 q 694 -93 694 -137 q 707 47 694 -22 q 726 186 719 115 q 651 94 692 138 q 565 10 610 50 q 538 -8 551 -1 q 506 -14 525 -14 q 494 -13 500 -14 q 483 -12 489 -12 q 464 -15 475 -12 q 396 14 424 -7 q 351 65 368 35 q 326 131 333 94 q 318 204 318 167 q 324 281 318 235 q 338 374 329 326 q 356 467 346 422 q 375 543 365 513 l 438 740 q 444 758 440 750 q 449 776 447 765 q 422 760 435 769 q 397 743 410 751 q 342 710 374 728 q 278 678 311 693 q 211 654 244 664 q 149 644 178 644 m 739 257 q 694 196 718 225 q 650 135 671 167 l 667 156 l 689 179 q 717 215 704 196 q 742 253 731 233 l 739 257 m 876 407 l 879 408 q 892 452 885 431 q 906 496 899 474 q 931 573 918 535 q 957 651 944 611 l 928 576 l 917 544 l 913 531 l 911 526 q 894 467 901 499 q 876 408 888 436 l 876 407 m 761 361 q 736 324 750 342 q 710 286 722 306 l 632 181 q 660 215 640 189 q 702 270 681 240 q 741 326 724 300 q 761 361 758 353 m 876 407 q 869 383 874 394 q 861 360 865 371 q 873 382 871 371 q 876 407 875 393 m 843 286 q 846 290 846 289 q 849 294 846 292 q 843 297 847 297 l 843 286 m 838 257 q 843 283 843 271 q 840 271 842 281 q 838 258 838 261 l 838 257 m 603 82 q 610 92 606 88 q 617 100 614 96 l 607 92 l 603 82 m 972 700 q 969 694 971 697 q 968 688 968 690 l 967 685 l 968 686 q 972 692 969 689 q 975 699 974 696 l 972 700 m 761 363 q 768 367 764 363 q 767 368 768 368 q 767 369 767 368 l 761 363 m 826 218 l 829 218 l 829 224 l 826 224 l 826 218 m 833 250 l 835 249 q 838 257 838 254 l 833 250 m 853 317 q 856 324 856 319 l 853 324 l 853 317 m 618 172 q 615 158 615 164 q 618 172 618 167 m 818 186 l 819 186 l 819 192 l 818 192 l 818 186 m 811 156 l 814 156 l 814 158 l 811 158 l 811 156 m 831 233 l 832 233 l 832 239 l 831 239 l 831 233 m 610 157 q 607 151 607 154 l 610 156 l 613 157 l 610 157 m 851 308 l 851 313 l 849 310 l 851 308 m 864 349 q 861 351 861 349 q 860 350 861 350 q 860 349 860 350 l 864 349 m 565 108 q 571 113 567 108 l 565 108 m 629 110 q 621 104 624 110 l 629 110 m 574 53 q 568 51 569 53 q 574 53 572 51 m 815 174 l 817 174 l 817 176 l 815 176 l 815 174 m 606 150 q 604 147 606 150 q 606 150 606 149 m 549 90 q 550 92 550 90 l 549 92 l 549 90 m 583 63 l 589 65 l 588 65 l 583 63 m 725 267 l 725 268 q 724 267 724 268 l 725 267 m 404 783 l 406 783 q 404 785 406 785 l 404 783 m 599 143 q 596 140 599 143 q 599 143 599 143 m 583 61 q 581 58 583 61 l 583 61 m 961 665 l 957 651 l 961 665 m 910 525 q 911 526 911 525 l 910 525 z "},"V":{"ha":747,"x_min":11,"x_max":881,"o":"m 389 675 q 324 653 357 669 q 260 626 290 638 q 180 599 224 614 q 99 585 136 585 q 69 591 85 585 q 42 607 54 597 q 21 630 29 617 q 11 658 13 643 q 18 660 13 660 q 33 658 25 660 q 49 657 42 657 q 113 665 78 657 q 185 686 149 674 q 257 713 222 699 q 318 739 292 726 q 340 750 324 742 q 373 767 356 758 q 404 782 390 775 q 422 789 418 789 q 444 778 431 789 q 468 753 457 768 q 488 724 479 739 q 496 701 496 710 q 490 665 496 690 q 482 628 483 640 q 460 513 471 569 q 433 397 449 456 q 408 298 421 347 q 385 199 396 249 l 358 76 q 351 44 356 61 q 346 11 346 26 q 366 22 356 18 q 386 33 376 26 q 504 153 446 74 q 612 328 563 233 q 699 519 661 424 q 758 689 738 615 q 779 773 769 731 q 789 860 789 815 q 785 923 789 892 q 771 986 782 954 q 756 1024 764 1006 q 743 1063 749 1043 l 747 1064 q 768 1050 758 1057 q 788 1033 778 1043 q 855 933 829 993 q 881 815 881 874 q 873 707 881 761 q 850 600 865 653 q 799 452 829 528 q 732 302 769 376 q 652 159 694 228 q 564 31 610 90 q 444 -67 517 -32 q 416 -78 431 -74 q 386 -83 401 -83 q 344 -75 365 -83 q 303 -53 322 -67 q 270 -21 285 -39 q 249 17 256 -3 q 244 39 244 28 q 243 61 243 50 q 249 125 243 94 q 261 188 254 156 l 306 374 q 333 477 318 426 q 363 579 347 528 q 378 627 369 603 q 389 675 386 651 m 783 508 l 783 510 q 780 503 782 506 q 775 497 778 500 q 764 476 768 488 q 756 454 760 465 q 735 408 744 431 q 715 361 726 385 q 664 265 692 313 q 607 172 636 218 q 558 96 582 133 q 503 24 533 58 q 497 15 500 21 q 563 86 528 39 q 632 188 599 133 q 692 297 665 243 q 735 388 719 350 l 783 508 m 581 221 q 533 155 557 188 q 488 86 508 122 q 511 109 497 90 q 540 151 525 128 q 567 197 554 175 q 586 229 579 218 q 597 244 592 236 q 604 261 601 251 q 592 241 601 256 q 581 221 582 226 m 550 124 q 531 99 540 111 q 511 72 521 86 q 527 85 518 75 q 544 108 536 94 q 560 136 553 122 q 575 161 568 150 q 560 137 567 147 q 550 124 553 126 m 615 226 q 603 206 614 222 q 581 169 593 189 q 583 172 581 169 q 602 199 590 183 q 617 226 614 214 l 618 229 l 615 226 m 638 314 q 640 324 640 319 q 636 318 636 321 l 636 317 q 638 314 638 314 m 613 274 q 608 267 610 271 q 604 261 606 264 q 613 272 610 265 l 614 274 l 613 274 m 649 281 q 653 286 653 282 l 653 290 l 649 281 m 626 242 q 630 248 628 244 q 635 254 632 251 l 633 254 q 626 242 629 250 m 624 239 q 626 242 624 239 q 624 239 626 242 m 464 61 q 465 63 464 63 q 465 64 465 63 q 463 61 465 64 l 464 61 m 665 368 l 664 369 l 664 368 l 665 368 z "},"W":{"ha":836,"x_min":40,"x_max":933,"o":"m 896 1081 q 925 987 917 1036 q 933 889 933 938 q 926 748 933 815 q 907 615 919 681 q 877 483 894 549 q 838 349 860 418 q 800 242 819 292 q 772 181 789 214 q 733 117 754 149 q 688 56 711 85 q 642 7 664 26 q 594 -24 621 -12 q 539 -36 568 -36 q 471 -19 501 -36 q 417 26 440 -1 q 390 83 397 50 q 383 146 383 115 q 342 95 368 126 q 284 33 315 64 q 221 -19 253 3 q 164 -42 189 -42 q 143 -57 156 -57 q 102 -45 121 -57 q 69 -15 83 -33 q 48 24 56 3 q 40 65 40 46 q 42 109 40 83 q 49 160 44 135 q 58 211 53 186 q 69 254 64 236 q 156 469 104 367 q 267 674 208 572 l 268 682 q 208 659 242 671 q 146 647 174 647 q 123 652 136 647 q 97 665 110 657 q 76 684 85 674 q 68 706 68 694 q 69 714 68 711 q 186 740 131 718 q 293 794 242 763 q 326 816 310 806 q 363 833 343 826 q 385 822 372 829 q 408 805 397 814 q 427 785 419 796 q 435 761 435 774 q 429 741 435 756 q 416 710 424 726 q 401 679 408 694 q 390 657 393 664 q 315 497 351 575 q 248 339 279 418 q 192 177 217 260 q 149 4 167 94 l 153 1 q 168 11 157 6 q 228 62 194 28 q 296 135 263 96 q 358 215 329 175 q 401 282 386 254 q 413 309 408 296 q 424 338 418 322 q 463 446 443 392 q 524 544 483 500 q 541 560 531 551 q 563 568 551 568 q 576 565 569 568 q 589 558 582 561 l 592 550 l 597 550 l 604 553 l 604 546 q 599 532 604 543 q 586 508 593 521 q 573 484 579 496 q 564 467 567 472 q 534 392 547 433 q 509 308 521 351 q 489 221 497 264 q 475 140 481 178 l 475 136 q 478 128 475 131 q 522 319 496 219 q 592 503 549 419 l 613 543 l 629 535 q 614 481 626 507 q 593 428 601 454 q 565 337 579 386 q 538 237 550 288 q 517 136 525 186 q 510 43 510 86 q 510 40 510 40 q 511 36 511 39 q 550 60 531 43 q 585 92 569 76 q 671 208 633 144 q 735 339 708 272 q 780 472 758 400 q 818 618 801 543 q 844 767 835 693 q 854 907 854 842 q 851 985 854 950 q 840 1053 849 1021 q 815 1117 832 1086 q 771 1183 799 1149 q 758 1201 767 1189 q 749 1218 749 1213 q 790 1199 772 1211 q 825 1171 807 1188 q 865 1129 846 1151 q 896 1081 883 1107 m 613 518 q 614 517 613 517 l 614 518 l 613 518 m 599 490 l 600 490 l 600 492 l 599 490 m 597 485 q 599 483 597 483 l 599 485 l 597 486 l 597 485 m 594 478 q 596 479 596 478 l 594 479 l 594 478 m 583 454 q 583 453 583 453 q 582 451 582 453 l 583 453 l 583 454 m 524 431 q 531 450 526 440 q 540 471 535 460 q 532 455 536 463 q 525 439 528 447 q 524 431 524 438 m 528 504 q 506 472 515 489 q 490 438 497 456 l 493 436 q 511 470 503 453 q 528 504 519 488 m 274 510 q 272 500 272 507 q 301 549 288 519 q 325 601 314 578 q 366 673 343 638 q 400 747 389 708 l 397 749 q 363 688 376 719 q 332 624 349 656 q 301 567 317 596 q 274 510 285 539 m 272 499 q 249 454 257 478 q 231 407 240 431 l 272 496 l 272 499 m 193 324 l 194 321 q 196 325 194 324 l 193 324 m 190 314 q 188 306 188 308 l 193 313 l 190 314 m 175 265 l 176 265 l 176 267 l 175 265 m 465 239 l 464 239 q 465 238 464 238 l 465 239 m 472 263 l 471 264 l 471 263 l 472 263 m 472 275 l 474 274 l 474 275 l 472 275 m 475 117 l 474 117 l 474 111 l 475 113 l 475 117 m 822 467 l 824 467 l 824 468 l 822 467 m 815 442 l 817 442 l 817 443 l 815 443 l 815 442 m 813 435 l 814 435 l 813 436 l 813 435 m 806 488 l 807 488 l 806 489 l 806 488 m 804 403 l 806 404 l 804 404 l 804 403 m 792 368 q 790 358 790 365 q 792 363 792 361 q 794 367 792 364 l 792 368 m 776 397 l 779 393 q 778 397 779 396 l 776 397 m 774 315 l 775 317 l 775 318 l 774 317 l 774 315 m 764 292 q 761 286 764 289 q 758 279 760 283 q 756 274 757 275 q 753 265 756 271 l 758 272 q 760 279 758 276 q 763 285 763 282 q 764 290 764 286 q 765 296 764 293 l 764 292 m 760 344 q 751 320 760 340 q 731 276 742 300 q 710 230 719 251 q 696 203 700 208 q 713 233 703 213 q 733 274 724 253 q 751 316 743 296 q 761 346 758 336 l 760 344 m 775 219 l 774 219 l 775 218 l 775 219 m 778 225 q 776 226 778 226 l 776 225 l 778 225 m 781 232 l 779 231 l 781 231 l 781 232 m 804 289 l 803 289 l 804 288 l 804 289 m 811 306 l 810 307 l 810 306 l 811 306 m 813 313 l 811 313 l 811 311 l 813 313 m 876 597 q 872 586 875 596 q 810 366 844 475 q 718 157 776 257 q 705 135 711 146 q 693 114 699 125 q 756 206 726 144 q 808 337 785 267 q 849 476 832 407 q 876 589 867 544 l 876 597 m 882 618 l 879 619 q 876 607 876 611 l 879 606 l 882 618 m 885 626 l 882 629 l 882 626 l 885 626 m 886 640 l 885 642 q 883 638 883 640 l 886 640 m 888 654 q 886 651 886 653 l 888 650 l 888 654 m 889 661 q 890 664 889 663 l 889 664 l 889 661 m 894 703 l 893 703 q 894 700 893 701 l 894 703 z "},"X":{"ha":585,"x_min":-19,"x_max":693,"o":"m 675 803 l 682 806 l 679 803 l 693 792 q 673 763 685 776 q 651 735 661 750 q 533 524 586 632 q 426 308 479 417 q 424 300 424 303 q 438 255 424 292 q 470 176 451 218 q 506 96 489 133 q 531 46 524 58 q 555 7 542 26 q 583 -29 568 -12 q 615 -51 597 -44 q 653 -64 633 -58 q 634 -81 651 -78 q 607 -83 617 -83 q 526 -54 563 -83 q 461 16 490 -25 q 409 103 432 57 q 369 182 386 149 q 358 152 364 167 q 344 122 351 138 q 274 -62 308 31 q 225 -253 240 -156 q 218 -335 218 -293 q 215 -417 218 -376 l 213 -417 l 207 -407 q 192 -405 204 -404 q 174 -404 181 -406 q 149 -385 158 -401 q 135 -349 140 -369 q 127 -309 129 -329 q 125 -276 125 -289 q 146 -143 125 -222 q 197 20 167 -64 q 260 182 228 104 q 318 311 293 260 q 242 552 276 425 q 199 801 207 679 q 133 758 165 781 q 68 715 101 736 q 55 708 61 711 q 40 706 49 706 q 18 711 29 706 q -4 721 7 717 l -4 728 l -18 732 q -19 738 -19 733 q -6 754 -19 742 q 30 783 8 767 q 76 819 51 800 q 125 856 101 839 q 167 887 149 874 q 193 904 186 900 q 217 913 206 913 q 262 899 236 913 q 301 871 288 886 q 310 858 307 865 q 315 843 313 850 q 318 824 318 833 q 319 803 318 814 q 339 625 326 714 q 376 450 351 536 l 379 442 q 407 490 394 465 q 433 540 419 515 q 476 619 454 581 q 519 697 497 657 q 541 735 528 711 q 570 781 554 758 q 604 819 586 803 q 639 839 622 836 l 676 813 l 675 803 m 354 219 l 350 221 q 338 196 343 210 q 328 169 333 182 q 290 73 313 132 q 244 -50 267 14 q 207 -174 222 -114 q 192 -274 192 -235 q 195 -256 194 -265 q 197 -239 196 -247 q 223 -131 206 -185 q 260 -26 240 -78 q 290 53 275 14 q 321 131 306 92 q 340 174 331 153 q 354 219 350 196 m 408 342 l 411 342 q 526 569 468 457 q 656 788 583 682 q 632 760 647 782 q 597 706 617 738 q 557 638 578 675 q 517 567 536 601 q 484 505 499 532 q 464 465 469 478 q 451 440 461 458 q 432 402 442 422 q 415 365 422 382 q 408 342 408 347 m 329 276 q 324 272 325 276 l 243 76 q 236 57 239 67 q 229 36 233 47 l 233 42 q 246 72 240 54 q 258 104 251 89 l 306 218 q 319 247 313 232 q 329 276 326 263 m 343 244 l 338 247 q 307 176 322 211 q 281 104 292 142 l 343 244 m 617 803 q 576 751 601 789 q 525 668 551 713 q 476 581 499 624 q 444 518 454 539 q 536 681 488 599 q 559 721 547 700 q 585 761 571 742 l 617 803 m 472 524 q 436 451 454 488 q 399 378 418 414 l 403 375 q 439 451 421 414 q 476 526 457 489 l 472 524 m 390 404 q 407 442 399 424 q 426 478 415 460 l 428 482 q 417 466 424 476 q 405 444 411 456 q 394 421 399 432 q 390 404 390 410 m 560 681 q 579 709 571 693 q 597 740 588 725 l 560 681 m 260 51 q 253 36 256 44 q 246 21 250 28 q 255 34 253 22 q 260 51 257 46 m 522 614 q 532 630 526 618 q 540 650 538 642 q 531 632 535 642 q 522 614 528 622 m 511 592 q 503 578 506 588 q 511 592 510 585 m 638 793 l 635 796 l 629 785 l 638 793 m 621 775 q 610 758 613 764 q 621 775 613 764 m 483 540 l 486 544 l 486 547 q 483 540 483 544 m 169 -151 q 168 -144 169 -147 l 168 -151 l 169 -151 m 174 -131 l 175 -131 l 175 -125 q 174 -131 174 -126 m 194 -61 l 196 -61 l 196 -56 q 194 -61 194 -57 m 206 -111 l 203 -111 l 203 -115 l 206 -111 m 199 -131 l 197 -131 l 197 -135 l 199 -135 l 199 -131 m 192 -72 l 193 -72 l 193 -68 l 192 -68 l 192 -72 m 168 -144 l 172 -142 l 171 -140 l 168 -144 m 182 -104 l 183 -100 l 182 -99 l 182 -104 m 193 -153 l 192 -153 l 192 -156 l 193 -156 l 193 -153 m 508 507 l 508 508 q 507 507 507 508 l 508 507 m 457 406 l 456 406 q 457 404 456 404 l 457 406 m 301 47 q 300 49 301 49 l 300 47 l 301 47 m 201 -122 q 202 -121 201 -121 q 203 -119 203 -121 l 200 -122 l 201 -122 m 603 749 l 603 750 q 600 746 603 749 l 603 749 m 221 -64 q 219 -61 219 -62 l 219 -64 l 221 -64 m 625 718 l 624 718 l 625 717 l 625 718 m 490 472 l 489 471 l 490 471 l 490 472 m 629 785 q 626 782 629 785 q 629 785 629 785 m 492 557 q 489 554 489 554 q 492 557 489 554 m 453 399 l 454 400 l 453 400 l 453 399 m 343 154 l 342 153 l 343 153 l 343 154 m 640 743 l 639 742 l 640 742 l 640 743 m 328 117 l 328 118 l 326 118 l 328 117 m 344 161 l 346 161 l 346 163 l 344 161 m 558 603 l 560 604 l 558 604 l 558 603 m 561 608 l 563 610 l 561 610 l 561 608 m 186 -90 l 186 -89 l 185 -89 l 186 -90 m 421 329 l 421 331 l 419 331 l 421 329 m 194 -143 l 196 -144 l 196 -143 l 194 -143 m 633 733 l 633 732 l 635 732 l 633 733 m 308 72 l 310 71 l 310 72 l 308 72 m 324 111 l 325 110 l 325 111 l 324 111 m 358 189 l 357 190 l 357 189 l 358 189 m 493 478 l 492 478 l 493 476 l 493 478 m 321 103 l 321 101 l 322 101 l 321 103 m 349 168 l 347 168 l 349 167 l 349 168 m 449 388 l 447 388 l 447 386 l 449 388 m 597 674 l 597 672 l 599 672 l 597 674 m 217 -75 l 217 -74 l 215 -74 l 217 -75 m 165 -162 l 164 -162 l 165 -164 l 165 -162 m 329 125 l 331 125 l 331 126 l 329 125 m 293 32 l 294 32 l 294 33 l 293 32 m 607 754 q 610 758 607 756 q 607 754 607 756 m 597 740 q 600 744 597 742 q 597 740 597 742 z "},"Y":{"ha":603,"x_min":-14,"x_max":683,"o":"m 675 764 q 683 746 683 757 q 681 733 683 743 q 674 713 678 724 q 665 692 669 703 q 660 678 661 682 q 619 565 639 621 q 583 450 599 508 l 519 215 q 504 154 511 185 q 489 92 497 124 q 471 24 481 57 q 450 -43 461 -10 q 419 -134 435 -89 q 389 -225 404 -179 q 370 -277 379 -251 q 349 -328 361 -303 q 312 -400 333 -360 q 263 -476 290 -440 q 201 -537 235 -512 q 126 -562 167 -562 q 77 -552 100 -562 q 35 -524 54 -542 q 15 -490 18 -508 q 11 -449 11 -471 q 24 -367 11 -407 q 57 -290 36 -326 q 106 -220 78 -253 q 163 -160 133 -187 q 205 -124 181 -143 q 251 -94 229 -104 l 244 -110 l 264 -103 l 263 -118 l 275 -112 q 271 -119 271 -117 l 271 -124 l 285 -121 q 303 -83 296 -103 q 317 -43 310 -62 q 340 22 328 -11 q 363 88 353 54 q 378 142 371 115 q 392 197 385 169 q 406 253 399 225 q 421 310 414 282 q 392 280 415 306 q 341 223 368 254 q 290 163 314 192 q 257 125 265 133 q 233 99 249 117 q 199 63 217 81 q 163 33 181 46 q 135 19 146 19 q 117 22 128 19 q 43 67 68 33 q 18 151 18 101 q 27 232 18 185 q 51 331 36 279 q 86 439 67 383 q 128 545 106 494 q 172 638 150 596 q 214 707 194 679 q 181 696 201 703 q 140 681 161 689 q 99 669 118 674 q 67 664 79 664 q 40 670 54 664 q 14 687 26 676 q -6 710 1 697 q -14 736 -14 724 q -11 744 -14 740 q -3 749 -8 749 q 10 746 4 749 q 24 743 17 743 q 62 749 39 743 q 109 765 85 756 q 156 785 133 775 q 194 801 179 794 q 249 826 217 811 q 304 843 282 840 q 322 826 311 836 q 343 806 333 817 q 360 785 353 796 q 367 763 367 774 q 351 710 367 739 q 324 660 335 681 q 265 535 292 597 q 232 453 253 506 q 190 344 211 401 q 155 235 169 288 q 140 154 140 183 q 301 324 224 238 q 454 503 379 411 q 470 522 463 513 q 485 543 478 532 q 499 575 493 558 q 513 608 506 592 q 558 710 532 658 q 621 803 585 763 q 629 808 626 808 q 635 806 632 808 q 642 800 639 803 q 637 794 639 797 q 635 788 635 790 l 647 794 q 656 789 651 792 q 657 781 660 786 l 669 776 l 668 763 l 675 764 m 250 596 l 251 596 l 250 597 l 250 596 m 229 551 l 231 553 l 231 554 l 229 553 l 229 551 m 226 543 l 228 542 l 228 543 l 226 543 m 196 475 q 194 472 194 474 q 196 474 196 472 l 196 475 m 186 447 l 188 447 l 186 449 l 186 447 m 181 428 l 182 431 l 181 432 l 181 428 m 163 388 l 165 386 q 167 393 167 389 l 163 388 m 147 339 l 149 338 l 149 339 l 147 339 m 186 94 l 185 97 l 181 93 l 183 93 l 186 94 m 294 -185 l 296 -187 l 300 -187 l 294 -185 m 321 -214 q 304 -241 310 -225 q 293 -272 299 -257 l 303 -264 q 312 -239 308 -251 q 321 -214 315 -226 m 129 -276 q 124 -285 126 -281 q 119 -294 122 -290 q 129 -276 126 -287 m 115 -303 q 85 -358 99 -331 q 72 -421 72 -386 q 94 -362 85 -393 q 115 -303 103 -331 m 39 -394 q 33 -396 38 -396 l 36 -399 l 39 -394 m 54 -336 q 49 -351 53 -343 q 43 -367 46 -358 q 53 -344 46 -360 q 61 -325 61 -328 q 58 -331 58 -328 q 54 -336 57 -333 m 63 -375 l 58 -375 l 63 -378 l 63 -375 m 71 -429 q 72 -430 72 -429 q 74 -431 72 -431 l 72 -422 q 71 -429 71 -424 m 219 -360 l 221 -361 q 219 -360 219 -361 m 100 -475 q 203 -320 165 -404 q 276 -149 242 -236 q 168 -265 214 -201 q 103 -410 122 -328 q 99 -429 100 -419 q 97 -449 97 -439 q 98 -462 97 -456 q 100 -475 99 -468 m 254 -297 q 275 -248 264 -272 q 292 -197 286 -224 l 250 -293 l 250 -300 l 254 -297 m 265 -400 q 264 -403 264 -401 l 265 -401 l 265 -400 m 274 -393 q 322 -299 297 -346 q 358 -199 347 -251 q 353 -206 356 -201 q 349 -215 351 -211 q 313 -299 329 -257 q 275 -381 297 -340 l 274 -393 m 350 342 q 357 351 356 347 l 354 351 l 350 342 m 244 157 q 249 163 249 161 q 244 157 244 158 q 240 152 242 154 q 235 149 238 150 l 233 144 l 243 153 l 244 157 m 282 193 q 361 286 321 240 q 439 381 401 332 q 433 378 436 381 q 408 349 422 365 q 378 314 393 332 q 349 279 363 296 q 326 250 335 263 q 292 211 315 235 q 254 168 268 188 q 268 181 261 175 q 282 193 275 186 m 447 428 q 451 429 450 428 l 450 429 q 447 428 449 428 z "},"Z":{"ha":717,"x_min":0,"x_max":696,"o":"m 501 285 l 500 283 l 500 285 l 501 285 m 390 503 q 542 475 472 503 q 653 372 611 447 q 683 299 672 338 q 694 221 694 260 q 678 123 694 172 q 635 27 661 74 q 574 -60 608 -19 q 506 -132 540 -101 q 455 -171 482 -153 q 400 -204 428 -189 q 351 -229 378 -217 q 297 -252 325 -242 q 240 -269 268 -262 q 186 -275 211 -275 q 76 -246 128 -275 q 4 -158 24 -217 q 0 -132 0 -146 q 16 -79 0 -107 q 47 -32 32 -51 q 214 152 122 68 q 414 297 306 236 q 444 311 429 306 q 475 319 458 317 l 467 301 q 479 307 475 307 q 488 303 483 307 l 476 292 q 485 290 481 292 q 494 290 490 289 q 461 261 478 275 q 425 235 444 247 q 339 176 381 207 q 258 110 297 146 q 163 10 208 61 q 131 -29 146 -10 q 100 -68 117 -49 q 147 -19 126 -47 q 192 33 168 10 q 264 106 226 71 q 342 172 301 140 q 384 202 363 188 q 426 232 406 217 q 465 256 446 244 q 500 283 483 268 l 500 272 l 507 282 q 488 246 507 263 q 455 222 472 233 q 422 200 438 211 q 358 153 390 176 q 297 101 326 129 q 235 42 269 75 q 169 -29 201 8 q 112 -106 138 -67 q 76 -181 86 -144 q 103 -187 90 -185 q 132 -190 117 -190 q 204 -180 167 -190 q 278 -153 242 -169 q 349 -118 315 -137 q 413 -79 383 -99 q 490 -12 450 -54 q 562 78 529 29 q 615 181 594 128 q 636 279 636 233 q 615 360 636 331 q 561 406 594 390 q 487 426 528 421 q 406 431 446 431 q 305 417 354 431 q 208 385 256 403 l 206 399 l 204 397 q 188 411 194 401 q 181 432 181 421 q 190 469 181 449 q 211 501 199 490 l 322 601 q 394 663 358 633 q 467 725 431 693 q 506 756 486 740 q 543 790 525 772 q 549 800 546 793 q 440 775 494 786 q 329 753 385 764 q 253 740 292 746 q 176 733 215 733 q 127 740 153 733 q 81 761 101 747 q 47 796 60 775 q 33 844 33 817 q 40 847 36 847 q 46 846 44 847 q 50 842 47 844 q 103 817 74 821 q 164 813 133 813 q 347 831 256 813 q 529 868 439 850 q 599 885 564 875 q 669 894 633 894 q 676 879 672 889 q 685 859 681 869 q 692 839 689 849 q 696 825 696 829 q 674 788 696 813 q 617 731 651 763 q 542 663 583 699 q 462 596 500 628 q 393 540 424 564 q 350 504 363 515 l 351 501 q 371 503 361 503 q 390 503 381 503 m 413 790 q 410 792 411 792 l 408 790 l 413 790 m 426 794 l 425 794 l 425 793 l 426 793 l 426 794 m 481 806 q 479 807 481 807 l 479 806 l 481 806 m 493 810 l 492 808 l 493 808 l 493 810 m 510 813 l 506 813 l 506 811 l 508 811 l 510 813 m 524 815 l 519 815 l 519 814 l 524 814 l 524 815 m 576 826 l 578 826 l 578 828 l 576 828 l 576 826 m 536 817 q 538 817 538 817 q 539 818 538 818 l 536 818 l 536 817 m 551 821 l 550 822 l 544 818 l 551 821 m 524 688 l 525 686 l 529 690 l 529 692 l 524 688 m 258 425 l 257 425 l 257 424 l 258 424 l 258 425 m 288 489 q 320 511 297 493 q 369 552 343 529 q 419 597 394 575 q 458 631 444 619 q 372 561 414 596 q 286 492 331 526 l 288 489 m 325 143 q 324 144 325 144 l 325 143 m 231 56 l 232 57 l 231 57 l 231 56 m 197 75 q 206 82 200 76 l 197 75 m 301 169 q 283 156 292 163 q 267 140 275 149 q 251 127 258 133 q 238 114 244 121 q 252 126 240 114 q 267 140 264 138 l 301 169 m 400 264 l 401 265 l 400 265 l 400 264 m 322 213 q 330 218 326 215 q 338 224 333 221 l 333 222 l 322 213 m 233 140 q 223 133 231 140 q 206 116 215 125 q 188 98 196 107 q 176 86 179 89 q 206 111 193 94 q 233 140 219 128 q 256 161 244 151 q 279 179 267 171 q 301 194 290 186 q 321 213 313 203 q 303 200 317 210 q 275 178 290 190 q 247 155 260 165 q 233 140 235 144 m 169 49 q 167 45 168 46 q 164 43 165 44 l 167 43 l 169 46 l 169 49 m 489 -76 q 466 -95 476 -83 q 443 -114 456 -107 l 447 -112 q 469 -95 458 -104 q 489 -76 479 -86 m 469 -110 q 468 -108 469 -108 l 469 -110 m 468 -64 q 438 -86 453 -75 q 411 -110 424 -97 q 441 -89 425 -103 q 468 -64 457 -75 l 472 -61 l 475 -57 q 472 -60 472 -58 q 468 -64 471 -61 m 374 -183 q 368 -189 369 -185 l 369 -190 l 374 -183 m 399 -169 q 438 -149 415 -164 q 483 -115 461 -135 q 524 -76 506 -96 q 550 -40 542 -56 q 547 -43 547 -42 q 543 -47 546 -44 q 474 -112 511 -83 q 399 -169 438 -142 m 496 292 q 499 293 497 292 l 499 292 l 496 292 z "},"A":{"ha":550,"x_min":-85,"x_max":624,"o":"m 36 161 q 22 156 32 160 q 0 149 11 153 q -21 142 -11 144 q -33 139 -31 139 q -44 144 -39 139 l -43 151 l -57 154 l -36 178 l -69 165 l -69 168 l -62 178 l -74 179 l -69 188 q -79 195 -76 189 q -83 207 -82 201 l -79 215 q -85 229 -85 221 q -83 241 -85 238 q -74 250 -81 244 q -38 269 -62 260 q 15 285 -14 278 q 69 299 43 293 q 113 310 96 306 q 143 373 126 342 q 175 436 160 404 q 203 490 189 464 q 232 544 217 517 l 356 774 q 404 863 379 817 q 463 946 429 910 q 506 968 482 965 q 556 971 531 971 l 558 961 q 568 965 563 965 l 572 958 q 579 968 578 964 l 582 964 l 575 908 q 567 873 572 890 q 557 838 561 856 q 539 762 547 800 q 522 686 531 724 q 485 495 500 590 q 456 303 469 400 q 441 169 446 236 q 429 36 436 103 q 428 20 428 28 q 428 4 428 13 q 428 -17 428 -4 q 430 -44 429 -31 q 432 -72 431 -58 q 436 -90 433 -85 q 450 172 436 42 q 485 432 464 303 q 535 690 507 561 q 592 946 563 818 q 594 954 593 950 q 599 961 594 958 l 607 946 l 611 954 q 624 940 624 951 q 611 857 624 899 q 589 775 599 815 q 570 691 578 733 q 554 606 563 649 q 515 397 535 501 q 486 188 496 293 q 476 90 482 139 q 471 -7 471 42 q 476 -98 471 -53 q 486 -189 481 -143 l 482 -199 l 474 -189 l 469 -193 q 465 -192 467 -193 q 460 -189 463 -190 l 453 -194 l 447 -194 q 421 -191 431 -194 q 399 -176 411 -187 q 367 -137 378 -160 q 350 -89 356 -114 q 343 -37 344 -64 q 342 14 342 -11 q 343 51 342 33 q 346 89 344 69 q 349 152 349 121 q 356 215 349 183 q 334 217 344 217 q 313 218 324 218 q 260 215 286 218 q 208 207 235 211 q 192 176 199 192 q 178 144 185 160 q 148 83 163 114 q 117 24 133 53 q 108 9 111 14 q 101 2 106 4 q 92 -1 97 0 q 76 -6 86 -3 l 75 11 q 69 0 71 6 q 64 -12 67 -6 l 60 -3 l 50 -7 q 50 6 50 0 q 53 17 50 11 l 50 17 l 40 -7 l 36 0 l 24 -3 l 22 18 l 14 6 q 3 13 10 8 q -4 24 -4 18 q 11 94 -4 56 q 39 161 26 133 l 39 164 l 36 161 m 417 640 q 398 604 411 629 q 368 547 385 579 q 334 481 351 515 q 302 415 317 446 q 278 360 288 383 q 268 331 268 338 q 319 328 293 331 q 367 311 344 325 q 374 367 369 339 q 383 424 379 396 q 417 640 397 532 m 479 760 l 474 760 q 468 735 471 747 q 463 711 465 724 l 419 471 q 402 379 411 426 q 393 286 393 332 l 393 282 l 399 282 q 434 522 414 403 q 479 760 454 640 m 419 231 l 422 231 q 441 352 433 292 q 458 475 449 413 l 474 574 q 486 640 479 607 q 499 707 493 674 q 509 760 503 735 q 522 813 515 786 q 515 800 517 804 q 504 755 507 778 q 497 708 501 732 q 480 622 490 664 q 463 535 469 579 l 422 274 q 419 252 419 263 q 419 231 419 242 m 419 207 q 412 174 415 199 q 406 119 408 149 q 403 64 404 90 q 401 25 401 38 q 401 13 401 18 q 403 0 401 7 q 410 103 406 53 q 419 207 414 154 m 63 208 l 60 211 q 40 208 53 211 q 13 199 26 204 q -15 188 -1 193 q -33 179 -28 183 l -24 179 q -6 183 -18 179 q 19 191 6 186 q 45 201 33 196 q 63 208 57 206 m 388 211 l 386 211 q 376 113 379 163 q 374 15 374 64 l 388 211 m -53 231 q -37 233 -47 231 q -15 240 -26 236 q 8 249 -3 244 q 22 256 18 253 q -16 245 3 250 q -53 231 -35 240 m -37 208 q -35 204 -35 207 q -22 210 -28 207 q -10 215 -17 213 q 0 221 -3 215 q -37 208 -19 217 m 456 51 l 453 51 l 453 26 l 456 26 l 456 51 m 460 140 l 463 140 l 463 156 l 460 156 l 460 140 m 467 193 l 469 193 l 469 207 l 467 207 l 467 193 m 496 390 l 493 390 l 493 381 l 496 381 l 496 390 m 469 218 l 472 218 l 472 228 l 469 228 l 469 218 m 433 218 l 436 218 l 436 228 l 433 228 l 433 218 m 458 125 l 458 108 l 460 108 l 460 125 l 458 125 m 486 335 l 483 335 l 483 326 l 486 326 l 486 335 m 458 92 l 456 92 l 456 82 q 458 92 458 85 m 508 471 l 506 471 l 506 464 l 508 464 l 508 471 m 474 251 l 472 251 l 472 239 l 474 239 l 474 251 m 456 388 l 458 388 l 458 393 l 456 393 l 456 388 m 506 456 l 503 456 l 503 450 l 506 450 l 506 456 m 522 549 l 519 549 q 522 542 519 544 l 522 549 m 444 307 l 446 307 l 446 317 l 444 317 l 444 307 m 433 201 l 431 201 l 431 197 l 433 197 l 433 201 m 483 556 l 486 556 l 486 561 q 483 556 483 558 m 483 311 l 482 311 l 482 304 l 483 304 l 483 311 m 532 601 l 533 601 l 533 608 l 532 608 l 532 601 m 543 650 l 540 650 l 540 647 l 543 647 l 543 650 m 554 711 l 556 711 l 556 717 l 554 717 l 554 711 m 497 406 l 496 406 l 496 400 l 497 400 l 497 406 m 443 288 l 444 288 q 443 294 444 292 l 443 288 m 26 33 q 22 29 24 32 l 24 26 q 26 33 24 31 m 519 532 l 518 532 l 518 528 l 519 528 l 519 532 m 525 565 l 522 565 l 525 561 l 525 565 m 489 353 l 486 353 l 489 349 l 489 353 m 518 517 l 515 517 l 515 513 l 518 517 m 490 363 l 493 363 l 490 367 l 490 363 m 532 592 l 532 594 q 529 592 529 594 l 532 592 m 565 764 l 568 767 l 565 767 l 565 764 m 568 775 l 569 778 l 568 781 l 568 775 m 549 672 l 549 675 l 546 675 l 549 672 m 533 865 l 532 863 l 533 861 l 533 865 m 510 485 l 508 482 l 510 481 l 510 485 m 7 221 l 7 222 q 4 221 6 222 l 7 221 m 4 172 l 4 171 l 7 172 l 4 172 m 460 407 l 458 407 l 460 406 l 460 407 z "},"@":{"ha":771,"x_min":32,"x_max":754,"o":"m 664 63 q 660 45 664 51 q 650 32 657 39 q 596 -5 628 10 q 529 -28 564 -19 q 459 -42 494 -37 q 393 -46 424 -46 q 283 -27 338 -46 q 183 21 229 -8 q 67 144 101 74 q 32 311 32 215 q 65 486 32 396 q 156 651 99 576 q 293 773 214 725 q 464 821 372 821 q 545 804 506 821 q 619 760 585 788 q 680 699 653 733 q 724 628 707 664 q 747 560 739 596 q 754 488 754 524 q 733 367 754 424 q 672 261 711 311 q 617 205 649 229 q 543 181 585 181 q 485 197 511 181 q 443 242 458 214 q 412 212 428 226 q 381 182 396 197 q 368 171 374 175 q 351 167 363 167 q 336 169 344 167 q 276 217 294 183 q 258 293 258 251 q 267 363 258 322 q 292 429 276 403 q 315 464 301 446 q 347 497 329 482 q 384 520 364 511 q 425 529 404 529 q 501 501 465 529 q 546 435 536 474 l 542 432 q 517 442 526 436 q 492 449 508 449 q 446 435 467 449 q 408 400 425 421 q 380 355 392 379 q 363 310 368 331 l 354 275 l 357 274 q 406 312 385 290 q 436 365 428 333 q 449 401 440 382 q 475 428 458 419 q 490 419 483 424 q 503 406 497 414 l 515 400 l 514 392 l 518 392 q 531 375 531 386 q 524 344 531 360 q 514 313 517 328 q 507 249 507 278 q 508 241 507 244 q 510 233 508 238 q 584 269 549 238 q 647 344 619 300 q 689 435 674 388 q 704 518 704 482 q 678 648 704 589 q 589 746 651 707 q 510 769 553 769 q 358 724 428 769 q 239 608 289 678 q 161 455 189 538 q 133 299 133 372 q 141 210 133 253 q 167 129 149 167 q 217 62 186 92 q 293 14 247 32 q 336 2 314 6 q 381 -1 358 -1 q 493 14 444 -1 q 596 60 542 29 l 617 71 l 657 56 l 664 63 m 299 710 q 290 704 296 707 q 253 672 272 692 q 217 631 235 653 q 185 585 200 608 q 161 543 171 563 q 152 520 156 532 q 144 497 149 508 q 156 516 151 506 q 165 538 160 526 q 192 583 175 558 q 228 633 208 608 q 267 678 247 657 q 306 711 288 699 l 299 710 m 422 456 q 391 439 407 454 q 371 408 375 424 l 422 456 m 699 339 q 686 323 694 335 q 669 298 678 311 q 652 272 660 285 q 642 254 644 260 q 653 266 647 261 q 663 278 658 271 q 681 308 674 293 q 699 339 689 324 m 432 261 l 429 265 q 397 232 414 247 q 360 201 379 217 l 361 199 q 374 210 367 206 q 388 221 381 215 q 409 241 399 231 q 432 261 419 251 m 385 490 q 365 480 374 486 q 350 463 356 474 q 367 476 358 469 q 385 490 375 483 m 190 657 q 207 672 197 664 q 221 690 217 679 q 205 674 213 682 q 190 657 197 667 m 251 690 q 231 668 235 683 l 251 690 m 150 607 q 164 624 160 615 q 150 607 158 618 m 136 483 l 140 483 q 141 488 140 486 q 142 493 142 490 q 138 488 139 490 q 136 483 138 486 m 140 588 q 147 596 142 590 q 140 590 140 596 l 140 588 m 424 304 l 421 306 q 418 296 418 300 q 424 304 421 301 m 229 700 q 228 699 229 699 q 228 697 228 699 q 233 702 231 700 q 238 707 235 704 l 229 700 m 136 475 l 135 475 l 135 472 q 136 475 135 474 z "},"&":{"ha":447,"x_min":0,"x_max":400,"o":"m 326 547 l 317 546 q 333 590 324 569 q 343 636 343 611 q 337 667 343 653 q 315 689 331 681 l 247 490 l 271 494 q 297 476 282 482 l 296 468 l 304 471 q 313 458 313 465 q 310 449 313 453 q 308 438 308 444 q 288 436 297 435 q 267 438 278 438 q 228 429 246 438 q 181 270 201 350 q 144 108 160 190 q 180 126 161 115 q 215 149 199 136 q 242 180 232 163 q 253 218 253 197 q 247 250 253 235 q 235 281 240 265 q 297 260 271 279 q 324 203 324 242 q 310 156 324 178 q 275 117 296 135 q 231 87 254 100 q 186 67 207 74 q 165 62 175 64 q 143 57 154 60 q 134 54 138 56 q 131 46 131 53 l 124 54 l 111 54 l 107 43 l 106 60 q 26 113 53 72 q 0 206 0 154 q 11 286 0 243 q 44 368 22 329 q 95 438 65 407 q 163 482 125 468 q 111 529 138 501 q 85 592 85 557 q 99 649 85 621 q 135 699 113 676 q 186 735 158 721 q 243 749 214 749 q 270 745 257 749 q 296 736 283 742 l 324 801 l 328 801 l 332 793 l 331 793 l 331 792 q 335 793 332 793 q 338 790 338 793 q 340 786 339 788 l 343 786 l 350 781 l 328 721 q 378 676 356 699 q 400 613 400 653 q 396 582 400 596 q 390 568 394 578 q 381 549 386 558 q 369 533 375 540 q 358 525 363 525 q 349 531 354 525 q 336 535 342 532 q 328 546 331 539 l 332 554 l 326 547 m 213 496 l 282 697 q 196 647 232 685 q 160 554 160 608 q 177 518 160 529 q 213 496 194 507 m 181 396 q 163 382 172 392 q 147 360 154 372 q 134 337 140 349 q 124 317 128 325 q 100 257 108 288 q 92 193 92 226 q 95 152 92 169 q 108 114 99 135 l 113 114 l 115 131 l 167 346 l 181 396 m 64 221 q 106 339 76 283 q 121 363 113 351 q 133 389 129 374 l 132 389 q 85 310 106 356 q 64 221 64 264 m 151 622 q 162 640 156 632 q 175 657 168 649 l 175 660 q 161 642 171 656 q 151 622 151 628 m 297 181 q 303 196 303 186 q 301 206 303 203 l 297 181 m 122 43 l 128 33 l 126 32 l 119 42 l 122 43 m 51 329 q 61 347 56 340 l 61 351 q 56 340 58 346 q 51 329 53 335 m 267 200 l 269 200 l 269 207 l 268 207 q 267 200 268 203 m 118 104 l 119 104 l 119 110 l 117 110 q 118 104 118 108 m 138 121 l 135 121 q 138 115 135 118 q 138 121 138 115 m 129 168 l 131 167 l 131 174 l 129 174 l 129 168 m 146 165 l 144 165 q 146 158 144 160 l 146 165 m 154 269 l 156 269 l 156 275 l 154 275 l 154 269 m 140 129 l 140 135 l 138 135 l 140 129 m 114 43 l 114 39 l 113 39 q 111 43 113 42 l 114 43 m 121 121 l 122 121 l 122 126 l 121 126 l 121 121 m 133 182 l 135 182 q 133 186 135 185 l 132 186 q 133 182 132 183 m 138 201 l 136 201 l 136 196 l 138 196 l 138 201 m 128 158 l 126 158 l 126 153 l 128 153 l 128 158 m 124 138 l 125 138 l 125 142 l 124 142 l 124 138 m 144 235 l 146 235 l 146 239 l 144 239 l 144 235 m 143 226 l 142 226 l 142 222 l 143 222 l 143 226 m 171 260 l 171 261 q 169 265 171 264 l 168 265 l 171 260 m 150 250 l 147 250 l 149 246 q 150 250 149 249 m 150 179 l 147 179 q 149 176 147 176 q 150 179 149 178 m 167 318 l 165 318 l 165 315 l 167 315 l 167 318 m 31 274 l 32 274 l 32 278 q 31 274 31 276 m 158 285 l 157 285 l 157 282 l 158 282 l 158 285 m 143 151 l 142 151 l 142 149 l 143 149 l 143 151 m 157 217 l 158 217 l 158 219 l 157 219 l 157 217 m 161 296 l 160 296 l 160 293 l 161 293 l 161 296 m 151 263 l 151 258 l 153 258 l 151 263 m 149 681 q 147 682 149 682 q 146 679 147 679 q 147 680 147 679 q 149 681 147 681 m 172 275 q 174 278 174 276 l 172 278 l 172 275 m 140 213 l 139 213 l 139 210 q 140 213 140 211 m 161 232 q 160 231 160 232 l 161 231 l 161 232 m 192 340 l 192 342 l 190 342 l 190 340 l 192 340 m 185 378 l 185 379 q 183 378 183 379 l 185 378 m 174 340 l 172 338 l 172 336 q 174 340 174 338 m 182 369 q 181 368 181 369 l 182 368 l 182 369 m 175 347 l 176 347 l 176 349 l 175 349 l 175 347 m 89 396 q 88 393 88 394 q 89 396 89 394 m 153 194 l 151 194 l 151 192 q 153 194 151 193 m 154 204 l 156 204 q 154 206 154 206 l 154 204 m 188 331 l 189 331 l 188 332 l 188 331 m 192 399 l 190 400 l 190 399 l 192 399 m 197 363 l 196 361 l 197 361 l 197 363 m 342 532 l 342 531 l 343 532 l 342 532 m 54 279 l 56 279 l 56 281 l 54 279 m 139 158 l 140 160 l 139 160 l 139 158 m 213 411 l 211 413 l 211 411 l 213 411 z "},"B":{"ha":817,"x_min":0,"x_max":867,"o":"m 664 231 l 676 233 l 678 225 l 689 231 q 645 192 679 211 q 568 149 611 174 q 483 92 525 125 q 414 11 440 58 l 415 8 q 440 13 428 11 q 464 17 451 14 q 543 49 501 28 q 620 101 585 71 q 679 170 656 132 q 703 251 703 208 q 683 299 703 281 q 635 326 663 317 q 576 338 607 335 q 524 342 544 342 q 427 329 475 342 q 338 292 379 317 q 332 285 335 290 q 321 226 324 257 q 318 167 318 196 q 320 145 318 156 q 322 124 322 135 q 321 113 322 117 q 311 108 319 108 q 292 111 301 108 q 274 115 283 114 q 222 160 243 136 q 201 224 201 183 q 221 387 201 307 q 260 547 240 467 q 273 601 267 575 q 289 653 279 626 q 310 702 299 678 q 332 750 321 726 q 318 769 325 760 q 304 788 311 778 q 310 799 304 797 q 322 800 315 800 q 356 788 339 800 q 388 758 374 775 q 413 720 403 740 q 422 685 422 700 l 422 661 q 418 622 422 646 q 408 574 414 599 q 395 526 401 549 q 383 488 389 503 q 401 483 392 485 q 418 482 410 482 q 492 496 449 482 q 581 530 536 510 q 666 574 626 550 q 729 619 706 599 q 770 672 754 642 q 786 736 786 703 q 772 788 786 764 q 738 829 758 811 q 694 853 721 843 q 638 868 667 863 q 580 876 608 874 q 529 879 551 879 q 351 851 439 879 q 262 815 311 839 q 170 757 213 790 q 99 682 128 724 q 69 592 69 640 q 73 581 69 589 q 82 563 76 572 q 92 546 88 554 q 99 533 96 538 l 99 519 q 57 536 75 522 q 26 570 39 550 q 7 613 14 590 q 0 657 0 636 q 9 714 0 688 q 35 767 18 740 q 117 857 67 817 q 227 926 168 897 q 350 969 286 954 q 472 983 414 983 q 523 983 497 983 q 574 979 549 982 q 753 902 688 964 q 854 733 818 840 q 867 660 867 697 q 847 564 867 603 q 793 497 826 525 q 717 448 760 469 q 632 406 675 426 q 640 399 638 400 q 743 305 699 361 q 788 175 788 249 q 755 61 788 113 q 672 -26 722 10 q 560 -83 621 -62 q 443 -103 499 -103 q 390 -93 417 -103 q 342 -66 364 -83 q 308 -24 321 -49 q 294 28 294 0 q 297 49 294 40 q 304 68 299 57 q 348 132 319 101 q 411 188 376 163 q 483 233 446 214 q 556 261 521 251 q 599 269 578 268 q 643 271 621 271 l 660 253 l 660 246 l 671 243 l 664 231 m 311 872 l 306 872 q 251 850 282 864 q 192 819 221 836 q 138 782 163 803 q 104 738 114 761 q 154 781 131 763 q 202 814 178 799 q 252 843 226 829 q 311 872 278 857 m 571 425 q 622 442 590 429 q 686 472 654 454 q 745 508 718 489 q 783 544 772 528 q 681 479 733 508 q 571 425 628 450 m 386 39 q 392 45 389 42 q 397 51 394 49 q 453 107 424 82 q 514 156 482 132 l 515 158 q 478 138 499 151 q 440 109 458 125 q 406 75 421 93 q 386 39 392 57 m 725 82 q 694 53 710 68 q 664 25 679 39 q 642 7 653 15 q 621 -12 631 -1 q 665 13 642 -8 q 703 50 689 35 q 714 65 710 57 q 725 82 718 74 m 718 572 q 713 569 715 569 q 708 567 711 568 q 682 551 694 560 q 656 535 669 542 l 564 486 l 569 486 q 599 497 576 486 q 648 523 622 508 q 694 551 674 538 q 718 572 715 565 m 603 472 l 608 471 q 640 483 621 475 q 677 501 658 492 q 711 523 696 511 q 735 546 726 535 q 669 506 700 531 q 603 472 639 482 m 231 896 l 231 897 q 205 885 221 894 q 172 865 189 876 q 139 841 154 853 q 115 822 124 829 l 231 896 m 369 111 q 401 136 388 118 q 432 167 415 154 q 396 141 415 156 q 369 111 376 126 m 596 42 q 657 94 631 58 q 596 42 626 69 m 438 139 l 388 92 q 386 85 386 90 l 443 139 l 438 139 m 203 851 q 189 844 199 850 q 169 832 179 839 q 149 819 158 825 q 139 808 140 813 q 171 830 154 819 q 203 851 188 840 m 631 31 q 654 47 642 39 q 674 69 667 56 l 631 31 m 236 900 l 239 897 q 256 908 250 906 l 236 900 m 343 324 l 343 321 l 350 331 q 343 324 343 326 m 551 482 l 553 479 l 560 485 q 551 482 554 485 m 617 -14 l 611 -18 l 614 -21 q 617 -14 617 -18 m 596 42 q 590 39 593 42 l 592 36 l 596 42 m 447 176 l 443 176 q 440 174 440 175 q 438 171 439 172 q 447 176 440 174 m 365 108 l 367 107 l 368 111 l 365 108 m 482 111 l 485 114 l 483 114 q 483 113 483 113 q 482 111 482 113 m 329 878 q 333 879 331 879 l 333 881 l 329 878 m 474 106 l 472 106 l 472 104 l 474 106 m 667 -7 l 667 -6 l 665 -7 l 667 -7 m 692 15 q 694 18 692 15 q 692 15 692 15 m 628 28 q 631 31 631 31 q 628 28 631 31 m 204 800 l 204 801 l 203 800 l 204 800 m 706 28 l 707 28 l 707 29 l 706 28 m 667 39 l 665 39 l 665 38 l 667 39 m 171 817 l 172 817 l 172 818 l 171 817 m 432 167 q 433 168 433 168 q 432 167 432 168 z "},"a":{"ha":431,"x_min":0,"x_max":432,"o":"m 417 142 q 424 153 419 149 q 432 165 428 158 q 403 103 421 138 q 363 34 385 68 q 318 -31 342 0 q 272 -79 294 -61 q 234 -63 249 -71 q 219 -26 219 -56 q 230 85 219 31 q 251 196 240 140 l 204 147 q 180 121 193 136 q 152 92 167 106 q 121 68 138 78 q 86 58 104 58 q 58 64 74 58 q 30 79 43 69 q 8 101 17 89 q 0 129 0 114 q 15 201 0 160 q 52 281 29 242 q 102 355 75 321 q 154 407 129 389 q 200 434 175 422 q 251 446 225 446 q 299 433 278 446 q 340 403 321 421 q 346 392 346 397 q 343 383 346 389 l 303 394 q 237 356 265 382 q 185 297 208 329 q 145 227 163 264 q 113 157 128 190 l 115 154 l 138 171 l 271 290 q 299 326 289 307 q 332 354 308 344 l 333 340 l 329 339 q 327 334 326 335 q 324 329 328 333 l 328 331 l 329 338 l 333 340 q 342 346 336 346 q 349 342 344 346 l 347 332 l 353 335 l 353 336 l 360 333 q 342 282 351 307 q 324 232 333 257 l 322 231 q 324 232 324 231 q 328 238 328 236 q 348 284 339 261 q 368 329 357 307 q 381 317 381 326 q 378 303 381 310 q 374 289 376 296 q 353 232 367 269 q 327 153 340 194 q 304 76 314 113 q 294 22 294 39 q 319 44 308 31 q 340 68 329 57 l 343 68 q 313 31 329 49 q 288 -10 297 13 l 286 -10 l 286 -11 q 288 -10 288 -11 q 324 31 307 10 q 357 74 340 53 q 365 86 361 79 q 375 99 369 93 l 382 106 q 331 33 360 68 q 282 -42 301 -3 l 326 10 l 314 -14 l 324 -7 l 325 -12 q 331 -1 326 -7 q 338 10 335 4 l 339 10 l 339 11 l 338 10 l 335 10 q 340 24 338 18 q 350 35 343 29 l 350 29 l 353 35 l 357 38 l 360 43 q 369 58 363 51 q 378 74 375 65 q 384 84 381 79 q 390 94 388 89 l 389 94 l 392 100 l 390 100 l 399 115 l 400 110 q 403 119 401 115 q 408 128 406 124 l 407 128 l 411 131 q 417 143 414 135 l 417 142 m 338 318 q 336 311 336 315 q 338 318 338 314 m 336 310 q 329 303 329 307 l 329 301 q 331 299 329 300 l 336 310 m 311 190 q 310 186 310 189 l 311 190 m 315 204 q 314 197 314 203 l 315 200 l 315 204 m 318 321 q 307 300 310 313 l 318 321 m 308 179 q 299 151 303 167 q 306 165 304 158 q 308 179 307 172 m 296 144 l 299 150 l 297 150 l 296 144 m 296 139 q 294 132 294 136 l 296 132 l 296 139 m 288 108 l 289 106 l 289 110 l 288 108 m 282 81 l 283 81 l 283 83 l 282 83 l 282 81 m 144 329 q 143 328 143 329 l 144 328 l 144 329 m 139 319 q 136 318 138 318 l 139 318 l 139 319 m 129 351 l 133 354 l 132 354 l 129 351 m 46 210 q 45 208 46 208 q 44 206 44 207 l 46 206 l 46 210 m 50 221 q 54 226 54 225 q 81 274 68 250 q 108 319 93 297 q 118 333 111 324 q 125 347 125 342 l 122 342 q 104 319 115 335 q 83 284 93 303 q 63 248 72 265 q 50 221 54 231 q 47 214 47 218 l 50 221 m 122 299 q 97 261 108 279 q 76 221 86 243 q 99 258 88 240 q 122 296 111 276 l 122 299 m 68 199 l 72 208 q 69 204 69 207 q 67 199 69 201 l 68 199 m 71 133 q 69 128 69 132 l 71 128 l 71 133 m 76 146 q 123 250 96 199 q 186 344 150 301 q 156 315 172 336 q 126 270 140 294 q 100 222 111 246 q 83 183 89 199 q 76 160 79 172 q 71 136 74 147 q 76 146 74 139 m 288 -50 q 285 -53 285 -50 l 288 -50 m 289 -49 q 295 -44 292 -46 q 299 -36 299 -42 l 289 -49 m 299 -42 q 300 -41 300 -42 q 301 -40 300 -40 q 299 -42 301 -42 m 307 -31 q 308 -26 307 -28 q 308 -22 308 -25 l 300 -35 l 307 -31 m 308 -29 l 310 -28 q 308 -29 310 -29 m 315 -26 q 314 -27 314 -26 q 313 -28 314 -28 l 315 -28 l 315 -26 m 325 -14 l 324 -14 l 319 -17 l 321 -17 l 325 -14 m 349 22 q 350 28 350 24 q 349 22 349 26 z "},"r":{"ha":417,"x_min":-51,"x_max":392,"o":"m 215 436 q 160 244 203 333 q 57 71 117 154 q 31 39 44 54 q -3 13 17 24 l -51 29 l -49 33 q -17 70 -31 51 q 11 110 -3 89 q 150 468 115 275 q 108 497 131 482 q 67 529 86 511 q 36 569 49 547 q 24 618 24 590 q 29 647 24 632 q 45 674 35 661 q 69 694 56 686 q 97 701 82 701 q 132 693 115 701 q 187 648 167 678 q 211 582 207 618 q 216 536 214 558 q 219 490 218 514 q 292 447 256 469 q 358 397 328 425 q 392 322 392 365 q 377 246 392 290 q 351 169 363 201 q 330 108 342 142 q 308 38 318 74 q 290 -32 297 3 q 282 -96 282 -67 q 292 -150 282 -126 l 331 -160 l 329 -171 l 331 -172 l 338 -164 l 349 -164 q 353 -181 353 -172 q 346 -197 353 -190 q 329 -208 339 -204 q 309 -214 319 -212 q 290 -215 299 -215 q 233 -199 257 -215 q 193 -157 208 -182 q 171 -101 178 -132 q 164 -42 164 -71 q 174 37 164 -7 q 197 126 183 81 q 227 215 211 172 q 256 292 243 258 q 271 335 263 307 q 279 378 279 363 q 257 415 279 403 q 215 436 235 428 m 246 -83 q 251 -54 249 -68 q 256 -25 253 -40 q 283 78 267 28 q 318 181 300 129 q 340 244 329 213 q 354 310 351 276 l 351 310 q 303 168 326 239 q 258 26 281 97 q 248 -15 251 6 q 244 -58 244 -36 q 244 -71 244 -65 q 246 -83 244 -76 m 150 524 q 151 533 150 528 q 151 542 151 538 q 150 567 151 551 q 146 597 149 582 q 139 626 143 613 q 129 647 135 640 q 107 600 107 628 q 119 556 107 578 q 150 524 131 535 m 313 278 l 244 78 q 233 31 238 54 q 224 -17 229 7 l 226 -14 q 244 49 236 18 q 263 113 251 81 q 293 196 276 154 q 317 282 310 238 l 313 278 m 292 301 q 281 281 285 293 q 274 257 276 268 l 207 54 l 192 -1 q 208 39 201 18 q 221 81 214 60 q 258 190 239 136 q 292 301 276 244 m 188 394 q 183 388 186 394 q 150 287 168 336 q 110 189 132 238 q 133 228 121 201 q 158 287 146 256 q 177 348 169 318 q 188 394 185 378 m 118 286 q 127 306 124 297 q 133 326 131 315 l 131 325 l 118 286 m 88 622 q 91 633 90 628 q 94 646 92 639 q 86 629 86 638 q 88 622 86 625 m 68 178 q 76 187 74 181 q 79 200 78 193 l 68 178 m 138 347 q 133 329 131 339 l 138 347 m 58 660 l 50 647 l 53 644 q 58 660 56 656 m 221 -28 l 224 -28 q 223 -24 224 -25 q 222 -21 222 -24 q 221 -28 221 -24 m 190 410 l 189 410 l 189 404 l 190 404 l 190 410 m 294 310 l 293 310 l 293 304 q 294 310 294 306 m 286 29 l 285 29 l 285 25 l 286 25 l 286 29 m 282 13 l 283 13 l 283 17 l 282 17 l 282 13 m 297 69 l 296 67 l 299 65 q 297 69 299 68 m 301 79 l 300 79 l 300 75 l 301 75 l 301 79 m 319 289 l 317 289 l 317 285 l 319 289 m 193 425 l 192 425 l 192 421 l 193 421 l 193 425 m 144 365 l 143 365 q 142 360 143 361 q 144 365 144 363 m 274 -18 l 272 -18 l 272 -21 l 274 -21 l 274 -18 m 340 193 l 339 193 l 339 190 l 340 190 l 340 193 m 324 149 l 325 149 l 325 151 l 324 151 l 324 149 m 147 382 l 151 388 l 150 388 l 147 382 m 292 47 q 290 44 290 47 l 292 44 l 292 47 m 321 139 q 322 142 322 139 l 321 142 l 321 139 m 154 399 l 153 401 l 153 397 l 154 399 m 271 -35 l 271 -32 l 269 -32 q 271 -35 269 -33 m 342 200 l 343 200 l 343 201 l 342 201 l 342 200 m 310 104 l 310 106 l 308 106 q 310 104 308 104 m 272 110 l 274 108 l 274 110 l 272 110 m 267 90 l 268 92 l 267 92 l 267 90 m 313 114 q 311 113 311 114 l 313 114 m 58 106 l 57 104 l 58 104 l 58 106 m 269 101 l 271 100 l 271 101 l 269 101 m 364 265 l 364 267 l 363 265 l 364 265 m 294 57 l 293 56 l 294 56 l 294 57 m 344 211 l 346 210 l 346 211 l 344 211 m 318 131 l 319 132 l 318 132 l 318 131 m 313 225 l 311 224 l 313 224 l 313 225 m 142 358 l 140 354 q 142 358 142 356 m 292 165 l 290 164 l 292 164 l 292 165 m 253 40 l 253 42 l 251 40 l 253 40 z "},"c":{"ha":336,"x_min":-6,"x_max":304,"o":"m 258 72 l 269 83 q 281 76 272 79 q 276 67 278 72 q 271 58 274 63 q 246 34 263 46 q 210 12 229 22 q 170 -5 190 1 q 136 -11 150 -11 q 78 3 104 -11 q 33 41 51 18 q 4 94 14 64 q -6 153 -6 124 q 7 234 -6 186 q 43 326 19 282 q 99 402 67 371 q 171 433 131 433 q 245 406 211 433 q 297 344 279 379 q 304 318 304 331 q 299 284 304 300 q 293 250 293 268 q 297 230 293 239 q 303 210 300 221 q 250 237 269 214 q 231 293 231 260 q 244 353 231 321 l 235 353 q 219 351 226 353 q 204 344 211 350 q 151 288 172 321 q 119 216 131 254 q 103 138 107 178 q 99 60 99 97 q 99 52 99 56 q 101 44 100 49 q 164 61 138 47 q 218 94 190 75 q 238 104 224 99 l 263 85 l 258 72 m 171 357 l 158 353 q 140 337 150 349 q 122 310 131 325 q 107 281 114 296 q 97 258 100 267 l 99 258 q 104 269 101 265 q 111 279 107 272 q 140 320 126 301 q 172 357 153 339 l 171 357 m 82 340 q 101 358 90 344 q 118 381 113 372 q 109 376 114 381 q 99 364 104 371 q 88 350 93 357 q 82 340 83 343 m 113 336 q 125 348 119 343 q 136 360 131 353 q 121 351 129 360 q 113 336 113 343 m 257 338 q 256 335 256 336 l 257 335 l 257 338 m 264 88 q 263 86 264 86 q 263 85 263 86 l 264 85 l 264 88 z "}}}
